<?xml version="1.0" encoding="UTF-8" standalone="no"?>
<!DOCTYPE svg PUBLIC "-//W3C//DTD SVG 1.1//EN" "http://www.w3.org/Graphics/SVG/1.1/DTD/svg11.dtd">
<svg width="100%" height="100%" viewBox="0 0 2048 2048" version="1.1" xmlns="http://www.w3.org/2000/svg" xmlns:xlink="http://www.w3.org/1999/xlink" xml:space="preserve" xmlns:serif="http://www.serif.com/" style="fill-rule:evenodd;clip-rule:evenodd;stroke-linecap:round;stroke-linejoin:round;stroke-miterlimit:1.5;">
    <g id="レイヤー1">
        <path d="M1082.24,137.662C1102.91,121.868 1219.86,193.756 1251.23,238.805C1282.6,283.853 1282.29,378.597 1258.22,422.072C1198.03,530.783 1021.89,605.104 1007.19,651.605C1000.9,671.49 1076.48,685.448 1081.23,745.315C1086.17,807.501 1038.23,795.476 1038.08,841.23C1037.94,882.894 1035.97,968.667 1035.97,968.667C1035.97,968.667 1145.97,923.074 1271.39,936.147C1461.93,956.008 1530.41,1085.2 1530.71,1134.04C1531.47,1257.03 1384.29,1318.56 1308.91,1319.85C1211.82,1321.5 1131.7,1299.14 1133.86,1277.15C1136.73,1248.06 1332.7,1262.35 1334.28,1146.29C1335.59,1050.19 1251.66,1011.89 1156.93,1016.53C1114.12,1018.63 1037.38,1044.25 1037.38,1044.25C1037.38,1044.25 1044.26,1512.29 1046.53,1642.21C1047.55,1700.22 1092.59,1759.53 1092.56,1810.08C1092.54,1850.85 1045.06,1902.8 1015.49,1903.63C956.536,1905.28 922.388,1806.83 922.038,1759.1C921.83,1730.74 947.708,1691.1 948.658,1659.99C952.16,1545.33 953.605,1073.52 953.605,1073.52C953.605,1073.52 880.371,1122.75 852.833,1151.47C804.475,1201.91 721.454,1341.3 612.179,1340.44C519.771,1339.71 465.557,1286.23 466.031,1130.5C466.24,1061.86 526.052,980.689 576.069,921.441C665.319,815.719 900.396,590.695 997.536,494.35C1052.08,440.248 1113.74,336.104 1111.93,283.549C1110.18,232.926 1056.5,157.329 1082.24,137.662ZM923.854,716.121C954.496,729.024 957.425,985.667 957.425,985.667C957.425,985.667 852.165,1033.12 798.797,1080.09C750.738,1122.38 687.963,1213.56 638.881,1210.37C571.057,1205.95 546.618,1106.69 598.375,1017C666.892,898.262 881.8,698.412 923.854,716.121Z" style="stroke:black;stroke-width:1px;"/>
    </g>
</svg>
