<?xml version="1.0" encoding="UTF-8" standalone="no"?>
<!DOCTYPE svg PUBLIC "-//W3C//DTD SVG 1.1//EN" "http://www.w3.org/Graphics/SVG/1.1/DTD/svg11.dtd">
<svg width="100%" height="100%" viewBox="0 0 2048 2048" version="1.1" xmlns="http://www.w3.org/2000/svg" xmlns:xlink="http://www.w3.org/1999/xlink" xml:space="preserve" xmlns:serif="http://www.serif.com/" style="fill-rule:evenodd;clip-rule:evenodd;stroke-linecap:round;stroke-linejoin:round;stroke-miterlimit:1.5;">
    <path d="M1209.64,531.459C1226.62,523.705 1320.04,537.426 1353.75,559.126C1385.49,579.555 1407.74,599.841 1405.38,638.717C1402.18,691.441 1346.48,687.999 1301.1,728.315C1260.33,764.534 1208.31,800.855 1131.29,859.805C1071.54,905.539 905.731,999.193 905.731,999.193C905.731,999.193 796.561,1203.53 722.372,1281.16C532.032,1480.34 392.312,1468.14 392.312,1468.14C392.312,1468.14 567.726,1350.16 626.154,1278.73C687.516,1203.72 783.265,1032.98 783.265,1032.98C783.265,1032.98 670.108,1080.01 643.716,1054.61C617.319,1029.21 615.362,933.885 627.648,891.851C649.025,818.719 778.493,636.377 835.933,634.548C886.079,632.951 918.52,704.573 930.354,749.361C941.809,792.71 916.526,912.472 916.526,912.472C916.526,912.472 1053.31,835.018 1104.93,787.497C1159.5,737.265 1252.1,638.106 1251.82,605.65C1251.57,576.816 1192.65,539.213 1209.64,531.459ZM816.822,959.62C816.822,959.62 712.648,1032.45 671.693,1001.45C649.973,985.004 669.318,896.55 692.207,851.356C716.462,803.462 778.023,719.042 801.861,718.881C846.821,718.578 840.724,790.077 838.38,833.421C836.174,874.225 816.822,959.62 816.822,959.62Z" style="stroke:black;stroke-width:1px;"/>
    <path d="M943.855,209.78C956.113,198.649 999.025,232.416 1025.7,245.114C1061.37,262.099 1117.83,282.039 1155.25,314.199C1192.82,346.48 1234.81,391.612 1233.33,424.285C1231.93,454.968 1191.14,486.128 1166.3,491.689C1141.63,497.209 1099.56,486.548 1092.23,504.533C1078.12,539.104 1078.69,641.44 1077.9,710.136C1075.76,897.528 1074.11,1442.27 1079.32,1628.88C1081.22,1696.84 1136.98,1774.99 1136.57,1824.61C1136.24,1864.01 1108.51,1926.59 1076.86,1926.62C1025.98,1926.67 988.949,1838.36 985.747,1795.1C982.687,1753.74 998.415,1706.46 999.155,1667.36C1002.64,1482.89 1010.01,892.012 1006.67,688.27C1000.85,333.135 971.046,365.364 951.44,297.437C942.202,265.429 931.597,220.912 943.855,209.78Z" style="stroke:black;stroke-width:1px;"/>
    <path d="M839.492,1306.21C866.229,1294.89 894.217,1384.73 926.887,1383.55C999.461,1380.91 1159.7,1324.22 1274.94,1290.4C1416.72,1248.79 1774.45,1125.83 1774.45,1125.83C1774.45,1125.83 1518.55,1243.98 1386.13,1304.35C1285.23,1350.36 1050.02,1433.77 973.157,1491.46C952.28,1507.12 948.164,1557.48 922.928,1562.66C895.722,1568.24 831.204,1513.83 814.471,1468.38C791.925,1407.13 819.206,1314.8 839.492,1306.21Z" style="stroke:black;stroke-width:1px;"/>
    <path d="M1245.36,874.725C1250.04,854.378 1318.82,930.887 1361.75,929.917C1408.57,928.858 1476.76,866.329 1526.25,868.375C1571.62,870.25 1639.48,950.245 1638.84,1008.22C1638.38,1050.15 1597.34,1097.7 1551.91,1098.93C1521.84,1099.74 1467.78,1092.63 1464,1073.17C1460.22,1053.7 1539.54,1025.45 1539.59,983.958C1539.62,964.037 1515.94,941.413 1493.74,941.533C1431.64,941.869 1380.02,1052.8 1333.62,1052C1290.76,1051.26 1240.67,895.072 1245.36,874.725Z" style="stroke:black;stroke-width:1px;"/>
    <g id="レイヤー1">
    </g>
</svg>
