<?xml version="1.0" encoding="UTF-8" standalone="no"?>
<!DOCTYPE svg PUBLIC "-//W3C//DTD SVG 1.1//EN" "http://www.w3.org/Graphics/SVG/1.1/DTD/svg11.dtd">
<svg width="100%" height="100%" viewBox="0 0 2048 2048" version="1.1" xmlns="http://www.w3.org/2000/svg" xmlns:xlink="http://www.w3.org/1999/xlink" xml:space="preserve" xmlns:serif="http://www.serif.com/" style="fill-rule:evenodd;clip-rule:evenodd;stroke-linecap:round;stroke-linejoin:round;stroke-miterlimit:1.5;">
    <path d="M1095.43,1059.98C1115.96,1026 1237.28,1063.21 1236.9,1080.45C1236.56,1096.42 1191.02,1097.63 1178.51,1113.99C1139.67,1164.78 1124.82,1249.5 1003.87,1385.18C892.211,1510.44 714.148,1556.55 714.148,1556.55C714.148,1556.55 875.807,1454.18 949.096,1369.99C1124.8,1168.15 1062.95,1113.78 1095.43,1059.98Z" style="stroke:black;stroke-width:1px;"/>
    <path d="M1144.78,898.808C1144.78,898.808 1058.2,995.295 1049.38,1032.76C1043.59,1057.31 1045.93,1102.54 1062.53,1104.22C1080.18,1106.01 1120.35,1103.36 1120.35,1103.36L1120.81,1143.86C1120.81,1143.86 1047.27,1156.29 1024.05,1151.77C1001.58,1147.39 979.56,1120.09 979.436,1097.2C978.955,1008.08 1045.32,930.325 1045.32,930.325L1144.78,898.808Z" style="stroke:black;stroke-width:1px;"/>
    <path d="M793.337,923.62C814.051,913.501 847.974,963.895 879.031,961.122C923.567,957.147 993.651,927.123 1037.23,906.352C1074.45,888.609 1106.82,837.196 1152.92,832.382C1185.04,829.027 1229.66,854.628 1229.95,877.376C1230.28,902.738 1117.95,916.651 1062.63,934.904C923.596,980.777 927.332,1047.82 891.833,1050.51C830.43,1055.16 779.814,930.226 793.337,923.62Z" style="stroke:black;stroke-width:1px;"/>
    <path d="M829.345,753.121C844.812,747.869 891.627,810.061 926.512,802.791C993.333,788.866 1207.34,713.774 1207.34,713.774C1207.34,713.774 1019.68,813.263 969.73,846.463C941.664,865.117 924.575,922.048 902.027,921.545C858.832,920.583 788.212,767.09 829.345,753.121Z" style="stroke:black;stroke-width:1px;"/>
</svg>
