<?xml version="1.0" encoding="UTF-8" standalone="no"?>
<!DOCTYPE svg PUBLIC "-//W3C//DTD SVG 1.1//EN" "http://www.w3.org/Graphics/SVG/1.1/DTD/svg11.dtd">
<svg width="100%" height="100%" viewBox="0 0 2048 2048" version="1.1" xmlns="http://www.w3.org/2000/svg" xmlns:xlink="http://www.w3.org/1999/xlink" xml:space="preserve" xmlns:serif="http://www.serif.com/" style="fill-rule:evenodd;clip-rule:evenodd;stroke-linecap:round;stroke-linejoin:round;stroke-miterlimit:1.5;">
    <path d="M1048,701.159C1048,701.159 908.711,851.705 906.527,951.158C905.252,1009.21 930.9,1066.14 984.678,1063.43C1032.87,1061.01 1155.74,992.095 1155.46,962.423C1155.26,941.142 1134.64,927.754 1135.65,911.075C1137.19,885.641 1181.84,863.857 1211.5,864.48C1256.17,865.418 1399.05,923.47 1398.9,970.121C1398.8,1001.75 1333.29,1038.73 1331.3,1085.82C1326.63,1195.72 1201.45,1466.18 1037.72,1632.68C823.067,1850.99 532.613,1825.42 532.169,1807.82C531.511,1781.78 737.461,1808.99 922.955,1640.01C1126.64,1454.45 1183.47,1060.24 1183.47,1060.24C1183.47,1060.24 1034.13,1146.25 975.165,1144.86C915.428,1143.44 839.608,1084.76 839.933,1024.48C840.551,909.947 956.882,727.918 956.882,727.918L1048,701.159Z" style="stroke:black;stroke-width:1px;"/>
    <path d="M861.8,323.346C875.115,308.291 1000.47,338.381 1052.06,366.083C1098.98,391.276 1146.46,448.313 1145.06,521.875C1144.53,550.015 1113.98,579.861 1071.22,577.984C1040.9,576.652 1003.14,519.622 969.226,505.472C939.381,493.021 880.745,497.149 877.619,485.446C874.492,473.742 956.013,455.571 955.636,425.687C955.258,395.802 848.229,338.689 861.8,323.346Z" style="stroke:black;stroke-width:1px;"/>
    <path d="M462.288,653.575C483.499,637.732 567.427,707.632 614.082,714.947C704.476,729.121 852.855,692.194 1076.66,628.332C1233.95,583.45 1575.6,494.044 1584.9,524.874C1595.51,560.047 1309.97,628.561 1191.06,665.672C1058.87,706.927 889.654,752.413 802.477,788.541C757.931,807.002 719.504,866.339 673.629,873.374C627.754,880.408 571.336,848.384 531.969,817.561C491.955,786.232 444.736,666.685 462.288,653.575Z" style="stroke:black;stroke-width:1px;"/>
    <g id="レイヤー1">
    </g>
</svg>
