<?xml version="1.0" encoding="UTF-8" standalone="no"?>
<!DOCTYPE svg PUBLIC "-//W3C//DTD SVG 1.1//EN" "http://www.w3.org/Graphics/SVG/1.1/DTD/svg11.dtd">
<svg width="100%" height="100%" viewBox="0 0 2048 2048" version="1.1" xmlns="http://www.w3.org/2000/svg" xmlns:xlink="http://www.w3.org/1999/xlink" xml:space="preserve" xmlns:serif="http://www.serif.com/" style="fill-rule:evenodd;clip-rule:evenodd;stroke-linecap:round;stroke-linejoin:round;stroke-miterlimit:1.5;">
    <g transform="matrix(1,0,0,1,58.539,-48.9089)">
        <path d="M1113.13,328.778C1138.39,332.985 1211.77,382.032 1248.39,420.845C1285.07,459.724 1337.06,533.457 1333.21,562.049C1329.36,590.641 1233.33,572.769 1202.97,594.566C1141.62,638.621 1023.96,765.082 960.727,821.135C916.851,860.032 823.208,935.942 823.208,935.942C823.208,935.942 786.353,1249.76 685.279,1419.45C431.521,1845.48 288.04,1744.33 288.04,1744.33C288.04,1744.33 395.054,1703.45 483.529,1593.79C523.099,1544.75 591.019,1428.57 631.947,1308.29C684.48,1153.9 709.053,985.524 709.053,985.524C709.053,985.524 656.63,1018.55 629.458,1014.46C604.905,1010.76 577.135,951.256 578.905,913.731C580.688,875.907 609.173,816.214 640.158,787.515C671.142,758.816 731.064,737.628 764.811,741.536C840.318,750.281 827.996,858.679 827.996,858.679C827.996,858.679 934.598,784.462 996.736,706.688C1044,647.526 1111.88,551.742 1112.26,489.531C1112.45,458.751 1095.68,423.168 1095.82,396.376C1095.96,371.296 1092.17,325.288 1113.13,328.778ZM722.403,816.9C727.119,837.276 717.886,917.879 717.886,917.879C717.886,917.879 672.586,965.816 646.299,941.578C635.675,931.782 635.908,895.964 642.436,874.562C649.081,852.778 671.913,824.423 686.175,818.402C696.3,814.128 719.709,805.26 722.403,816.9Z" style="stroke:black;stroke-width:1px;"/>
    </g>
    <g transform="matrix(1,0,0,1,58.539,-48.9089)">
        <path d="M869.759,986.674C927.702,986.114 944.194,1061.47 985.349,1060.26C1032.06,1058.89 1023.88,903.468 1137.29,902.74C1302.21,901.682 1290.81,1111.48 1293.89,1220.49C1297.23,1338.68 1369.77,1683.59 1623.51,1689.77C1671.83,1690.94 1773.95,1644.36 1773.95,1644.36C1773.95,1644.36 1705.5,1783.81 1501.89,1781.36C1296.07,1778.89 1161.06,1497.55 1158.86,1364.34C1157.37,1274.24 1164.61,1145.67 1164.59,1083.4C1164.59,1049.71 1144.37,981.616 1111.65,982.757C1075.99,984.001 1041.59,1072.48 1038.04,1124.74C1035.23,1166.08 996.185,1228.73 971.944,1230.02C946.885,1231.36 896.797,1185.13 889.946,1152.07C882.317,1115.26 885.176,1074.07 881.812,1046.5C879.293,1025.87 852.834,986.838 869.759,986.674Z" style="stroke:black;stroke-width:1px;"/>
    </g>
    <path d="M1322.43,733.029C1317.97,627.382 1437.22,568.637 1511.69,571.9C1571.68,574.528 1668.5,593.125 1672.72,716.292C1675.22,789.308 1598.82,873.707 1536.03,876.862C1513.27,878.006 1462.1,873.467 1461.15,860.961C1460.27,849.238 1492.26,816.297 1516.5,809.083C1548.1,799.676 1592.6,737.745 1592.44,710.25C1592.12,655.977 1555.36,633.308 1499.23,632.656C1466.41,632.275 1397.35,657.945 1396.38,691.542C1395.35,726.928 1440.22,738.055 1448.98,763.776C1457.74,789.497 1474.37,826.582 1448.93,845.865C1430.37,859.935 1324.2,774.988 1322.43,733.029Z" style="stroke:black;stroke-width:1px;"/>
    <g id="レイヤー1">
    </g>
</svg>
