<?xml version="1.0" encoding="UTF-8" standalone="no"?>
<!DOCTYPE svg PUBLIC "-//W3C//DTD SVG 1.1//EN" "http://www.w3.org/Graphics/SVG/1.1/DTD/svg11.dtd">
<svg width="100%" height="100%" viewBox="0 0 2048 2048" version="1.1" xmlns="http://www.w3.org/2000/svg" xmlns:xlink="http://www.w3.org/1999/xlink" xml:space="preserve" xmlns:serif="http://www.serif.com/" style="fill-rule:evenodd;clip-rule:evenodd;stroke-linecap:round;stroke-linejoin:round;stroke-miterlimit:1.5;">
    <path d="M1195.51,815.977C1210.51,792.634 1310.29,821.712 1346.19,850.318C1375.27,873.483 1390.5,924.325 1383.7,947.975C1373.64,983.011 1332.19,983.896 1310.62,1000.73C1251.08,1047.2 1158.18,1101.45 1081.9,1144.45C1009.31,1185.37 852.965,1255.52 852.965,1255.52C852.965,1255.52 726.686,1476.93 644.955,1559.73C481.247,1725.59 336.006,1719.55 336.006,1719.55C336.006,1719.55 487.774,1612.61 550.648,1545.21C625.319,1465.16 717.049,1300.09 717.049,1300.09C717.049,1300.09 606.156,1328.23 579.565,1296.39C549.496,1260.4 557.761,1182.54 578.28,1131.57C607.198,1059.74 737.374,921.404 800.256,918.112C841.352,915.961 876.954,967.985 884.389,1008.46C892.13,1050.6 865.833,1179.12 865.833,1179.12C865.833,1179.12 1022.79,1094.63 1083.1,1048.73C1139.82,1005.56 1211.04,938.74 1229.77,899.948C1242.64,873.301 1184.51,833.093 1195.51,815.977ZM752.31,1001.03C830.313,990.512 749.727,1224.36 749.727,1224.36C749.727,1224.36 683.128,1261.49 647.332,1260.84C625.916,1260.45 601.277,1236.24 602.45,1214.85C608.566,1103.27 719.301,1005.49 752.31,1001.03Z" style="stroke:black;stroke-width:1px;"/>
    <path d="M982.344,222.792C1027.04,212.008 1091.47,230.75 1129.84,247.66C1161.07,261.424 1201.47,294.937 1201.78,329.57C1202.15,372.391 1064.96,455.419 1013.24,507.884C957.784,564.143 867.503,673.393 867.503,673.393C867.503,673.393 1050.97,660.784 1118.25,814.958C1169.55,932.494 1143.72,1154.55 1138.59,1266.58C1123.75,1590.09 1304.4,1806.1 1461.71,1801.76C1706.1,1795.01 1807.5,1684.54 1807.5,1684.54C1807.5,1684.54 1630.72,1940.08 1435.88,1946.83C1238.4,1953.68 984.3,1768.09 995,1453.83C1000.02,1306.31 1052.33,1125.73 1054.69,1015.04C1059.27,799.48 946.944,760.063 890.795,756.894C824.258,753.138 773.224,808.736 762.829,837.953C753.771,863.414 711.444,913.91 689.875,914.75C667.377,915.626 650.279,884.218 647.811,860.094C645.295,835.511 665.234,788.885 683.682,765.272C702.13,741.659 743.215,726.419 764.041,705.629C800.349,669.382 859.648,603.598 901.531,547.792C944.821,490.11 1019.73,401.388 1023.78,359.542C1026.68,329.569 987.938,302.75 981.031,279.958C975.504,261.717 963.815,227.263 982.344,222.792Z" style="stroke:black;stroke-width:1px;"/>
    <path d="M1117.49,545.954C1119.61,526.418 1187.27,602.694 1216.91,602.406C1260.25,601.984 1326.92,533.621 1377.39,536.811C1425.72,539.865 1500.45,581.06 1496.79,670.596C1494.7,721.431 1451.14,767.16 1412.46,769.27C1380.35,771.021 1314.71,752.852 1314.11,732.748C1313.51,712.644 1409.21,670.234 1408.88,648.643C1408.53,626.425 1378.95,602.674 1355.65,603.458C1287.8,605.743 1243.24,721.09 1204.19,719.619C1138.18,717.133 1115.37,565.489 1117.49,545.954Z" style="stroke:black;stroke-width:1px;"/>
    <g id="レイヤー1">
    </g>
</svg>
