<?xml version="1.0" encoding="UTF-8" standalone="no"?>
<!DOCTYPE svg PUBLIC "-//W3C//DTD SVG 1.1//EN" "http://www.w3.org/Graphics/SVG/1.1/DTD/svg11.dtd">
<svg width="100%" height="100%" viewBox="0 0 2048 2048" version="1.1" xmlns="http://www.w3.org/2000/svg" xmlns:xlink="http://www.w3.org/1999/xlink" xml:space="preserve" xmlns:serif="http://www.serif.com/" style="fill-rule:evenodd;clip-rule:evenodd;stroke-linecap:round;stroke-linejoin:round;stroke-miterlimit:1.5;">
    <path d="M1060.87,460.454C1065.92,452.116 1093.37,467.843 1109.49,472.063C1130.63,477.597 1171.64,478.998 1193.69,494.671C1220.43,513.682 1264.05,560.827 1263.57,585.239C1263.13,608.044 1232.03,638.001 1212.53,639.953C1191.49,642.058 1173.88,627.477 1153.92,627.674C1047.75,628.726 1019.24,739.612 1019.67,772.809C1020.84,863.114 1017.43,1039.82 1020.57,1182.39C1028.96,1562.69 784.377,1697.72 784.377,1697.72C784.377,1697.72 892.251,1565.23 919.585,1494.32C951.878,1410.56 976.98,1295.25 978.133,1195.12C979.293,1094.27 983.234,966.657 980.901,897.639C979.574,858.385 971.295,817.817 971.41,778.54C971.988,581.453 1071.51,535.212 1080.42,515.284C1089.16,495.718 1055.81,468.793 1060.87,460.454Z" style="stroke:black;stroke-width:1px;"/>
</svg>
