<?xml version="1.0" encoding="UTF-8" standalone="no"?>
<!DOCTYPE svg PUBLIC "-//W3C//DTD SVG 1.1//EN" "http://www.w3.org/Graphics/SVG/1.1/DTD/svg11.dtd">
<svg width="100%" height="100%" viewBox="0 0 2048 2048" version="1.1" xmlns="http://www.w3.org/2000/svg" xmlns:xlink="http://www.w3.org/1999/xlink" xml:space="preserve" xmlns:serif="http://www.serif.com/" style="fill-rule:evenodd;clip-rule:evenodd;stroke-linecap:round;stroke-linejoin:round;stroke-miterlimit:1.5;">
    <path d="M409.229,1071.19C426.016,1062.12 457.445,1130.05 483.285,1130.68C509.121,1131.32 563.634,1087.96 563.634,1087.96C563.634,1087.96 543.558,1129.73 542.215,1150.78C540.352,1179.98 545.192,1227.28 526.342,1240.44C507.492,1253.6 454.304,1236.01 434.808,1208.07C414.639,1179.16 393.234,1079.84 409.229,1071.19Z" style="stroke:black;stroke-width:1px;"/>
    <path d="M665.996,645.276C665.996,645.276 786.021,663.395 843.8,712.217C887.616,749.241 909.063,840.798 881.952,862.084C844.62,891.394 744.031,824.53 692.202,826.329C638.605,828.189 576.935,881.443 577.955,935.859C580.588,1076.23 827.557,992.118 822.586,1166.94C815.424,1418.76 503.176,1549.35 503.176,1549.35C503.176,1549.35 681.485,1349.89 680.877,1246.31C679.888,1077.93 507.749,1028.61 505.394,928.897C500.607,726.187 717.191,710.781 717.191,710.781L665.996,645.276Z" style="stroke:black;stroke-width:1px;"/>
    <path d="M670.471,398.426C687.253,387.537 709.097,442.447 727.78,430.91C751.752,416.107 777.346,342.513 808.785,304.41C861.961,239.964 930.224,193.868 987.462,196.653C1046.49,199.524 1121.14,269.679 1116.34,427.68C1105.26,791.71 1173.35,766.782 1373.93,838.439C1517.96,889.893 1651.73,938.237 1651.77,1059.78C1651.8,1202.46 1474.58,1246.17 1291.52,1295.3C1203.76,1318.84 993.479,1470.66 981.928,1644.46C975.252,1744.92 1000.42,1952.91 1000.42,1952.91C1000.42,1952.91 921.431,1736.84 925.178,1627.25C938.122,1248.73 1442.18,1126.35 1442.13,1040.09C1442.05,878.958 1024.29,1003.19 1056.86,459.402C1061.1,388.726 1081.93,258.664 989.709,257.888C903.738,257.165 832.752,375.728 834.878,438.63C836.756,494.195 862.899,594.818 825.03,606.447C713.899,640.572 636.918,420.198 670.471,398.426Z" style="stroke:black;stroke-width:1px;"/>
    <path d="M1217.14,511.813C1233.92,498.832 1285.14,582.634 1330.78,581.412C1381.31,580.059 1433.1,515.594 1490.3,515.6C1543.85,515.605 1609.35,592.317 1613.88,642.875C1617.64,684.939 1569.5,744.3 1529.79,744.459C1493.16,744.606 1437.14,727.483 1435.6,709.302C1434.06,691.121 1519.98,658.64 1520.69,630.57C1521.22,609.658 1499.45,576.878 1467.58,578.212C1430.34,579.772 1353.52,686.554 1308.44,686.628C1265.26,686.698 1199.65,525.352 1217.14,511.813Z" style="stroke:black;stroke-width:1px;"/>
    <g id="レイヤー1">
    </g>
</svg>
