<?xml version="1.0" encoding="UTF-8" standalone="no"?>
<!DOCTYPE svg PUBLIC "-//W3C//DTD SVG 1.1//EN" "http://www.w3.org/Graphics/SVG/1.1/DTD/svg11.dtd">
<svg width="100%" height="100%" viewBox="0 0 2048 2048" version="1.1" xmlns="http://www.w3.org/2000/svg" xmlns:xlink="http://www.w3.org/1999/xlink" xml:space="preserve" xmlns:serif="http://www.serif.com/" style="fill-rule:evenodd;clip-rule:evenodd;stroke-linecap:round;stroke-linejoin:round;stroke-miterlimit:1.5;">
    <g id="レイヤー1">
        <path d="M1080.36,178.025C1115.92,147.404 1301.55,232.915 1298.82,287.324C1296.99,323.861 1182.5,410.522 1084.14,502.739C1016.99,565.706 965.264,598.359 966.406,625.75C967.447,650.717 1075.87,603.924 1146.19,692.833C1223.85,791.04 1262.47,858.931 1258.53,1031C1256.57,1116.79 1232.93,1253.49 1238.01,1345.54C1244.8,1468.76 1331.13,1635.6 1414.09,1707.67C1592.84,1862.94 1881.83,1630.27 1895.59,1641.25C1931.64,1669.99 1678.89,1878.19 1605.64,1890.05C1309.8,1937.96 1122.15,1724.8 1088,1507.08C1061.32,1337.02 1149.99,1038.68 1149.12,952.542C1148.15,855.68 1096.9,713.343 974.707,717.866C844.062,722.702 909.162,862.755 778.656,866.083C728.033,867.374 732.507,803.342 762.719,745.917C784.645,704.24 859.659,661.399 900.369,611.823C958.484,541.052 1113.94,367.712 1111.41,321.292C1110.09,297.237 1080.34,288.464 1074.1,265.196C1067.6,240.967 1057.72,197.52 1080.36,178.025Z" style="stroke:black;stroke-width:1px;"/>
        <path d="M595.849,905.501C637.639,862.703 840.529,983.02 842.798,1012.32C849.148,1094.32 799.84,1091.98 799.884,1142.28C799.916,1178.87 798.191,1263.72 798.191,1263.72C798.191,1263.72 888.322,1219.47 958.419,1272.3C990.122,1296.19 994.612,1355.1 980.618,1376.8C942.6,1435.77 826.621,1387.36 783.959,1411.42C727.144,1443.46 715.938,1536.79 639.135,1644.57C560.664,1754.69 480.092,1854.34 467.078,1848.5C455.289,1843.21 545.486,1712.9 582.691,1645.06C617.596,1581.42 687.642,1456.22 671.987,1446.45C661.559,1439.93 604.066,1457.17 558.461,1487.25C512.857,1517.33 478.593,1563.19 457.402,1563.78C431.298,1564.52 409.57,1530.54 412.357,1506.37C419.733,1442.43 460.131,1426.5 477.17,1393.12C506.071,1336.51 571.464,1166.66 585.76,1166.71C605.315,1166.77 595.936,1256.88 582.948,1294.62C571.277,1328.54 534.183,1393.29 549.721,1401.18C574.329,1413.67 693.046,1301.93 693.046,1301.93C693.046,1301.93 687.222,1195.51 684.663,1140.77C682.404,1092.46 626.235,1053.33 601.544,1017.63C581.562,988.741 572.686,929.222 595.849,905.501Z" style="stroke:black;stroke-width:1px;"/>
    </g>
</svg>
