<?xml version="1.0" encoding="UTF-8" standalone="no"?>
<!DOCTYPE svg PUBLIC "-//W3C//DTD SVG 1.1//EN" "http://www.w3.org/Graphics/SVG/1.1/DTD/svg11.dtd">
<svg width="100%" height="100%" viewBox="0 0 2048 2048" version="1.1" xmlns="http://www.w3.org/2000/svg" xmlns:xlink="http://www.w3.org/1999/xlink" xml:space="preserve" xmlns:serif="http://www.serif.com/" style="fill-rule:evenodd;clip-rule:evenodd;stroke-linecap:round;stroke-linejoin:round;stroke-miterlimit:1.5;">
    <g transform="matrix(1,0,0,1,-0.522182,-80.592)">
        <path d="M927.313,1013.41C932.148,1003.36 989.402,1038.57 1014.3,1027.26C1054.57,1008.97 1166.37,952.843 1166.37,952.843C1166.37,952.843 1085.8,1033.81 1066.17,1063.37C1053.42,1082.55 1061.09,1129.32 1043.3,1130.49C1005.47,1132.97 913.014,1043.12 927.313,1013.41Z" style="stroke:black;stroke-width:1px;"/>
    </g>
    <g transform="matrix(1,0,0,1,0.787095,91.1622)">
        <path d="M927.313,1013.41C932.148,1003.36 989.402,1038.57 1014.3,1027.26C1054.57,1008.97 1166.37,952.843 1166.37,952.843C1166.37,952.843 1085.8,1033.81 1066.17,1063.37C1053.42,1082.55 1061.09,1129.32 1043.3,1130.49C1005.47,1132.97 913.014,1043.12 927.313,1013.41Z" style="stroke:black;stroke-width:1px;"/>
    </g>
    <path d="M1365.25,1173.51C1486.76,1174.88 1501.25,1249.94 1500.04,1290.25C1497.53,1373.86 1365.87,1455.66 1367.64,1496.2C1369.21,1532.09 1425.62,1518.98 1453.08,1525.34C1482.81,1532.23 1522.35,1560.31 1521,1588.22C1519.67,1615.53 1493.82,1628.55 1467.57,1629.89C1428.75,1631.88 1264.28,1548.49 1264.27,1493.69C1264.26,1449.8 1304.68,1447.13 1323.58,1432.89C1362.54,1403.54 1444.19,1298.88 1443.23,1266.61C1442.29,1235 1399.89,1208.19 1369.2,1208.09C1300.8,1207.87 1129.47,1358.82 1137.23,1406.83C1140.59,1427.58 1181.74,1456.94 1181.74,1456.94L1162.71,1527.73C1162.71,1527.73 1077.1,1525.25 1074.74,1433.07C1072.24,1335.32 1304.97,1172.84 1365.25,1173.51Z" style="stroke:black;stroke-width:1px;"/>
    <path d="M901.263,756.279C901.621,739.011 956.308,777.201 980.573,770.216C1057.83,747.98 1116.26,687.16 1147.83,663.99C1157.05,657.224 1162.57,634.12 1175.24,630.124C1248.34,607.073 1294.48,682.786 1295.39,707.676C1296.46,736.941 1236.08,752.673 1235.53,776.824C1232.51,908.693 1232.17,1376.53 1230.62,1507.99C1230.43,1523.37 1252.29,1540.76 1252.12,1557.47C1251.88,1582.33 1222.5,1611.33 1195.93,1611.64C1158.76,1612.08 1126.8,1567.55 1125.24,1539.11C1124.75,1530.18 1122.79,1505.87 1128.68,1492.85C1142.1,1463.21 1171,1442.59 1171,1442.59C1171,1442.59 1187.7,892.836 1189.15,770.216C1189.45,745.377 1182.72,700.039 1159.82,709.657C1064.93,749.505 1011.39,869.945 978.116,872.077C934.506,874.873 900.906,773.547 901.263,756.279Z" style="stroke:black;stroke-width:1px;"/>
</svg>
