<?xml version="1.0" encoding="UTF-8" standalone="no"?>
<!DOCTYPE svg PUBLIC "-//W3C//DTD SVG 1.1//EN" "http://www.w3.org/Graphics/SVG/1.1/DTD/svg11.dtd">
<svg width="100%" height="100%" viewBox="0 0 2048 2048" version="1.1" xmlns="http://www.w3.org/2000/svg" xmlns:xlink="http://www.w3.org/1999/xlink" xml:space="preserve" xmlns:serif="http://www.serif.com/" style="fill-rule:evenodd;clip-rule:evenodd;stroke-linecap:round;stroke-linejoin:round;stroke-miterlimit:1.5;">
    <path d="M857.634,726.012C858.606,711.501 888.729,732.303 903.276,727.807C927.449,720.337 966.079,681.489 1002.67,681.187C1131.09,680.126 1156.89,761.175 1154.27,812.138C1146.13,970.178 930.646,1080.64 930.271,1154.78C930.119,1184.93 965.91,1218.47 995.993,1216.42C1029.88,1214.11 1096.21,1165.15 1139.71,1136.07C1186.05,1105.09 1274.06,1030.53 1274.06,1030.53C1274.06,1030.53 1188.35,1140.59 1156.83,1183.29C1133.89,1214.36 1097.68,1247.09 1097.92,1283.27C1098.29,1337.41 1078.32,1368.48 1043.81,1368.67C993.952,1368.94 832.553,1293.24 835.552,1139.54C837.41,1044.35 1094.18,912.774 1093.98,799.577C1093.93,773.23 1085.07,733.491 1048.65,732.553C935.039,729.627 1011.87,840.688 986.714,856.96C961.557,873.233 919.216,852.014 897.703,830.189C876.19,808.364 856.446,743.759 857.634,726.012Z" style="stroke:black;stroke-width:1px;"/>
    <path d="M907.769,1422.26C914.642,1414.23 959.384,1435.16 985.726,1440.43C1010.27,1445.34 1048.73,1440.3 1068.35,1451.86C1087.71,1463.27 1098.68,1487.88 1095.74,1511.37C1093.5,1529.25 1064.34,1542.15 1047.54,1550.19C1032.84,1557.23 1010.12,1555.44 994.693,1564C977.903,1573.32 946.964,1610.69 946.964,1610.69C946.964,1610.69 971.443,1559.33 969.649,1537.88C965.881,1492.85 892.58,1440.01 907.769,1422.26Z" style="stroke:black;stroke-width:1px;"/>
</svg>
