<?xml version="1.0" encoding="UTF-8" standalone="no"?>
<!DOCTYPE svg PUBLIC "-//W3C//DTD SVG 1.1//EN" "http://www.w3.org/Graphics/SVG/1.1/DTD/svg11.dtd">
<svg width="100%" height="100%" viewBox="0 0 2048 2048" version="1.1" xmlns="http://www.w3.org/2000/svg" xmlns:xlink="http://www.w3.org/1999/xlink" xml:space="preserve" xmlns:serif="http://www.serif.com/" style="fill-rule:evenodd;clip-rule:evenodd;stroke-linecap:round;stroke-linejoin:round;stroke-miterlimit:1.5;">
    <path d="M536.695,971.787C569.113,954.964 604.685,1023.47 644.219,1022.02C694.154,1020.2 842.856,909.793 860.795,925.7C880.397,943.083 810.175,995.575 799.58,1035.3C788.986,1075.03 806.586,1143.4 787.872,1172.42C769.158,1201.44 707.442,1212.14 674.742,1198.35C478.939,1115.78 516.308,982.366 536.695,971.787Z" style="stroke:black;stroke-width:1px;"/>
    <g id="レイヤー1">
        <path d="M548.916,720.703C549.072,624.179 805.68,447.758 941.782,450.67C1119.2,454.465 1229.24,571.612 1230.41,746.417C1232.38,1041.77 842.574,1277.17 842.688,1291.5C842.826,1309.06 1021.18,1386.76 1103.92,1439.83C1208.29,1506.76 1301.98,1610.01 1505.62,1629.04C1749.74,1651.86 1953.87,1548.47 1963.65,1573.55C1973.07,1597.71 1645.56,1779.66 1458.43,1775.71C1263.74,1771.6 1163.67,1670.38 1059.67,1575.41C960.024,1484.42 833.536,1362.99 722.125,1361.12C591.236,1358.92 511.088,1534.81 462.203,1538.13C382.153,1543.58 361.102,1402.01 363.188,1374.45C365.274,1346.9 438.119,1365.45 474.179,1364.34C521.828,1362.88 579.252,1308.87 638.75,1297.79C687.467,1288.71 795.004,1278.99 795.004,1278.99C795.004,1278.99 1098.19,1084.03 1105.87,823.735C1109.3,707.777 1040.49,545.022 928.652,544.078C819.984,543.162 749.847,598.296 750.406,670.788C750.681,706.394 782.961,741.019 782.938,772.538C782.912,807.328 738.247,836.876 708.97,840.227C669.281,844.77 548.806,788.394 548.916,720.703Z" style="stroke:black;stroke-width:1px;"/>
    </g>
</svg>
