<?xml version="1.0" encoding="UTF-8" standalone="no"?>
<!DOCTYPE svg PUBLIC "-//W3C//DTD SVG 1.1//EN" "http://www.w3.org/Graphics/SVG/1.1/DTD/svg11.dtd">
<svg width="100%" height="100%" viewBox="0 0 2048 2048" version="1.1" xmlns="http://www.w3.org/2000/svg" xmlns:xlink="http://www.w3.org/1999/xlink" xml:space="preserve" xmlns:serif="http://www.serif.com/" style="fill-rule:evenodd;clip-rule:evenodd;stroke-linecap:round;stroke-linejoin:round;stroke-miterlimit:1.5;">
    <g id="レイヤー1">
        <path d="M1303.36,251.655C1327.29,236.046 1408.24,275.831 1447.75,300.792C1486.3,325.145 1536.86,366.19 1536.03,399.477C1534.7,452.834 1432.05,444.443 1398.26,476.571C1348.92,523.485 1256.01,652.299 1166.83,748.081C1062.17,860.483 970.242,981.828 970.242,981.828C970.242,981.828 1233.96,985.187 1336.07,1030.89C1402.33,1060.54 1498.82,1158.05 1499.44,1224.12C1500.14,1299.65 1418.06,1386.8 1342.72,1427.29C1242.68,1481.06 1027.75,1575.12 1027.03,1656.21C1025.69,1807.93 1242.51,1913.99 1235.28,1924.71C1222.58,1943.56 948.464,1814.76 956.166,1653.09C967.362,1418.1 1328.99,1352.97 1330.22,1227.71C1331.21,1126.36 1187.36,1051.31 1082.76,1048.69C919.429,1044.6 703.146,1251.83 698.5,1294.46C696.525,1312.58 706.328,1335.01 703.547,1353.02C698.726,1384.26 647.028,1440.93 617.002,1440.15C577.852,1439.15 505.284,1319.25 505.466,1279.36C505.868,1191.08 574.983,1201.81 615.013,1175.27C665.335,1141.9 722.25,1109.88 767.909,1068.38C839.695,1003.12 924.828,902.575 924.828,902.575C924.828,902.575 755.808,895.944 756.875,785.667C758.322,636.059 953.703,553.215 1027.19,558.375C1144.8,566.634 1133.02,695.75 1133.02,695.75C1133.02,695.75 1192.16,641.125 1241.62,563.083C1269.97,518.364 1305.48,460.966 1316.56,423.042C1334.95,360.124 1306.85,355.292 1300.76,326.253C1295.19,299.687 1288.12,261.597 1303.36,251.655ZM978.214,632.265C1011.46,632.68 1012.7,659.329 1012.61,696.582C1012.57,716.328 1005.41,817.097 919.035,820.334C897.097,821.156 828.254,832.828 838.007,754.05C847.443,677.832 929.19,631.653 978.214,632.265Z" style="stroke:black;stroke-width:1px;"/>
    </g>
</svg>
