<?xml version="1.0" encoding="UTF-8" standalone="no"?>
<!DOCTYPE svg PUBLIC "-//W3C//DTD SVG 1.1//EN" "http://www.w3.org/Graphics/SVG/1.1/DTD/svg11.dtd">
<svg width="100%" height="100%" viewBox="0 0 2048 2048" version="1.1" xmlns="http://www.w3.org/2000/svg" xmlns:xlink="http://www.w3.org/1999/xlink" xml:space="preserve" xmlns:serif="http://www.serif.com/" style="fill-rule:evenodd;clip-rule:evenodd;stroke-linecap:round;stroke-linejoin:round;stroke-miterlimit:1.5;">
    <path d="M514.621,1143.4C523.961,1124.03 576.85,1135.91 594.675,1139.26C606.53,1141.48 611.107,1158.7 619.646,1159.2C638.695,1160.33 698.956,1081.97 712.438,1094.23C723.81,1104.57 663.229,1258.11 607.172,1259.51C593.891,1259.84 498.812,1176.19 514.621,1143.4Z" style="stroke:black;stroke-width:1px;"/>
    <g id="レイヤー1">
        <path d="M834.094,232.583C839.62,210.632 930.934,221.627 970.409,234.746C1027.22,253.628 1145.81,318.402 1165.15,362.543C1178.45,392.905 1170.83,426.865 1158.21,444.004C1145.6,461.142 1105.99,453.341 1089.47,465.375C1073.51,476.998 1055.42,502.129 1055.37,521.874C1054.79,728.306 1052.64,1674.9 1054.38,1714.21C1057.37,1781.71 1110.73,1841.69 1108.16,1880.88C1105.78,1917.16 1087.3,1941.83 1063.82,1943.17C1030.59,1945.07 943.813,1875.52 943.366,1823.5C942.87,1765.86 973.949,1734.87 974.013,1697.96C974.379,1486.59 984.462,751.847 981.997,521.99C981.383,464.79 957.021,402.536 925.594,358.417C897.191,318.543 828.568,254.535 834.094,232.583Z" style="stroke:black;stroke-width:1px;"/>
        <path d="M1380.66,686.067C1444.11,659.538 1545.73,808.483 1549.21,895.156C1550.26,921.229 1541.68,962.226 1515.61,963.35C1484.66,964.685 1437.74,913.998 1396.93,916.848C1344.54,920.507 1243.09,1026.29 1249.09,1131.48C1261.05,1340.92 1458.04,1452.45 1563.11,1486.64C1681.72,1525.25 1781.07,1504.31 1782.1,1528.14C1783.73,1565.67 1518.35,1565.25 1323.29,1436.95C1222.47,1370.64 1157.33,1233.57 1162.9,1112.42C1170.53,946.679 1271.81,786.883 1354.44,733.693C1376.09,719.751 1365.71,692.316 1380.66,686.067Z" style="stroke:black;stroke-width:1px;"/>
        <path d="M434.203,959.492C443.977,947.215 459.834,952.238 482.623,942.915C538.86,919.911 586.999,766.089 727.974,767.508C818.941,768.423 916.107,849.835 916.817,942.56C917.562,1039.94 847.38,1221.12 764.306,1315.98C615.163,1486.28 408.468,1514.74 405.224,1499.93C402.333,1486.72 591.628,1395 692.567,1278.14C822.114,1128.15 832.709,1026.95 834.752,955.218C836.055,909.506 810.518,842.652 745.666,843.954C687.823,845.115 654.843,908.039 651.335,947.367C647.628,988.926 646.471,1037.77 630.569,1061.57C614.667,1085.37 584.533,1087.9 556.265,1085.36C520.324,1082.14 459.142,1048.86 445.406,1022.02C437.232,1006.06 427.029,968.505 434.203,959.492Z" style="stroke:black;stroke-width:1px;"/>
    </g>
</svg>
