<?xml version="1.0" encoding="UTF-8" standalone="no"?>
<!DOCTYPE svg PUBLIC "-//W3C//DTD SVG 1.1//EN" "http://www.w3.org/Graphics/SVG/1.1/DTD/svg11.dtd">
<svg width="100%" height="100%" viewBox="0 0 2048 2048" version="1.1" xmlns="http://www.w3.org/2000/svg" xmlns:xlink="http://www.w3.org/1999/xlink" xml:space="preserve" xmlns:serif="http://www.serif.com/" style="fill-rule:evenodd;clip-rule:evenodd;stroke-linecap:round;stroke-linejoin:round;stroke-miterlimit:1.5;">
    <path d="M960.802,445.492C973.977,445.178 1021.01,483.375 1035.69,501.96C1047.38,516.764 1051.2,538.219 1041.8,554.574C1018.38,595.303 909.6,581.527 895.194,746.339C887.342,836.166 940.302,853.767 981.164,852.839C1038.96,851.525 1053.05,862.725 1061.26,887.586C1071.7,919.193 1042.45,992.636 1041.09,1044.58C1037.97,1163.92 1041.03,1482.81 1041.2,1597.8C1041.27,1637.69 1071.77,1689.1 1070.64,1720.02C1069.75,1744.32 1055.32,1783.61 1034.42,1783.34C1013.55,1783.08 951.257,1724.9 949.431,1696.36C947.181,1661.22 989.322,1628.42 990.073,1599.65C993.342,1474.48 995.878,1107.45 996.146,956.133C996.247,899.508 865.677,912.043 862.376,728.307C859.605,574.098 925.764,550.44 950.023,505.855C959.343,488.727 947.627,445.806 960.802,445.492Z" style="stroke:black;stroke-width:1px;"/>
</svg>
