<?xml version="1.0" encoding="UTF-8" standalone="no"?>
<!DOCTYPE svg PUBLIC "-//W3C//DTD SVG 1.1//EN" "http://www.w3.org/Graphics/SVG/1.1/DTD/svg11.dtd">
<svg width="100%" height="100%" viewBox="0 0 2048 2048" version="1.1" xmlns="http://www.w3.org/2000/svg" xmlns:xlink="http://www.w3.org/1999/xlink" xml:space="preserve" xmlns:serif="http://www.serif.com/" style="fill-rule:evenodd;clip-rule:evenodd;stroke-linecap:round;stroke-linejoin:round;stroke-miterlimit:1.5;">
    <path d="M1143.09,195.125C1173.3,170.896 1283.72,223.191 1329.05,256.434C1372.42,288.243 1414.09,329.495 1415.06,394.583C1416.07,462.181 1277.9,448.277 1224.59,482.864C1139.08,538.329 967.011,663.469 860.017,742.835C602.109,934.143 355.053,972.225 355.053,972.225C355.053,972.225 685.005,800.269 820.906,688.458C1062.67,489.551 1160.54,326.154 1158.88,289.708C1157.41,257.778 1120.31,213.404 1143.09,195.125Z" style="stroke:black;stroke-width:1px;"/>
    <path d="M1228.16,590.348C1254.31,573.344 1292.54,657.811 1333.94,655.708C1374.78,653.634 1440.66,583.799 1489.79,584.44C1540.27,585.098 1615.2,647.053 1616.35,709.859C1617.07,749.5 1612.39,812.538 1518.2,818.092C1490.36,819.734 1438.08,810.104 1438.11,787.173C1438.13,764.243 1512,743.4 1513.25,689.417C1513.63,673.051 1493.87,650.813 1476.57,651.628C1386.56,655.864 1368.19,766.929 1322.56,767.75C1271.02,768.678 1212.42,600.579 1228.16,590.348Z" style="stroke:black;stroke-width:1px;"/>
    <path d="M913.229,658.945C939.784,630.376 1052.14,684.125 1176.96,788.518C1233.8,836.065 1327.09,899.873 1320.74,965.857C1317.63,998.11 1265.74,1012.79 1235.37,1012.32C1204.99,1011.85 1169.41,970.105 1134.27,963.72C1091.29,955.908 1016.07,946.716 969.162,964.146C922.258,981.576 853.438,1029.61 852.845,1068.3C850.367,1229.91 1318,1248.47 1308.36,1451.12C1297.28,1684.11 1057.96,1809.96 929.913,1842.7C783.124,1880.24 683.102,1796.41 683.102,1796.41C683.102,1796.41 817.08,1816.64 878.652,1793.68C1004.9,1746.6 1146.41,1631.42 1150.39,1518.59C1157.04,1330.45 782.041,1272.55 784.523,1074.52C786.563,911.745 1085.79,837.323 1085.79,837.323C1085.79,837.323 1092.19,818.355 1025.19,765.881C972.161,724.341 905.518,667.241 913.229,658.945Z" style="stroke:black;stroke-width:1px;"/>
    <path d="M729.137,1363.02C747.794,1348.01 806.035,1407.22 841.962,1405.14C878.084,1403.05 931.443,1340.32 944.609,1349.75C957.951,1359.3 914.032,1413.52 908.723,1447.53C903.375,1481.79 921.967,1542.89 897.959,1554.51C873.952,1566.13 796.325,1543.43 768.187,1511.51C740.05,1479.6 711.952,1376.85 729.137,1363.02Z" style="stroke:black;stroke-width:1px;"/>
    <g id="レイヤー1">
    </g>
</svg>
