<?xml version="1.0" encoding="UTF-8" standalone="no"?>
<!DOCTYPE svg PUBLIC "-//W3C//DTD SVG 1.1//EN" "http://www.w3.org/Graphics/SVG/1.1/DTD/svg11.dtd">
<svg width="100%" height="100%" viewBox="0 0 2048 2048" version="1.1" xmlns="http://www.w3.org/2000/svg" xmlns:xlink="http://www.w3.org/1999/xlink" xml:space="preserve" xmlns:serif="http://www.serif.com/" style="fill-rule:evenodd;clip-rule:evenodd;stroke-linecap:round;stroke-linejoin:round;stroke-miterlimit:1.5;">
    <path d="M927.605,689.192C940.123,668.558 1006.65,717.417 1031.78,737.333C1054.05,754.979 1075.44,780.644 1076.82,801.05C1078.2,821.457 1033.23,851.362 1032.68,872.646C1028.5,1032.75 1038.83,1590.57 1048.98,1755.53C1051.05,1789.27 1089.67,1816.63 1089.25,1867.79C1089,1898.88 1056.35,1942.47 1030.32,1941.11C1003.74,1939.73 938.035,1894.38 937.564,1828.24C937.257,1785.03 953.249,1810.88 955.021,1717.28C960.661,1419.2 961.245,1032.49 956.676,861.142C955.147,803.783 915.088,709.827 927.605,689.192Z" style="stroke:black;stroke-width:1px;"/>
    <path d="M1271.23,731.614C1280.13,722.583 1342.32,795.685 1386.25,797.887C1430.74,800.117 1487.61,733.458 1552.8,735.442C1617.36,737.407 1655.7,811.405 1656.45,871.373C1657.04,918.404 1601.83,965.113 1564.61,966.606C1534.4,967.817 1480.53,955.373 1480.25,936.815C1479.97,918.256 1564.34,866.709 1564.81,846.702C1565.48,818.756 1534.2,803.506 1513.45,803.55C1460.97,803.661 1403,916.03 1360.6,915.836C1311.78,915.612 1257.87,745.158 1271.23,731.614Z" style="stroke:black;stroke-width:1px;"/>
    <path d="M1074.44,148.73C1074.44,148.73 1203.1,179.243 1242.94,214.582C1281.78,249.031 1320.49,307.108 1313.51,360.764C1295.31,500.61 1070.42,628.862 940.518,722.177C790.934,829.632 567.773,1044.19 577.041,1184.66C579.325,1219.28 599.775,1262.8 634.445,1261.54C697.643,1259.23 826.597,1100.72 938.191,1049C1286.38,887.62 1526.86,1065.94 1528.56,1172.42C1529.92,1257.67 1418.77,1357.04 1340.6,1364.81C1276.45,1371.18 1151.67,1323.54 1151.67,1323.54C1151.67,1323.54 1334.94,1276.52 1338.93,1215.59C1342.32,1163.88 1319.1,1069.45 1152.86,1063.82C1020.07,1059.32 843.737,1164.18 796.975,1273.89C770.305,1336.47 683.812,1401.65 614.221,1395.98C550.088,1390.75 470.898,1303.35 475.364,1232.79C490.058,1000.64 665.68,879.045 815.399,734.518C940.7,613.562 1103.27,409.889 1113.95,301.169C1119.09,248.929 1074.44,148.73 1074.44,148.73Z" style="stroke:black;stroke-width:1px;"/>
    <g id="レイヤー1">
    </g>
</svg>
