<?xml version="1.0" encoding="UTF-8" standalone="no"?>
<!DOCTYPE svg PUBLIC "-//W3C//DTD SVG 1.1//EN" "http://www.w3.org/Graphics/SVG/1.1/DTD/svg11.dtd">
<svg width="100%" height="100%" viewBox="0 0 2048 2048" version="1.1" xmlns="http://www.w3.org/2000/svg" xmlns:xlink="http://www.w3.org/1999/xlink" xml:space="preserve" xmlns:serif="http://www.serif.com/" style="fill-rule:evenodd;clip-rule:evenodd;stroke-linecap:round;stroke-linejoin:round;stroke-miterlimit:1.5;">
    <g id="レイヤー1">
        <path d="M591.936,703.981C618.556,694.378 595.931,801.25 650.4,800.037C696.647,799.007 820.102,723.675 867.896,712.234C902.672,703.909 938.033,720.603 940.523,747.383C944.618,791.426 789.345,890.062 796.154,992.146C803.083,1096.05 955.213,1090.15 957.39,1231.76C958.069,1275.93 900.717,1321.66 870.559,1325.84C833.223,1331.01 799.688,1316.58 766.05,1316.52C541.392,1316.13 514.635,1579.81 486.194,1583.27C457.192,1586.79 455.035,1418.57 597.886,1288.79C689.489,1205.57 779.822,1252.09 809.368,1177.66C822.671,1144.14 730.677,1069.13 726.292,1014.37C721.908,959.607 783.059,849.096 783.059,849.096C783.059,849.096 740.969,867.448 723.533,881.918C700.175,901.302 669.19,969.76 643.205,970.232C591.407,971.171 519.174,914.458 520.941,861.412C522.446,816.247 561.248,715.051 591.936,703.981Z" style="stroke:black;stroke-width:1px;"/>
        <path d="M995.387,856.731C1014.32,845.948 1117.18,936.448 1145.11,985.261C1160.65,1012.41 1171.61,1064.26 1149.4,1077.83C1095.65,1110.71 926.621,1034.61 930.383,1012.8C935.223,984.745 991.726,1004.87 1004.69,970.673C1014.9,943.734 971.883,870.114 995.387,856.731Z" style="stroke:black;stroke-width:1px;"/>
        <path d="M716.175,402.89C729.587,386.911 755.725,444.434 772.313,431.542C795.784,413.299 858.64,217.841 1026.66,206.672C1094.53,202.161 1162.32,296.135 1162.04,323.356C1161.16,407.59 1160.74,543.216 1159.84,644C1158.64,779.344 1379.98,845.328 1515.41,883.915C1655.75,923.9 1690.48,978.668 1687.3,1070.5C1684.54,1150.23 1635.02,1229.95 1508.63,1248.53C1386.99,1266.4 1249.63,1351.3 1162.87,1433.34C1045.41,1544.43 1020.9,1641.77 1017.78,1754.38C1016.04,1817.25 1045.08,1938.51 1030.95,1944.97C1017.86,1950.95 965.697,1766.64 968.594,1677.49C973.626,1522.64 1021.71,1399.49 1143.91,1279.96C1279.05,1147.76 1479.85,1094.91 1477.66,1037.21C1474.8,961.96 1278.64,922.754 1190.62,839.891C1154.09,805.505 1097.01,690.285 1097.67,625.065C1098.55,538.632 1105.51,383.998 1105.41,319.167C1105.36,291.752 1070.16,247.77 1020.89,251.338C962.43,255.573 890.875,349.905 888.107,453.58C886.733,505.01 890.738,572.613 874.479,599.14C861.831,619.775 828.941,612.705 803.724,602.29C779.711,592.373 742.404,564.593 723.491,529.923C705.572,497.074 697.435,425.216 716.175,402.89Z" style="stroke:black;stroke-width:1px;"/>
    </g>
</svg>
