<?xml version="1.0" encoding="UTF-8" standalone="no"?>
<!DOCTYPE svg PUBLIC "-//W3C//DTD SVG 1.1//EN" "http://www.w3.org/Graphics/SVG/1.1/DTD/svg11.dtd">
<svg width="100%" height="100%" viewBox="0 0 2048 2048" version="1.1" xmlns="http://www.w3.org/2000/svg" xmlns:xlink="http://www.w3.org/1999/xlink" xml:space="preserve" xmlns:serif="http://www.serif.com/" style="fill-rule:evenodd;clip-rule:evenodd;stroke-linecap:round;stroke-linejoin:round;stroke-miterlimit:1.5;">
    <path d="M523.106,665.355C541.676,665.644 538.2,750.738 592.048,750.467C639.648,750.228 771.761,650.198 820.752,649.282C845.602,648.818 878.641,665.442 879.571,689.101C880.882,722.451 711.792,822.257 715.992,920.556C720.25,1020.19 894.658,1062.18 893.673,1150.85C893.134,1199.36 824.555,1246.22 790.633,1249.45C758.324,1252.52 729.558,1232.79 691.941,1240.15C388.299,1299.6 436.293,1556.85 436.293,1556.85C436.293,1556.85 353.106,1415.95 534.503,1228.9C590.864,1170.79 747.953,1173.14 746.647,1110.66C745.568,1059.03 675.078,997.367 673.919,939.955C672.76,882.544 739.694,766.189 739.694,766.189C739.694,766.189 664.297,790.592 622.412,845.418C607.539,864.885 597.559,900.186 574.852,901.449C546.822,903.008 466.546,832.954 466.68,792.671C466.835,746.165 500.112,664.998 523.106,665.355Z" style="stroke:black;stroke-width:1px;"/>
    <path d="M940,796.093C955.694,787.772 979.445,822.474 1020.27,854.44C1058.51,884.384 1109.55,898.415 1109.78,963.677C1109.88,993.719 1075.44,1019.65 1047.24,1021.67C1009.9,1024.35 886.006,982.337 885.27,957.017C884.522,931.289 938.851,931.239 947.842,903.479C963.634,854.718 913.627,810.074 940,796.093Z" style="stroke:black;stroke-width:1px;"/>
    <path d="M658.114,340.473C670.891,333.816 686.645,370.147 705.115,369.832C729.579,369.414 754.393,276.844 788.905,238.989C827.58,196.569 909.756,143.332 966.232,142.788C1026.41,142.208 1097.33,158.091 1093.89,364.494C1088.68,676.935 1112.79,639.855 1158.83,690.926C1252.45,794.782 1653.88,785.394 1645.01,997.01C1637.81,1168.86 1437.74,1163.87 1260.04,1239.98C1125.9,1297.44 962.52,1429.08 954.285,1650.08C951.319,1729.7 987.388,1886.79 987.388,1886.79C987.388,1886.79 905.855,1679.44 908.418,1570.96C917.121,1202.6 1434.78,1026.31 1434.73,971.478C1434.68,909.141 1358.76,887.647 1273.28,851.341C1160.29,803.348 1030.59,729.47 1037.35,501.144C1041.83,349.586 1056.96,181.657 986.609,181.637C945.791,181.626 817.212,225.143 818.354,391.489C818.684,439.544 845.929,519.473 807.261,535.23C759.959,554.506 695.884,496.622 671.026,464.163C649.426,435.957 644.685,347.47 658.114,340.473Z" style="stroke:black;stroke-width:1px;"/>
    <path d="M1255.59,445.833C1273.2,431.312 1324.72,506.121 1366.62,504.903C1426.6,503.16 1482.65,443.552 1532.3,442.864C1587.11,442.103 1647.04,528.642 1645.55,575.735C1644.34,614.1 1607.8,671.046 1543.15,672.229C1507.91,672.874 1465.14,663.202 1467.19,644.991C1469.24,626.781 1557,587.712 1555.46,562.967C1553.94,538.489 1531.08,505.952 1502.15,505.43C1440.29,504.315 1386.34,618.436 1346.97,616.792C1304.42,615.015 1239.82,458.843 1255.59,445.833Z" style="stroke:black;stroke-width:1px;"/>
    <g id="レイヤー1">
    </g>
</svg>
