<?xml version="1.0" encoding="UTF-8" standalone="no"?>
<!DOCTYPE svg PUBLIC "-//W3C//DTD SVG 1.1//EN" "http://www.w3.org/Graphics/SVG/1.1/DTD/svg11.dtd">
<svg width="100%" height="100%" viewBox="0 0 2048 2048" version="1.1" xmlns="http://www.w3.org/2000/svg" xmlns:xlink="http://www.w3.org/1999/xlink" xml:space="preserve" xmlns:serif="http://www.serif.com/" style="fill-rule:evenodd;clip-rule:evenodd;stroke-linecap:round;stroke-linejoin:round;stroke-miterlimit:1.5;">
    <g id="レイヤー1">
        <path d="M926.677,319.074C942.5,303.901 1077.18,348.848 1115.72,380.254C1149.97,408.164 1236.92,478.763 1229.15,520.633C1215.78,592.745 1105.85,553.941 1066.25,575.682C964.152,631.743 912.579,690.455 835.719,759.583C758.919,828.657 611.794,973.594 627.54,985.054C643.448,996.632 809.989,843.5 944.598,802.271C1098.23,755.216 1243.66,745.793 1323.4,777.956C1452.01,829.832 1549.1,940.511 1544.68,1103.85C1542.09,1199.88 1476.17,1354.33 1382.22,1453.33C1335.65,1502.41 1162.22,1638.24 895.549,1631.05C833.568,1629.38 696.82,1540.93 707.321,1527.28C721.547,1508.78 945.507,1510.1 1018.37,1494.65C1145.46,1467.71 1437.89,1283.55 1432.2,1049.28C1429.18,924.859 1365.9,823.499 1176.28,826.5C1009.53,829.139 902.888,912.223 806.273,978.439C716.508,1039.96 602.051,1174.73 595.836,1245.16C592.273,1285.54 577.914,1351.5 514.161,1351.6C479.436,1351.66 446.689,1291.09 454.312,1195.53C461.463,1105.91 577.555,926.544 630.147,861.954C790.973,664.438 992.465,486.299 977.281,434.958C965.202,394.116 910.854,334.248 926.677,319.074Z" style="stroke:black;stroke-width:1px;"/>
        <path d="M859.783,1102.37C879.645,1091.57 916.584,1157.74 942.488,1157.16C987.408,1156.16 1081.6,1023.44 1114.52,1032.81C1140.27,1040.14 1115.93,1115.23 1093.65,1137.48C1066.79,1164.28 1045.61,1205.91 1034.05,1240.33C1021.27,1278.36 1013.12,1316.69 982.506,1319.61C950.133,1322.7 876.108,1214.62 856.648,1178.15C846.452,1159.04 845.478,1110.15 859.783,1102.37Z" style="stroke:black;stroke-width:1px;"/>
    </g>
</svg>
