<?xml version="1.0" encoding="UTF-8" standalone="no"?>
<!DOCTYPE svg PUBLIC "-//W3C//DTD SVG 1.1//EN" "http://www.w3.org/Graphics/SVG/1.1/DTD/svg11.dtd">
<svg width="100%" height="100%" viewBox="0 0 2048 2048" version="1.1" xmlns="http://www.w3.org/2000/svg" xmlns:xlink="http://www.w3.org/1999/xlink" xml:space="preserve" xmlns:serif="http://www.serif.com/" style="fill-rule:evenodd;clip-rule:evenodd;stroke-linecap:round;stroke-linejoin:round;stroke-miterlimit:1.5;">
    <g id="レイヤー1">
        <path d="M889.861,210.22C925.708,201.456 1066.98,322.695 1075.91,362.935C1081.23,386.882 1086.04,425.319 1074.36,447.52C1062.68,469.722 1001.57,461.118 1000.88,486.909C999.925,522.235 999.029,655.958 999.029,655.958C999.029,655.958 1187.34,729.978 1217.86,893.268C1238.35,1002.83 1244.28,1178.66 1259.66,1290.01C1272.11,1380.04 1353.15,1469.06 1447.59,1464.58C1672.48,1453.92 1750.95,1210.03 1791.61,1214.51C1818.41,1217.46 1788.97,1316.51 1761.76,1365.45C1710.84,1457.03 1577.69,1576.98 1417.9,1577.55C1263.79,1578.1 1122.78,1479.67 1113.71,1349.91C1104.81,1222.66 1117.84,984.692 1114.66,878.458C1112.5,806.62 998.882,722.255 998.882,722.255C998.882,722.255 993.995,1514.57 1006.3,1715.25C1008.35,1748.69 1035.94,1791.11 1032.82,1837.72C1029.85,1882.12 1007.23,1908.25 983.362,1913.87C959.492,1919.48 920.284,1903.9 903.625,1874.78C886.898,1845.54 889.53,1777.09 891.624,1747.88C892.916,1729.85 921.098,1697.81 921.471,1663.74C923.294,1497.4 930.547,716.237 930.547,716.237C930.547,716.237 858.452,704.502 777.004,783.688C739.522,820.128 711.494,882.52 713.039,919.261C714.267,948.452 739.285,966.89 727.554,1003.24C720.283,1025.77 640.618,1035.89 613.407,1023.84C580.974,1009.47 538.97,957.189 537.094,908.25C534.114,830.539 590.011,775.788 620.22,766.464C651.425,756.833 662.792,770.79 682.739,760.288C703.922,749.136 744.465,702.231 794.343,680.968C857.694,653.962 932.728,655.25 932.728,655.25C932.728,655.25 934.404,475.885 933.244,431.767C932.54,404.982 896.09,379.178 889.262,353.268C879.399,315.834 858.746,217.828 889.861,210.22Z" style="stroke:black;stroke-width:1px;"/>
    </g>
</svg>
