<?xml version="1.0" encoding="UTF-8" standalone="no"?>
<!DOCTYPE svg PUBLIC "-//W3C//DTD SVG 1.1//EN" "http://www.w3.org/Graphics/SVG/1.1/DTD/svg11.dtd">
<svg width="100%" height="100%" viewBox="0 0 2048 2048" version="1.1" xmlns="http://www.w3.org/2000/svg" xmlns:xlink="http://www.w3.org/1999/xlink" xml:space="preserve" xmlns:serif="http://www.serif.com/" style="fill-rule:evenodd;clip-rule:evenodd;stroke-linecap:round;stroke-linejoin:round;stroke-miterlimit:1.5;">
    <path d="M738.435,863.852C738.435,863.852 645.068,1071.72 612.782,1128.83C589.71,1169.64 539.432,1267.25 585.459,1267.97C637.539,1268.79 817.797,1191.05 925.258,1133.75C1035.28,1075.09 1198.21,974.445 1236.68,923.644C1257.31,896.416 1198.69,847.679 1198.34,825.079C1198.07,807.814 1212.84,786.533 1228.65,793.475C1277.86,815.08 1418.66,909.13 1452.16,961.186C1473.42,994.231 1458.79,1081.39 1431.28,1098.85C1403.77,1116.31 1299.18,1053.41 1256.54,1064.63C1176.72,1085.63 742.698,1311.64 625.102,1373.03C599.215,1386.54 578.48,1420.66 550.647,1430.55C522.814,1440.43 476.975,1433.4 458.625,1420.21C364.286,1352.35 738.435,863.852 738.435,863.852Z" style="stroke:black;stroke-width:1px;"/>
    <path d="M713.443,794.07C752.314,782.276 905.694,869.115 935.352,916.258C955.266,947.913 879.825,982.448 871.843,1034.85C857.803,1127.02 848.086,1370.82 782.912,1498.54C714.53,1632.54 581.414,1819.62 463.869,1834.46C411.815,1841.04 378.282,1806.09 378.282,1806.09C378.282,1806.09 535.629,1733.21 628.059,1607.94C759.652,1429.6 767.063,1175.87 778.087,1055.06C783.535,995.361 704.981,926.592 694.207,883.094C686.908,853.625 678.1,804.794 713.443,794.07Z" style="stroke:black;stroke-width:1px;"/>
    <path d="M1055.5,387.985C1072.18,380.199 1123.37,394.91 1150.6,413.126C1198.07,444.885 1316.1,528.583 1342.38,574.626C1352.91,593.059 1335.82,651.474 1306.62,673.315C1273.34,698.217 1196.07,663.511 1170.21,693.896C1068.73,813.141 1096.5,963.771 1092.11,1101.43C1077.33,1564.95 1539.79,1731.71 1629.87,1755.89C1679.92,1769.33 1786.99,1764.1 1786.99,1764.1C1786.99,1764.1 1749.65,1884.77 1533.02,1848.63C1170.59,1788.18 1033.66,1372.05 1017.3,1151.26C988.669,764.678 1054.31,680.702 1081.22,581.254C1101.64,505.819 1054.77,492.052 1050.48,459.84C1047.31,436.04 1038.81,395.771 1055.5,387.985Z" style="stroke:black;stroke-width:1px;"/>
    <path d="M1361.45,674.393C1390.7,672.78 1420.02,732.959 1457.34,732.25C1499.9,731.441 1575.65,674.274 1624.67,666.436C1684.84,656.817 1743.76,732.498 1738.69,805.462C1736.18,841.616 1685.14,894.515 1656.16,897.833C1626.61,901.216 1569.66,889.178 1571.12,870.792C1574.23,831.642 1647.28,799.888 1646.75,777.789C1646.12,751.847 1615.29,729.148 1596.66,729.716C1559.86,730.839 1471.47,842.799 1432.04,839.168C1378.59,834.244 1341.29,675.506 1361.45,674.393Z" style="stroke:black;stroke-width:1px;"/>
    <g id="レイヤー1">
    </g>
</svg>
