<?xml version="1.0" encoding="UTF-8" standalone="no"?>
<!DOCTYPE svg PUBLIC "-//W3C//DTD SVG 1.1//EN" "http://www.w3.org/Graphics/SVG/1.1/DTD/svg11.dtd">
<svg width="100%" height="100%" viewBox="0 0 2048 2048" version="1.1" xmlns="http://www.w3.org/2000/svg" xmlns:xlink="http://www.w3.org/1999/xlink" xml:space="preserve" xmlns:serif="http://www.serif.com/" style="fill-rule:evenodd;clip-rule:evenodd;stroke-linecap:round;stroke-linejoin:round;stroke-miterlimit:1.5;">
    <path d="M518.456,753.888C540.693,740.561 596.341,808.653 638.677,808.851C708.795,809.178 789.945,728.509 836.134,727.7C876.163,726.999 915.606,769.845 915.81,803.997C916.12,855.634 864.543,858.897 845.067,880.803C818.866,910.275 786.701,949.828 751.827,976.773C715.086,1005.16 639.839,1054.68 639.839,1054.68C639.839,1054.68 686.97,984.588 711.657,955.114C742.534,918.253 796.829,848.312 778.174,829.695C768.582,820.121 709.379,860.147 685.947,882.551C663.1,904.397 655.491,959.636 635.478,962.137C615.466,964.638 546.917,879.473 527.414,844.765C514.642,822.037 501.708,763.925 518.456,753.888Z" style="stroke:black;stroke-width:1px;"/>
    <path d="M1051.97,201.793C1070.61,194.14 1121.98,240.954 1148.2,251.239C1166.22,258.305 1200.24,256.517 1217.41,268.198C1243.87,286.2 1313.1,351.121 1313.73,413.658C1314.11,452.36 1233.56,453.969 1234.04,496.18C1235,582.399 1225.52,921.46 1225.52,921.46C1225.52,921.46 1335.08,885.885 1397.94,872.788C1465.65,858.682 1634.38,819.937 1634.38,819.937C1634.38,819.937 1485.74,886.207 1411.52,911.642C1343.42,934.979 1223.09,987.875 1223.09,987.875C1223.09,987.875 1220.69,1278.36 1217.7,1422.02C1214.34,1583.55 1219.45,1956.27 1190.1,1957.79C1166.09,1959.03 1142.53,1580.45 1134.96,1424.65C1128.61,1293.81 1120.19,1024.5 1120.19,1024.5C1120.19,1024.5 949.674,1087.12 883.918,1114.88C830.662,1137.36 755.758,1167.26 716.079,1197.46C681.088,1224.09 663.791,1297.59 635.639,1302.63C584.833,1311.74 499.974,1213.21 498.062,1174.92C496.278,1139.16 526.689,1088.53 544.061,1085.35C567.261,1081.1 583.221,1127.7 603.023,1123.18C661.562,1109.82 761.78,1074.09 845.195,1044.64C932.107,1013.95 1120.93,948.099 1120.93,948.099C1120.93,948.099 1109.8,572.218 1110.06,474.049C1110.14,442.126 1093.64,389.251 1081.97,360.375C1072.87,337.857 1054.69,320.502 1050.18,296.638C1045.18,270.208 1033.33,209.446 1051.97,201.793Z" style="stroke:black;stroke-width:1px;"/>
    <g id="レイヤー1">
    </g>
    <path d="M709.217,350.829C723.355,342.583 755.917,377.493 773.477,383.922C787.677,389.12 813.29,392.679 824.01,401.402C851.241,423.561 919.43,487.32 936.864,516.872C949.674,538.586 950.6,597.2 897.132,601.357C882.244,602.515 865.168,584.729 850.161,588.643C817.53,597.153 714.821,673.463 696.599,659.244C681.381,647.369 785.028,551.786 769.342,505.69C755.705,465.618 726.932,427.783 716.911,401.973C711.384,387.736 699.868,356.283 709.217,350.829Z" style="stroke:black;stroke-width:1px;"/>
</svg>
