<?xml version="1.0" encoding="UTF-8" standalone="no"?>
<!DOCTYPE svg PUBLIC "-//W3C//DTD SVG 1.1//EN" "http://www.w3.org/Graphics/SVG/1.1/DTD/svg11.dtd">
<svg width="100%" height="100%" viewBox="0 0 2048 2048" version="1.1" xmlns="http://www.w3.org/2000/svg" xmlns:xlink="http://www.w3.org/1999/xlink" xml:space="preserve" xmlns:serif="http://www.serif.com/" style="fill-rule:evenodd;clip-rule:evenodd;stroke-linecap:round;stroke-linejoin:round;stroke-miterlimit:1.5;">
    <path d="M429.815,693.113C451.106,670.291 536.076,725.853 584.215,721.142C668.011,712.941 755.578,640.989 808.601,638.135C849.984,635.907 903.7,690.43 903.09,712.364C901.946,753.508 824.329,751.067 800.646,775.554C756.427,821.275 637.149,924.072 637.774,986.688C638.394,1048.9 699.494,1027.87 721.632,1009.23C755.412,980.774 780.326,938.849 826.091,940.067C868.728,941.202 904.327,997.682 903.302,1023.92C901.906,1059.66 854.361,1067.04 840.301,1090.36C813.518,1134.78 754.413,1265.92 691.469,1339.11C572.248,1477.74 381.635,1505.43 381.635,1505.43C381.635,1505.43 589.759,1389.79 646.515,1314.01C743.324,1184.77 738.506,1063.51 738.506,1063.51C738.506,1063.51 667.234,1083.03 633.72,1081.81C600.775,1080.6 546.345,1053.85 547.04,1013.31C548.651,919.307 660.126,791.75 660.126,791.75C660.126,791.75 637.82,783.946 616.084,799.064C591.975,815.832 570.144,855.253 549.832,856.543C473.882,861.364 404.538,720.209 429.815,693.113Z" style="stroke:black;stroke-width:1px;"/>
    <path d="M1383.88,707.391C1413.49,689.325 1517.77,748.172 1557.25,782.185C1591.09,811.329 1624.51,866.262 1622.42,900.25C1618.07,971.045 1527.42,950.534 1488.95,977.342C1426.36,1020.95 1345.01,1088.36 1236.04,1161.28C1101.18,1251.53 866.023,1339.14 866.023,1339.14C866.023,1339.14 1090.78,1188.19 1187.55,1106.99C1278.37,1030.77 1406.54,864.795 1401.97,828.165C1397.19,789.805 1348.63,728.893 1383.88,707.391Z" style="stroke:black;stroke-width:1px;"/>
    <path d="M836.872,133.802C860.069,117.06 957.287,168.408 1014.05,199.713C1077.94,234.954 1179.31,282.686 1175.12,354.5C1173.11,389 1114.75,401.163 1086.22,426.458C1038,469.216 1025.64,849.075 1024.71,1061.87C1023.76,1277.18 1032.69,1590.55 1037.9,1713.82C1039.12,1742.61 1049.88,1773.31 1049.81,1802.74C1049.74,1832.94 1050.08,1894.43 1033.23,1898.43C1011.51,1903.59 926.812,1800.31 923.579,1763.6C921.755,1742.89 943.02,1714.38 944.23,1691.68C950.185,1579.97 966.123,1279.2 967.949,1073.34C969.956,847.051 972.528,554.401 968.983,410.664C967.482,349.808 858.266,229.831 836.688,186.5C828.857,170.776 821.158,145.143 836.872,133.802Z" style="stroke:black;stroke-width:1px;"/>
    <g id="レイヤー1">
    </g>
</svg>
