<?xml version="1.0" encoding="UTF-8" standalone="no"?>
<!DOCTYPE svg PUBLIC "-//W3C//DTD SVG 1.1//EN" "http://www.w3.org/Graphics/SVG/1.1/DTD/svg11.dtd">
<svg width="100%" height="100%" viewBox="0 0 2048 2048" version="1.1" xmlns="http://www.w3.org/2000/svg" xmlns:xlink="http://www.w3.org/1999/xlink" xml:space="preserve" xmlns:serif="http://www.serif.com/" style="fill-rule:evenodd;clip-rule:evenodd;stroke-linecap:round;stroke-linejoin:round;stroke-miterlimit:1.5;">
    <path d="M907.953,897.343C933.332,879.186 1004.98,974.365 1033.51,975.389C1069.44,976.678 1126.39,806.897 1179.67,807.08C1245.9,807.308 1351.03,924.663 1352.78,1010.75C1354.64,1102.79 1365.72,1233.07 1380.99,1322.97C1407.82,1480.87 1555.25,1668.87 1668.56,1681.29C1733.39,1688.4 1878.34,1631.79 1885.77,1645.41C1893.95,1660.41 1723,1761.04 1641.8,1760.73C1372.83,1759.69 1239.73,1497.23 1234.99,1365.54C1229.98,1226.42 1229.99,1070.31 1230.08,992.211C1230.13,950.13 1200.05,907.372 1169.5,907.41C1093.38,907.506 1099.46,1158.8 1014.95,1167.67C973.774,1171.99 921.402,1111.08 917.722,1073.6C911.992,1015.25 912.863,996.258 910.021,967.587C907.613,943.297 891.18,909.342 907.953,897.343Z" style="stroke:black;stroke-width:1px;"/>
    <g id="レイヤー1">
        <path d="M1162.62,192.333C1195.17,179.668 1275.45,245.069 1315.41,287.917C1355.37,330.764 1425.74,442.996 1404.66,464.482C1383.13,486.422 1321.19,460.934 1288.93,471.845C1235.68,489.852 1152.66,588.649 1067.03,668.427C952.92,774.743 857.182,845.876 857.182,845.876C857.182,845.876 829.817,1136.91 707.938,1376.67C606.838,1575.55 401.52,1749.17 340.315,1756.48C305.631,1760.62 247.433,1745.05 247.062,1734.88C246.692,1724.7 315.801,1714.34 338.094,1695.46C500.111,1558.25 526.917,1534.63 624.014,1314.73C721.611,1093.7 725.915,913.983 725.915,913.983C725.915,913.983 684.31,949.335 649.5,948.966C621.278,948.666 588.258,866.086 589.204,822.616C590.66,755.7 702.188,634.169 761.406,629C847.733,621.464 857.804,772.001 857.804,772.001C857.804,772.001 975.021,683.328 1020.88,630.948C1074.8,569.362 1150.87,471.219 1156.02,425.122C1162.43,367.649 1129.16,205.358 1162.62,192.333ZM722.74,707.797C745.449,721.261 732.217,843.455 732.217,843.455C732.217,843.455 679.472,886.266 657.024,867.134C644.808,856.722 642.523,813.148 652.464,789.043C663.417,762.487 708.932,699.611 722.74,707.797Z" style="stroke:black;stroke-width:1px;"/>
    </g>
</svg>
