<?xml version="1.0" encoding="UTF-8" standalone="no"?>
<!DOCTYPE svg PUBLIC "-//W3C//DTD SVG 1.1//EN" "http://www.w3.org/Graphics/SVG/1.1/DTD/svg11.dtd">
<svg width="100%" height="100%" viewBox="0 0 2048 2048" version="1.1" xmlns="http://www.w3.org/2000/svg" xmlns:xlink="http://www.w3.org/1999/xlink" xml:space="preserve" xmlns:serif="http://www.serif.com/" style="fill-rule:evenodd;clip-rule:evenodd;stroke-linecap:round;stroke-linejoin:round;stroke-miterlimit:1.5;">
    <g id="レイヤー1">
        <path d="M836.894,136.403C836.894,136.403 1074.44,238.554 1127.43,286.296C1156.14,312.165 1168.4,389.664 1156.07,411.15C1143.74,432.636 1104.38,400.666 1085.37,419.579C1065.42,439.412 1047.71,498.141 1046.22,534.417C1041.6,647.125 1032.19,1112.09 1032.19,1112.09C1032.19,1112.09 1170.31,1011.41 1200.56,955.507C1226.56,907.472 1213.73,776.667 1213.73,776.667C1213.73,776.667 1383.3,875.316 1416.49,921.561C1443.96,959.839 1428.5,1042.68 1411.16,1066.84C1393.82,1091 1359.71,1086.02 1318.69,1091.35C1252.27,1099.98 1036.8,1216.31 1036.8,1216.31C1036.8,1216.31 1032.9,1658.3 1033.79,1770.24C1034.16,1817.7 1053.37,1878.98 1040.08,1894.74C1026.8,1910.51 976.112,1892.81 954.086,1864.85C934.897,1840.49 915.971,1750.02 923.411,1730.52C930.458,1712.04 944.429,1706.97 945.809,1686.86C951.418,1605.07 958.438,1245.92 958.438,1245.92C958.438,1245.92 787.895,1315.44 700.114,1342.91C607.916,1371.76 405.25,1419 405.25,1419C405.25,1419 632.192,1323.95 724.667,1279.47C805.074,1240.79 959.055,1149.64 959.055,1149.64C959.055,1149.64 953.398,580.267 950.76,424.536C949.402,344.366 851.445,261.747 830.427,216.794C823.757,202.528 836.894,136.403 836.894,136.403Z" style="stroke:black;stroke-width:1px;"/>
    </g>
</svg>
