<?xml version="1.0" encoding="UTF-8" standalone="no"?>
<!DOCTYPE svg PUBLIC "-//W3C//DTD SVG 1.1//EN" "http://www.w3.org/Graphics/SVG/1.1/DTD/svg11.dtd">
<svg width="100%" height="100%" viewBox="0 0 2048 2048" version="1.1" xmlns="http://www.w3.org/2000/svg" xmlns:xlink="http://www.w3.org/1999/xlink" xml:space="preserve" xmlns:serif="http://www.serif.com/" style="fill-rule:evenodd;clip-rule:evenodd;stroke-linecap:round;stroke-linejoin:round;stroke-miterlimit:1.5;">
    <path d="M526.075,1064.14C526.075,1064.14 667.066,1062.33 726.688,1078.7C801.953,1099.36 874.725,1123.24 877.27,1183.63C878.724,1218.14 808.575,1271.17 771.924,1269.09C755.04,1268.13 752.248,1236.88 742.012,1223.61C727.546,1204.84 702.227,1177.67 677.982,1159.77C641.992,1133.19 526.075,1064.14 526.075,1064.14Z" style="stroke:black;stroke-width:1px;"/>
    <path d="M456.619,841.945C481.312,821.861 520.904,880.304 558.283,877.116C598.177,873.714 654.612,843.154 695.982,821.531C735.3,800.981 750.553,741.498 812.108,736.539C846.279,733.786 899.499,753.568 898.933,782.733C898.507,804.67 859.715,808.307 849.267,836.621C821.751,911.187 751.061,1093.82 677.52,1205.1C603.978,1316.39 497.828,1461.05 407.114,1481.65C373.839,1489.21 309.457,1476.69 309.457,1476.69C309.457,1476.69 374.656,1459.7 404.185,1444.12C488.245,1399.74 561.866,1316.63 643.378,1170.94C743.315,992.316 742.957,863.48 742.957,863.48C742.957,863.48 687.35,874.448 644.116,918.03C616.049,946.324 593.527,1007.97 563.173,1011.87C532.228,1015.85 491.337,984.789 473.578,956.468C455.819,928.147 441.076,854.586 456.619,841.945Z" style="stroke:black;stroke-width:1px;"/>
    <path d="M795,1318.76C857.432,1294.92 858.268,1395.79 890.99,1390.53C973.031,1377.34 1140.15,1326.58 1268.41,1288.03C1412.29,1244.79 1743.14,1134.09 1743.14,1134.09C1743.14,1134.09 1404.56,1278.96 1269.81,1337.1C1159.6,1384.64 1012.44,1445.85 952.298,1478.36C924.405,1493.43 915.38,1555.43 885.127,1564.13C853.817,1573.14 776.757,1520.99 764.245,1479.26C743.611,1410.44 774.115,1326.73 795,1318.76Z" style="stroke:black;stroke-width:1px;"/>
    <path d="M895.688,215.458C909.631,209.596 954.608,236.614 977.069,244.619C994.848,250.955 1014.05,253.914 1030.45,263.486C1074.5,289.179 1194.6,388.094 1193.04,436.734C1191.86,473.624 1150.16,495.429 1123.46,500.702C1103.31,504.681 1055.14,497.53 1049.81,522.578C1034.84,592.901 1035.47,789.187 1033.63,922.635C1031.09,1107.12 1034.16,1472.61 1034.53,1629.5C1034.7,1701.79 1088.29,1789.27 1087.19,1839.88C1086.38,1876.69 1055.41,1934.12 1027.91,1933.11C1001.48,1932.13 947.897,1829.09 935.344,1793.79C927.024,1770.4 951.7,1746.14 952.594,1721.33C957.203,1593.31 961.865,1214.9 963,1025.62C963.88,878.984 961.877,696.706 959.406,585.708C957.83,514.908 948.625,425.361 937.625,374.375C930.285,340.355 900.396,306.278 893.406,279.792C887.931,259.044 881.744,221.32 895.688,215.458Z" style="stroke:black;stroke-width:1px;"/>
    <g id="レイヤー1">
    </g>
</svg>
