<?xml version="1.0" encoding="UTF-8" standalone="no"?>
<!DOCTYPE svg PUBLIC "-//W3C//DTD SVG 1.1//EN" "http://www.w3.org/Graphics/SVG/1.1/DTD/svg11.dtd">
<svg width="100%" height="100%" viewBox="0 0 2048 2048" version="1.1" xmlns="http://www.w3.org/2000/svg" xmlns:xlink="http://www.w3.org/1999/xlink" xml:space="preserve" xmlns:serif="http://www.serif.com/" style="fill-rule:evenodd;clip-rule:evenodd;stroke-linecap:round;stroke-linejoin:round;stroke-miterlimit:1.5;">
    <path d="M912.436,549.567C929.659,545.386 997.847,579.599 1021.59,596.92C1039.27,609.818 1053.65,640.168 1051.79,660.225C1048.98,690.464 992.275,704.018 960.806,704.884C871.927,707.327 766.964,842.629 762.289,903.422C761.287,916.455 771.156,937.74 780.024,938.397C788.891,939.055 802.947,914.041 814.363,903.25C851.961,867.711 943.877,789.378 1013.14,789.037C1099.54,788.612 1219.71,838.4 1219.78,972.149C1219.84,1090.89 1031.08,1143.68 1031.08,1143.68C1031.08,1143.68 1031.83,1329.48 1034.1,1382.21C1034.99,1402.69 1048.53,1430.17 1049.33,1451.62C1050.27,1477.09 1032.65,1540.5 1016.45,1540.55C1000.08,1540.6 958.779,1469.17 958.231,1434.86C957.792,1407.4 980.084,1370.11 980.77,1342.66C981.979,1294.26 982.081,1150.44 982.081,1150.44C982.081,1150.44 862.935,1167.71 863.553,1056.82C864.102,958.186 940.302,933.744 967.72,933.226C1033.47,931.982 1031.74,1064.26 1031.74,1064.26C1031.74,1064.26 1143.31,1025.77 1140.81,959.665C1139.33,920.614 1096.24,828.541 981.143,831.62C890.453,834.045 858.596,930.37 845.241,975.898C834.31,1013.16 784.268,1063.5 760.634,1063.15C737.001,1062.81 708.686,995.469 707.543,960.132C703.345,830.341 875.087,701.407 909.236,632.979C920.053,611.304 895.213,553.748 912.436,549.567ZM983.412,1077.85C983.412,1077.85 939.72,1098.26 939.978,1035.04C940.035,1020.97 944.508,996.368 961.254,996.391C972.819,996.408 979.003,1008.14 981.057,1018.06C984.19,1033.19 983.412,1077.85 983.412,1077.85Z" style="stroke:black;stroke-width:1px;"/>
</svg>
