<?xml version="1.0" encoding="UTF-8" standalone="no"?>
<!DOCTYPE svg PUBLIC "-//W3C//DTD SVG 1.1//EN" "http://www.w3.org/Graphics/SVG/1.1/DTD/svg11.dtd">
<svg width="100%" height="100%" viewBox="0 0 2048 2048" version="1.1" xmlns="http://www.w3.org/2000/svg" xmlns:xlink="http://www.w3.org/1999/xlink" xml:space="preserve" xmlns:serif="http://www.serif.com/" style="fill-rule:evenodd;clip-rule:evenodd;stroke-linecap:round;stroke-linejoin:round;stroke-miterlimit:1.5;">
    <path d="M467.638,934.555C484.567,918.671 581.446,937.716 626.606,923.413C793.144,870.666 1460.48,592.679 1471.88,616.319C1482.46,638.261 842.855,891.803 685.776,962.698C629.015,988.316 628.512,1044.97 598.913,1056.22C571.019,1066.83 536.201,1043.92 515.202,1022.85C494.203,1001.77 450.71,950.439 467.638,934.555Z" style="stroke:black;stroke-width:1px;"/>
    <path d="M1072.08,140.662C1093.92,129.716 1116.75,198.89 1116.9,224.125C1117.84,392.411 1090.75,441.454 1075.8,576.589C1061.59,704.905 1060.6,764.447 1071.25,848.667C1090.32,999.455 1240.86,1033.26 1438.97,1082.46C1501.78,1098.06 1570.63,1181.06 1565.69,1244.77C1560.11,1316.75 1468.61,1388.71 1357.71,1404.78C1220.42,1424.67 971.947,1576.7 937.955,1710.58C925.903,1758.05 954.273,1926.88 941.706,1932.25C921.804,1940.74 870.278,1743.68 898.957,1641.32C923.873,1552.38 1016.11,1455.03 1093.49,1401.04C1180.26,1340.48 1363.44,1260.73 1366.47,1218.08C1371.59,1145.88 1161.06,1109.4 1085.72,1050.98C1018.49,998.844 989.433,916.618 987.095,816.501C984.439,702.758 1040.76,475.68 1054.33,362.646C1063.49,286.289 1043.91,154.79 1072.08,140.662Z" style="stroke:black;stroke-width:1px;"/>
    <path d="M576.814,627.85C588.85,616.703 654.023,661.354 692.541,654.983C739.916,647.148 834.658,600.754 867.173,575.378C888.854,558.457 873.583,517.716 887.632,502.727C901.681,487.739 934.928,484.041 956.882,486.042C980.81,488.222 1031.2,515.81 1031.2,515.81L1014.68,632.466C1014.68,632.466 987.624,624.251 975.718,633.65C948.066,655.48 892.499,715.533 850.448,763.398C809.481,810.029 682.782,891.764 680.168,889.199C673.061,882.226 772.328,785.23 800.22,747.803C824.267,715.537 866.27,658.055 854.935,643.469C841.125,625.699 794.23,664.589 769.38,685.264C742.898,707.298 726.499,764.644 696.041,775.67C642.83,794.934 564.778,638.998 576.814,627.85Z" style="stroke:black;stroke-width:1px;"/>
    <g id="レイヤー1">
    </g>
</svg>
