<?xml version="1.0" encoding="UTF-8" standalone="no"?>
<!DOCTYPE svg PUBLIC "-//W3C//DTD SVG 1.1//EN" "http://www.w3.org/Graphics/SVG/1.1/DTD/svg11.dtd">
<svg width="100%" height="100%" viewBox="0 0 2048 2048" version="1.1" xmlns="http://www.w3.org/2000/svg" xmlns:xlink="http://www.w3.org/1999/xlink" xml:space="preserve" xmlns:serif="http://www.serif.com/" style="fill-rule:evenodd;clip-rule:evenodd;stroke-linecap:round;stroke-linejoin:round;stroke-miterlimit:1.5;">
    <path d="M638.85,1054.37C676.985,1027.88 731.967,1132.06 787.898,1131.46C841.749,1130.87 983.625,1023.48 983.625,1023.48C983.625,1023.48 939.79,1102.07 877.996,1162.3C816.889,1221.86 768.997,1283.44 751.659,1287.44C675.244,1305.06 609.231,1074.94 638.85,1054.37Z" style="stroke:black;stroke-width:1px;"/>
    <path d="M902.461,1416.28C902.461,1416.28 1176.1,1635.39 1319.11,1704.12C1566.38,1822.96 1795.15,1796.89 1795.15,1796.89C1795.15,1796.89 1705.35,1837.38 1662.8,1848.7C1623.61,1859.13 1578.97,1865.44 1538.35,1873.07C1489.85,1882.18 1412.33,1897.07 1358.86,1892.93C1074.69,1870.95 902.461,1416.28 902.461,1416.28Z" style="stroke:black;stroke-width:1px;"/>
    <path d="M873.657,352.857C873.657,352.857 962.103,389.536 1004.59,409.758C1044.58,428.797 1035.19,399.943 1122.75,465.511C1151.01,486.669 1205.57,571.087 1203.89,613.476C1202.83,640.363 1176.56,657.434 1149.9,657.784C1105.74,658.363 1044.23,588.163 947.101,597.179C883.443,603.087 783.49,659.027 786.282,716.588C795.301,902.581 1057.94,757.698 1152.9,875.042C1233.73,974.928 1216.11,1148.51 1127.86,1284.37C845.661,1718.81 356.996,1673.77 356.996,1673.77C356.996,1673.77 652.114,1573.21 777.575,1483.83C903.946,1393.81 1070.61,1205.18 1074.79,1080.8C1082.55,849.907 713.399,936.029 723.529,715.134C730.722,558.275 963.658,459.916 963.658,459.916L873.657,352.857Z" style="stroke:black;stroke-width:1px;"/>
    <path d="M1244.12,715.39C1264.07,704.567 1308.75,779.245 1349.72,778.333C1394.14,777.345 1459.95,707.628 1510.66,709.458C1565.92,711.454 1633.82,777.896 1634.87,850.975C1635.56,899.064 1588.66,943.274 1543.16,946C1512.25,947.852 1452.9,935.694 1452.72,916.565C1452.49,891.989 1540.23,853.123 1540.41,831.25C1540.65,800.526 1511.6,780.323 1487.52,780.286C1427.79,780.192 1366.47,896.389 1335.51,895.249C1275.14,893.028 1229.88,723.114 1244.12,715.39Z" style="stroke:black;stroke-width:1px;"/>
    <g id="レイヤー1">
    </g>
</svg>
