<?xml version="1.0" encoding="UTF-8" standalone="no"?>
<!DOCTYPE svg PUBLIC "-//W3C//DTD SVG 1.1//EN" "http://www.w3.org/Graphics/SVG/1.1/DTD/svg11.dtd">
<svg width="100%" height="100%" viewBox="0 0 2048 2048" version="1.1" xmlns="http://www.w3.org/2000/svg" xmlns:xlink="http://www.w3.org/1999/xlink" xml:space="preserve" xmlns:serif="http://www.serif.com/" style="fill-rule:evenodd;clip-rule:evenodd;stroke-linecap:round;stroke-linejoin:round;stroke-miterlimit:1.5;">
    <g id="レイヤー1">
        <path d="M1243.8,164.784C1247.47,153.046 1270.38,156.101 1277.29,162.018C1284.2,167.935 1287.53,200.555 1294.77,208.874C1327.01,245.916 1442.62,334.182 1466.56,383.758C1478.28,408.026 1468.1,458.032 1452.22,475.482C1417.3,513.858 1347.9,460.943 1306.15,472.399C1250.95,487.547 1135.78,586.042 1135.78,586.042C1135.78,586.042 1120.1,688.346 1170.47,764.111C1184.72,785.557 1237.29,847.458 1302.53,868.623C1339.72,880.688 1409.81,859.104 1433.98,871.79C1457.1,883.922 1468.4,933.111 1455.93,953.492C1438.68,981.673 1347.49,993.151 1316.24,1039.93C1271.03,1107.61 1190.93,1396.21 1091.09,1544.71C1039.72,1621.12 876.267,1728.73 795.721,1772.32C649.573,1851.42 400.792,1848.62 396.781,1836.29C392.77,1823.97 648.569,1772.28 771.656,1698.38C969.833,1579.38 986.933,1455.38 986.933,1455.38C986.933,1455.38 913.293,1467.5 863.344,1424.21C686.166,1270.64 877.406,1077.23 906.629,1047.89C959.982,994.332 1052.95,945.932 1104.38,951.421C1204.11,962.065 1225.21,1025.2 1225.21,1025.2C1225.21,1025.2 1252.51,1026.32 1255.86,1008.89C1262.65,973.604 1159.7,902.63 1129.13,841.031C1081.99,746.026 1072.52,631.088 1072.52,631.088C1072.52,631.088 928.167,735.931 853.62,767.245C771.044,801.932 580.377,881.797 578.525,846.863C576.923,816.632 803.786,726.907 981.344,575.958C1071.11,499.641 1197.32,397.832 1238.47,327.107C1253.82,300.716 1235.17,192.384 1243.8,164.784ZM1082.81,1046.29C1126.2,1068.32 1107.18,1157.29 1095.8,1193.6C1081.45,1239.4 1075.35,1282.02 1011.51,1315.33C988.477,1327.34 952.51,1334.51 930.053,1320.94C893.482,1298.86 899.182,1223.75 914.934,1178.76C932.355,1129.02 973.603,1079.34 1003.59,1060.91C1028.94,1045.32 1062.52,1035.99 1082.81,1046.29Z" style="stroke:black;stroke-width:1px;"/>
    </g>
</svg>
