<?xml version="1.0" encoding="UTF-8" standalone="no"?>
<!DOCTYPE svg PUBLIC "-//W3C//DTD SVG 1.1//EN" "http://www.w3.org/Graphics/SVG/1.1/DTD/svg11.dtd">
<svg width="100%" height="100%" viewBox="0 0 2048 2048" version="1.1" xmlns="http://www.w3.org/2000/svg" xmlns:xlink="http://www.w3.org/1999/xlink" xml:space="preserve" xmlns:serif="http://www.serif.com/" style="fill-rule:evenodd;clip-rule:evenodd;stroke-linecap:round;stroke-linejoin:round;stroke-miterlimit:1.5;">
    <path d="M999.063,189.417C1013.22,163.088 1093.02,168.322 1126.78,183.851C1175.44,206.24 1272.71,288.556 1284.18,332.806C1292.67,365.567 1273.54,396.336 1255.55,413.306C1237.57,430.276 1192.77,426.627 1175.44,441.52C1158.11,456.414 1152.68,480.814 1151.56,502.667C1148.76,557.572 1149.94,759.292 1149.94,759.292C1149.94,759.292 1261.62,712.737 1266.77,722.594C1277.34,742.842 1165.09,809.895 1165.09,809.895C1165.09,809.895 1175.83,834.973 1191.59,862.563C1200.42,878.021 1219.88,889.71 1234.94,892.792C1251.01,896.082 1272.14,903.249 1284.97,910.901C1307.68,924.442 1366.3,951.841 1365.16,1006.21C1364.12,1056.5 1326.79,1096.24 1293.8,1098.42C1261.54,1100.54 1249.36,1111.41 1210.95,1112.7C1162.8,1114.3 1092.69,1191 1082.97,1320.5C1070.05,1492.66 1252.38,1652.88 1374.79,1692.78C1470.45,1723.96 1641.76,1743.56 1639.12,1759.86C1636.31,1777.2 1372,1774.23 1265.65,1726.14C1099.31,1650.91 956.995,1451.45 960.063,1301.46C965.391,1040.85 1140.27,982.844 1137.59,918.333C1136.95,902.869 1125.95,888.412 1120.09,874.682C1114.42,861.389 1102.47,835.958 1102.47,835.958C1102.47,835.958 940.3,909.44 863.687,949.008C707.137,1029.86 629.234,1100.95 581.835,1167.94C535.776,1233.04 423.896,1121.11 404.865,1078.89C397.77,1063.16 381.248,1024.08 401.753,1014.23C427.286,1001.96 514.469,1018.66 564.31,1003.18C634.034,981.531 739.84,931.651 825.976,893.974C913.128,855.853 1087.19,784.811 1087.19,784.811C1087.19,784.811 1083.34,615.441 1082.47,539C1081.66,468.06 1083.49,389.269 1083.69,331.353C1083.87,278.047 986.771,212.28 999.063,189.417Z" style="stroke:black;stroke-width:1px;"/>
    <path d="M527.895,636.29C538.684,618.737 582.897,620.638 609.63,621.236C635.89,621.824 678.131,633.947 704.962,631.442C754.458,626.82 831.441,593.978 869.991,564.344C899.151,541.927 894.757,484.029 957.343,482.182C1002.88,480.837 1065.39,542.891 1065.12,572.62C1064.64,625.33 999.266,634.952 975.972,660.7C941.947,698.309 922.654,737.702 847.383,805.361C769.553,875.32 664.909,926.407 657.798,917.565C649.247,906.934 724.678,853.894 784.624,793.059C865.997,710.479 870.553,663.339 865.819,653.919C861.084,644.499 815.723,676.892 772.706,720.708C736.833,757.247 730.063,797.981 699.714,804.81C671.496,811.16 514.473,658.126 527.895,636.29Z" style="stroke:black;stroke-width:1px;"/>
</svg>
