<?xml version="1.0" encoding="UTF-8" standalone="no"?>
<!DOCTYPE svg PUBLIC "-//W3C//DTD SVG 1.1//EN" "http://www.w3.org/Graphics/SVG/1.1/DTD/svg11.dtd">
<svg width="100%" height="100%" viewBox="0 0 2048 2048" version="1.1" xmlns="http://www.w3.org/2000/svg" xmlns:xlink="http://www.w3.org/1999/xlink" xml:space="preserve" xmlns:serif="http://www.serif.com/" style="fill-rule:evenodd;clip-rule:evenodd;stroke-linecap:round;stroke-linejoin:round;stroke-miterlimit:1.5;">
    <path d="M1124.34,639.56C1153.12,624.612 1201.91,672.843 1230.03,699.393C1258.15,725.944 1285.09,773.334 1285.97,797.782C1286.62,815.891 1269.89,834.44 1250.85,833.901C1230.47,833.324 1193.6,794.123 1163.69,794.32C1127.65,794.556 1053.29,843.114 1050.33,893.772C1047.54,941.697 1050.42,1002.42 1050.88,1060.38C1051.47,1133.18 961.872,1325.81 961.872,1325.81C961.872,1325.81 1028.67,1327.41 1055.91,1339.11C1111.92,1363.18 1164.09,1410.09 1303.07,1409.27C1408.86,1408.64 1525.44,1358.02 1525.44,1358.02C1525.44,1358.02 1399.55,1500.57 1276.39,1517.71C1186.41,1530.24 1060.23,1375.07 992.457,1373.79C929.212,1372.59 902.237,1495.96 863.72,1495.62C835.785,1495.37 813.302,1453.45 813.643,1426.87C814.619,1350.89 892.077,1356.93 912.45,1319.62C943.148,1263.39 1002.82,1147.56 1003.71,1082.3C1004.59,1017.57 1003.26,951.506 1003.01,897.405C1002.51,790.666 1120.38,728.821 1148.9,691.818C1160.73,676.475 1113.05,645.419 1124.34,639.56Z" style="stroke:black;stroke-width:1px;"/>
</svg>
