<?xml version="1.0" encoding="UTF-8" standalone="no"?>
<!DOCTYPE svg PUBLIC "-//W3C//DTD SVG 1.1//EN" "http://www.w3.org/Graphics/SVG/1.1/DTD/svg11.dtd">
<svg width="100%" height="100%" viewBox="0 0 2048 2048" version="1.1" xmlns="http://www.w3.org/2000/svg" xmlns:xlink="http://www.w3.org/1999/xlink" xml:space="preserve" xmlns:serif="http://www.serif.com/" style="fill-rule:evenodd;clip-rule:evenodd;stroke-linecap:round;stroke-linejoin:round;stroke-miterlimit:1.5;">
    <path d="M772.313,985.25C772.313,985.25 936.289,1091.25 998.578,1161.62C1064.09,1235.63 1192.55,1378.62 1112.72,1440.17C1066.95,1475.45 1018.32,1432.23 976.882,1431C930.877,1429.64 838.015,1422.59 838.015,1422.59C838.015,1422.59 952.353,1370.01 956.969,1316.42C965.246,1220.31 772.313,985.25 772.313,985.25Z" style="stroke:black;stroke-width:1px;"/>
    <path d="M694.999,245.164C721.822,233.441 779.035,325.803 831.581,317.874C907.097,306.48 1039.76,238.2 1099.64,205.743C1142.72,182.398 1157.4,137.496 1230.41,133.75C1270.83,131.676 1358.16,161.954 1354.61,210.657C1351.9,247.835 1084.29,409.372 1081.47,532.515C1078.97,641.391 1387.25,660.523 1387.91,866.583C1388.42,1027.24 1057.02,1130.64 874.135,1276.8C731.722,1390.61 562.933,1599.52 560.969,1732.25C559.642,1821.9 622.094,1994.21 622.094,1994.21C622.094,1994.21 512.033,1869.82 511.416,1714.16C510.908,1585.88 676.712,1345.01 799.781,1245.29C981.311,1098.21 1205.52,977.995 1202.12,854.667C1198.52,723.65 1017.64,647.338 1009.89,550.848C1004.43,482.766 1156.04,261.048 1156.04,261.048C1156.04,261.048 1074.95,281.036 984.343,356.837C935.203,397.947 913.847,500.325 843.143,505.078C789.427,508.689 718.963,442.94 695.119,399.141C671.844,356.389 668.176,256.886 694.999,245.164Z" style="stroke:black;stroke-width:1px;"/>
    <g id="レイヤー1">
    </g>
</svg>
