<?xml version="1.0" encoding="UTF-8" standalone="no"?>
<!DOCTYPE svg PUBLIC "-//W3C//DTD SVG 1.1//EN" "http://www.w3.org/Graphics/SVG/1.1/DTD/svg11.dtd">
<svg width="100%" height="100%" viewBox="0 0 2048 2048" version="1.1" xmlns="http://www.w3.org/2000/svg" xmlns:xlink="http://www.w3.org/1999/xlink" xml:space="preserve" xmlns:serif="http://www.serif.com/" style="fill-rule:evenodd;clip-rule:evenodd;stroke-linecap:round;stroke-linejoin:round;stroke-miterlimit:1.5;">
    <g id="レイヤー1">
        <path d="M904.156,168.583C926.698,170.347 985.63,194.657 1017,214.974C1063,244.765 1159.79,299.67 1180.16,347.333C1190.43,371.379 1182.01,418.127 1171,432.275C1159.12,447.53 1128.83,455.239 1109.48,455.74C1092.19,456.188 1070.4,444.111 1058.03,445C1046.33,445.841 1026.67,471.193 1026.56,486.562C1025.77,594.082 1016.05,1068.12 1016.05,1068.12C1016.05,1068.12 1591.44,896.668 1594.59,914.422C1599.9,944.388 1015.94,1139.18 1015.94,1139.18C1015.94,1139.18 1019.18,1502.18 1018.65,1612.94C1018.47,1651.31 1072.2,1716.86 1073.2,1753.54C1074.18,1789.75 1069.41,1813.8 1065.33,1839.86C1061.16,1866.45 1015.89,1884.84 989.763,1884.77C963.905,1884.71 925.046,1806.38 925.391,1768.12C926.465,1648.92 944.167,1164.42 944.167,1164.42C944.167,1164.42 884.252,1186.21 863.427,1207.44C841.503,1229.79 838.837,1269.06 815.469,1285.27C792.101,1301.48 731.721,1307.25 705.143,1290.48C671.992,1269.57 627.097,1207.24 620.76,1160.58C614.424,1113.91 636.098,1033.23 664.458,1021.32C694.129,1008.87 727.17,1007.55 741.594,1021.08C758.364,1036.81 750.897,1065.61 766.98,1079.83C791.73,1101.71 943.469,1081.62 943.469,1081.62C943.469,1081.62 945.213,631.358 944.938,503.5C944.813,445.53 935.828,380.764 923.5,330.917C912.538,286.594 874.193,231.472 870.969,204.417C869.042,188.251 887.926,167.313 904.156,168.583Z" style="stroke:black;stroke-width:1px;"/>
    </g>
</svg>
