<?xml version="1.0" encoding="UTF-8" standalone="no"?>
<!DOCTYPE svg PUBLIC "-//W3C//DTD SVG 1.1//EN" "http://www.w3.org/Graphics/SVG/1.1/DTD/svg11.dtd">
<svg width="100%" height="100%" viewBox="0 0 2048 2048" version="1.1" xmlns="http://www.w3.org/2000/svg" xmlns:xlink="http://www.w3.org/1999/xlink" xml:space="preserve" xmlns:serif="http://www.serif.com/" style="fill-rule:evenodd;clip-rule:evenodd;stroke-linecap:round;stroke-linejoin:round;stroke-miterlimit:1.5;">
    <path d="M1122.47,649.042C1146.17,815.825 1487.3,864.227 1571.73,915.885C1642.4,959.124 1661.09,998.64 1658.91,1070.73C1656.41,1153.51 1606.59,1196.27 1539.65,1223.54C1453.59,1258.59 1365.58,1240.83 1187.16,1367.88C1102.14,1428.41 1026.02,1525.85 992.25,1612.92C932.141,1767.88 1022.49,1950.84 1001.3,1958.69C974.117,1968.76 927.682,1743.91 943.578,1588.14C957.246,1454.21 1020.39,1372.15 1141.16,1255.04C1256.19,1143.49 1449.18,1088.45 1446.21,1044.17C1438.62,931.412 1208.13,915.836 1099.62,785.465C1072.15,752.467 1059.41,699.268 1058.21,653.032C1056.1,572.103 1062.88,392.106 1065.82,329.431C1067.68,289.659 1032.95,253.548 992.975,253.689C930.551,253.91 859.758,348.45 851.813,396.208C845.974,431.304 841.396,476.264 844.156,502.667C846.143,521.672 860.205,534.73 858.616,565.202C857.229,591.79 834.781,620.659 810.638,620.467C777.527,620.203 690.16,560.381 678.789,521.201C667.301,481.62 664.566,422.449 678.5,414.417C696.334,404.136 712.326,440.916 729.063,438.833C753.427,435.801 832.254,206.101 977.172,200.128C1075.04,196.094 1122.95,287.097 1123.99,331.072C1125.62,399.947 1111.48,571.713 1122.47,649.042Z" style="stroke:black;stroke-width:1px;"/>
    <path d="M681.555,654.948C714.504,625.907 868.406,700.518 902.626,771.861C915.489,798.676 907.665,845.625 894.063,864.173C880.46,882.722 838.192,878.482 813.408,874.154C780.569,868.42 752.242,830.162 697.034,829.768C656.413,829.479 584.625,861.715 591.422,950.249C600.617,1070.02 737.098,1004.3 793.383,1075.15C828.849,1119.79 823.658,1200.84 817.336,1247.86C797.979,1391.83 546.511,1589.88 512.666,1545.58C499.802,1528.74 699.206,1408.65 690.177,1230.12C681.346,1055.5 535.207,1067.96 521.593,931.746C515.913,874.912 544.751,797.892 582.677,771.653C620.551,745.45 683.07,738.149 700.808,715.65C717.154,694.916 662.371,671.857 681.555,654.948Z" style="stroke:black;stroke-width:1px;"/>
    <path d="M409.692,1094.31C432.96,1075 455.476,1118.81 480.395,1125.14C526.39,1136.83 567.52,1080.19 575.181,1092.53C584.888,1108.15 560.49,1134.25 558.223,1154.73C554.777,1185.87 563.827,1228.98 533.052,1249.43C513.068,1262.71 458.52,1239.74 436.767,1214.14C415.014,1188.53 395.735,1105.89 409.692,1094.31Z" style="stroke:black;stroke-width:1px;"/>
</svg>
