<?xml version="1.0" encoding="UTF-8" standalone="no"?>
<!DOCTYPE svg PUBLIC "-//W3C//DTD SVG 1.1//EN" "http://www.w3.org/Graphics/SVG/1.1/DTD/svg11.dtd">
<svg width="100%" height="100%" viewBox="0 0 2048 2048" version="1.1" xmlns="http://www.w3.org/2000/svg" xmlns:xlink="http://www.w3.org/1999/xlink" xml:space="preserve" xmlns:serif="http://www.serif.com/" style="fill-rule:evenodd;clip-rule:evenodd;stroke-linecap:round;stroke-linejoin:round;stroke-miterlimit:1.5;">
    <path d="M955.041,628.437C967.834,624.933 1011.95,639.584 1037.09,653.672C1063.69,668.582 1110.53,697.688 1110.55,716.141C1110.57,733.602 1057.75,744.851 1057.44,767.571C1056.78,816.05 1053.9,955.968 1055.22,1007.47C1055.82,1030.89 1087.49,1061.17 1087.52,1081.5C1087.56,1103.12 1083.79,1125.03 1070.17,1128.5C1003.59,1145.43 997.993,1062.68 997.764,1031.09C997.611,1009.94 1008.76,1003.76 1009.26,988.38C1010.74,942.16 1010.88,803.31 1009.39,750.361C1007.86,695.777 976.015,696.122 964.541,677.219C955.92,663.017 942.248,631.942 955.041,628.437Z" style="stroke:black;stroke-width:1px;"/>
    <path d="M1024.86,850.732C1024.86,850.732 1296.59,860.218 1289.62,982.793C1283.85,1084.54 1126.95,1123.52 1036.43,1166.19C755.911,1298.41 757.119,1520.48 757.119,1520.48C757.119,1520.48 729.038,1317.72 903.481,1195.81C999.352,1128.81 1194.14,1052.64 1193.2,970.642C1192.23,886.366 1024.86,850.732 1024.86,850.732Z" style="stroke:black;stroke-width:1px;"/>
</svg>
