<?xml version="1.0" encoding="UTF-8" standalone="no"?>
<!DOCTYPE svg PUBLIC "-//W3C//DTD SVG 1.1//EN" "http://www.w3.org/Graphics/SVG/1.1/DTD/svg11.dtd">
<svg width="100%" height="100%" viewBox="0 0 2048 2048" version="1.1" xmlns="http://www.w3.org/2000/svg" xmlns:xlink="http://www.w3.org/1999/xlink" xml:space="preserve" xmlns:serif="http://www.serif.com/" style="fill-rule:evenodd;clip-rule:evenodd;stroke-linecap:round;stroke-linejoin:round;stroke-miterlimit:1.5;">
    <g id="レイヤー1">
        <path d="M1036.58,143.551C1073.45,120.256 1197.64,165.235 1234.41,195.394C1254.65,211.997 1255.11,267.345 1237.5,289.135C1211.77,320.958 1128.89,382.526 1057.58,445.963C988.514,507.403 930.546,571.261 930.546,571.261C930.546,571.261 1048.35,570.776 1132.71,656.085C1180.07,703.976 1201.66,870.72 1201.66,870.72C1201.66,870.72 1291.45,819.688 1289.12,786.334C1287.29,760.087 1235.21,717.074 1248.95,704.038C1267.2,686.712 1357.85,711.442 1390.46,734.933C1422.98,758.361 1454.54,827.837 1428.67,864.814C1418.72,879.026 1384.95,880.685 1355.35,898.467C1291.67,936.712 1208.68,992.398 1208.68,992.398C1208.68,992.398 1185.81,1193.93 1192.81,1323.28C1197.2,1404.37 1299.49,1616.37 1518.73,1653.48C1671.42,1679.32 1851.84,1518.75 1867.32,1540.8C1884.34,1565.06 1647.97,1796.7 1396.11,1769.76C1257.45,1754.93 1052.84,1552.33 1053.62,1351.47C1054.01,1249.93 1090.79,1044.22 1090.79,1044.22C1090.79,1044.22 1032.39,1078.87 1001.82,1094.22C970.878,1109.76 905.151,1137.46 905.151,1137.46C905.151,1137.46 809.717,1304.21 715.691,1398.59C561.963,1552.89 399.439,1583.13 399.439,1583.13C399.439,1583.13 532.366,1482.41 606.776,1409.67C686.664,1331.57 768.113,1183 768.113,1183C768.113,1183 695.99,1193.8 647.142,1173.12C594.797,1150.97 611.27,1058.52 626.755,1013.51C655.808,929.072 816.355,805.306 872.035,805.41C917.957,805.496 944.241,864.241 946.077,897.083C948.606,942.318 924.808,1051.54 924.808,1051.54C924.808,1051.54 995.917,1021.51 1023.08,1004.24C1051.83,985.953 1110.37,940.011 1110.37,940.011C1110.37,940.011 1113.55,854.614 1112.61,813.965C1111.37,760.144 1058.25,659.695 945.269,662.384C846.502,664.735 808.212,794.242 732.173,805.919C694.577,811.692 705.861,722.324 718.725,690.015C737.82,642.061 803.212,624.205 840.212,585.48C898.658,524.31 1030.79,378.748 1069.4,322.993C1083.09,303.24 1078.17,267.294 1071.92,250.95C1066.24,236.092 1043.14,239.943 1038.17,224.834C1032.28,206.934 1013.61,158.062 1036.58,143.551ZM814.331,898.083C849.588,898.325 839.937,1001.76 821.524,1051.39C800.295,1108.61 749.315,1135.63 704.488,1130.84C647.09,1124.71 665.081,1048.66 708.689,985.81C742.204,937.503 795.162,897.951 814.331,898.083Z" style="stroke:black;stroke-width:1px;"/>
    </g>
</svg>
