<?xml version="1.0" encoding="UTF-8" standalone="no"?>
<!DOCTYPE svg PUBLIC "-//W3C//DTD SVG 1.1//EN" "http://www.w3.org/Graphics/SVG/1.1/DTD/svg11.dtd">
<svg width="100%" height="100%" viewBox="0 0 2048 2048" version="1.1" xmlns="http://www.w3.org/2000/svg" xmlns:xlink="http://www.w3.org/1999/xlink" xml:space="preserve" xmlns:serif="http://www.serif.com/" style="fill-rule:evenodd;clip-rule:evenodd;stroke-linecap:round;stroke-linejoin:round;stroke-miterlimit:1.5;">
    <path d="M376.918,1283.38C384.281,1206.83 489.776,1228.49 521.869,1210.46C540.015,1200.27 568.829,1172.81 579.64,1173.31C590.451,1173.81 585.132,1204.07 599.04,1202.41C643.672,1197.1 755.459,1180.99 832.103,1162.63C929.221,1139.37 1181.75,1062.85 1181.75,1062.85C1181.75,1062.85 917.087,1179.98 818.623,1220.3C750.137,1248.35 648.722,1288.27 594.916,1315.4C558.319,1333.85 533.871,1376.38 497.687,1382.53C461.483,1388.68 374.239,1311.21 376.918,1283.38Z" style="stroke:black;stroke-width:1px;"/>
    <path d="M1174.7,167.884C1188.58,163.329 1256.02,211.269 1281.43,239.564C1304.86,265.662 1330.79,300.68 1324.7,335.66C1316.68,381.733 1268.39,368.876 1198.43,454.096C1169.25,489.646 1094.01,556.191 1094.01,556.191C1094.01,556.191 1153.34,632.437 1134.81,816.75C1122.1,943.188 1074.15,1157.12 1076.12,1323.75C1078.88,1556.09 1213.21,1691.32 1363.22,1708.46C1486.5,1722.55 1759.4,1559.51 1777.22,1574.26C1796.33,1590.07 1576.98,1813.48 1329.56,1843.12C1138.09,1866.07 947.579,1656.99 928.844,1495.21C909.902,1331.64 965.648,1058.36 996.625,912.958C1049.66,664.001 1031.91,609.167 1031.91,609.167C1031.91,609.167 933.79,664.263 870.344,680.958C792.492,701.444 634.855,717.186 642.406,638.625C653.568,522.503 806.69,435.908 904.868,436.845C979.973,437.561 1050.56,509.819 1050.56,509.819C1050.56,509.819 1092.56,468.51 1113.69,445.208C1145.04,410.632 1177.51,347.943 1178.88,314.625C1180.2,282.363 1161.26,259.228 1160.6,235.995C1159.91,211.539 1156.53,173.847 1174.7,167.884ZM1008.87,552.914C1008.87,552.914 938.068,606.001 862.299,624.461C806.483,638.059 723.307,646.65 716.545,617.908C712.146,599.214 763.439,516.376 850.284,504.825C983.115,487.158 1008.87,552.914 1008.87,552.914Z" style="stroke:black;stroke-width:1px;"/>
    <path d="M538.909,817.739C553.002,816.337 556.186,875.566 580.245,878.963C610.675,883.259 693.503,857.743 738.622,839.84C820.36,807.404 851.359,760.277 893.485,760.345C935.611,760.413 971.818,835.078 971.773,854.891C971.718,879.357 925.646,877.129 902.833,897.888C872.618,925.384 824.808,970.233 784.783,1007.96C743.512,1046.85 655.21,1131.26 655.21,1131.26C655.21,1131.26 704.46,1044.32 728.016,1005.54C754.121,962.558 795.575,911.569 776.673,885.389C762.28,865.456 708.357,921.822 683.239,949.183C659.928,974.577 644.71,1010.36 618.898,1013.04C593.087,1015.71 554.963,983.102 532.739,962.933C511.807,943.938 493.835,911.882 494.863,887.683C495.892,863.484 524.816,819.14 538.909,817.739Z" style="stroke:black;stroke-width:1px;"/>
    <g id="レイヤー1">
    </g>
</svg>
