<?xml version="1.0" encoding="UTF-8" standalone="no"?>
<!DOCTYPE svg PUBLIC "-//W3C//DTD SVG 1.1//EN" "http://www.w3.org/Graphics/SVG/1.1/DTD/svg11.dtd">
<svg width="100%" height="100%" viewBox="0 0 2048 2048" version="1.1" xmlns="http://www.w3.org/2000/svg" xmlns:xlink="http://www.w3.org/1999/xlink" xml:space="preserve" xmlns:serif="http://www.serif.com/" style="fill-rule:evenodd;clip-rule:evenodd;stroke-linecap:round;stroke-linejoin:round;stroke-miterlimit:1.5;">
    <g id="レイヤー1">
        <path d="M883.56,184.856C888.822,166.742 985.586,168.864 1027.36,190.937C1077.99,217.694 1169.59,298.062 1182.2,341.167C1191.5,372.986 1162.31,408.797 1140.36,418.264C1114.86,429.258 1093.93,411.578 1064.2,417.246C1029.59,423.844 978.803,463.225 948.145,470.844C929.26,475.537 892.802,476.42 887.27,455.656C879.195,425.345 964.383,329.443 966.563,283.542C969.653,218.446 871.414,226.672 883.56,184.856Z" style="stroke:black;stroke-width:1px;"/>
        <path d="M1202.15,470.746C1234.24,480.964 1326.31,515.108 1322.16,566.014C1316.2,639.055 1045.2,693.239 1047.98,803.791C1050.38,899.237 1317.19,860.753 1312.25,1043.35C1307.99,1200.53 960.571,1333.58 960.571,1333.58C960.571,1333.58 1011.48,1460.53 1082.25,1448.81C1134.98,1440.07 1267.04,1365.68 1388.66,1288.59C1539.33,1193.1 1679.75,1091.85 1684.9,1099.8C1700.88,1124.48 1596.07,1239.14 1456.54,1339.64C1344.93,1420.03 1258.11,1432.31 1168.07,1548.61C1143.22,1580.7 1153.11,1643.02 1082.22,1654.65C1044.49,1660.84 962.292,1552.13 949.3,1506.3C941.98,1480.48 920.356,1351.91 920.356,1351.91C920.356,1351.91 771.46,1430.27 710.376,1485.91C649.293,1541.57 572.208,1597.86 559.714,1694.25C542.942,1823.64 575.799,1907.24 557.686,1915.86C538.206,1925.12 502.702,1802.44 500.965,1747.97C496.539,1609.17 569.464,1511.04 646.584,1421.87C751.695,1300.34 1131.01,1141.66 1131.63,1018.82C1132.08,929.622 978.436,881.196 972.041,812.723C965.646,744.25 1105.08,598.349 1105.08,598.349C1105.08,598.349 1027.24,630.327 902.12,708.517C880.136,722.255 878.865,778.63 839.572,784.821C810.723,789.366 744.732,739.252 723.922,709.615C704.599,682.096 704.447,620.347 724.621,607.692C744.795,595.036 747.044,651.184 844.968,633.681C914.766,621.206 1075.8,551.956 1122.43,520.8C1136.91,511.131 1138.78,490.258 1150.12,481.626C1161.5,472.963 1183.7,464.873 1202.15,470.746Z" style="stroke:black;stroke-width:1px;"/>
    </g>
</svg>
