<?xml version="1.0" encoding="UTF-8" standalone="no"?>
<!DOCTYPE svg PUBLIC "-//W3C//DTD SVG 1.1//EN" "http://www.w3.org/Graphics/SVG/1.1/DTD/svg11.dtd">
<svg width="100%" height="100%" viewBox="0 0 2048 2048" version="1.1" xmlns="http://www.w3.org/2000/svg" xmlns:xlink="http://www.w3.org/1999/xlink" xml:space="preserve" xmlns:serif="http://www.serif.com/" style="fill-rule:evenodd;clip-rule:evenodd;stroke-linecap:round;stroke-linejoin:round;stroke-miterlimit:1.5;">
    <path d="M1056.94,567.882C1056.94,567.882 1078.95,759.434 1129.28,814.478C1242.12,937.899 1288.67,908.413 1339.3,915.067C1363.73,918.278 1392.34,946.983 1391.78,968.991C1390.29,1027.09 1290.22,1021.73 1266.87,1053.26C1197.79,1146.52 1183.93,1253.9 1137.4,1371.03C1032.93,1634.04 917.29,1719.18 781.116,1801.17C625.2,1895.05 321.271,1864.49 321.271,1864.49C321.271,1864.49 512.62,1844.01 640.571,1768.18C897.92,1615.65 930.978,1474.93 930.978,1474.93C930.978,1474.93 842.262,1470.97 798.893,1444.49C759.77,1420.6 737.326,1347.23 738.366,1295.93C740.769,1177.39 930.216,998.985 1033.37,999.737C1087.96,1000.13 1167.95,1088.81 1167.95,1088.81L1199.99,1028.02C1199.99,1028.02 1099.3,913.832 1067.05,850.531C1014.25,746.878 1001.15,596.102 1001.15,596.102L1056.94,567.882ZM989.917,1086.95C1035.89,1088.23 1055.81,1127.57 1052.99,1169.04C1048.24,1238.88 999.057,1367.96 904.08,1366.12C851.822,1365.1 845.115,1319.48 846.202,1286.75C850.212,1165.93 950.275,1085.85 989.917,1086.95Z" style="stroke:black;stroke-width:1px;"/>
    <path d="M1322.43,733.029C1317.97,627.382 1437.22,568.637 1511.69,571.9C1571.68,574.528 1668.5,593.125 1672.72,716.292C1675.22,789.308 1598.82,873.707 1536.03,876.862C1513.27,878.006 1462.1,873.467 1461.15,860.961C1460.27,849.238 1492.26,816.297 1516.5,809.083C1548.1,799.676 1592.6,737.745 1592.44,710.25C1592.12,655.977 1555.36,633.308 1499.23,632.656C1466.41,632.275 1397.35,657.945 1396.38,691.542C1395.35,726.928 1440.22,738.055 1448.98,763.776C1457.74,789.497 1474.37,826.582 1448.93,845.865C1430.37,859.935 1324.2,774.988 1322.43,733.029Z" style="stroke:black;stroke-width:1px;"/>
    <path d="M1181.21,196.849C1201.92,187.024 1291.94,290.756 1331.78,339.765C1366.82,382.862 1437.53,456.615 1421.5,489.863C1394.68,545.477 1286.97,495.646 1240.8,516.615C1168.37,549.513 1011.53,661.036 926.052,719.16C639.727,913.862 532.131,873.936 532.131,873.936C532.131,873.936 753.928,758.13 894.215,641.496C1004,550.225 1141.41,413.132 1191.96,347.587C1217.33,314.698 1164.16,204.94 1181.21,196.849Z" style="stroke:black;stroke-width:1px;"/>
    <g id="レイヤー1">
    </g>
</svg>
