<?xml version="1.0" encoding="UTF-8" standalone="no"?>
<!DOCTYPE svg PUBLIC "-//W3C//DTD SVG 1.1//EN" "http://www.w3.org/Graphics/SVG/1.1/DTD/svg11.dtd">
<svg width="100%" height="100%" viewBox="0 0 2048 2048" version="1.1" xmlns="http://www.w3.org/2000/svg" xmlns:xlink="http://www.w3.org/1999/xlink" xml:space="preserve" xmlns:serif="http://www.serif.com/" style="fill-rule:evenodd;clip-rule:evenodd;stroke-linecap:round;stroke-linejoin:round;stroke-miterlimit:1.5;">
    <path d="M803.557,761.554C799.673,744.523 867.488,783.484 895.483,775.794C941.083,763.267 1018.24,726.718 1055.19,703.48C1073.28,692.106 1070.12,641.938 1117.23,636.364C1153.65,632.054 1208.94,654.085 1209.78,707.847C1210.25,738.016 1155.19,775.284 1153.11,824.444C1149.83,901.857 1149.93,1050 1161.56,1174.08C1173.44,1300.91 1506.41,1502.21 1506.41,1502.21C1506.41,1502.21 1120.02,1377.47 1111.68,1159.41C1103.7,950.653 1098.36,726.423 1098.36,726.423C1098.36,726.423 989.334,787.196 958.518,811.629C945.202,822.186 918.451,874.071 900.392,873.995C856.623,873.81 807.442,778.585 803.557,761.554Z" style="stroke:black;stroke-width:1px;"/>
    <path d="M1040.16,965.327C1061.8,968.626 1139.54,1023.44 1141.13,1047.51C1142.81,1073.2 1098.64,1097.53 1071.53,1101.65C1005.76,1111.64 855.486,1274.82 856.891,1306.52C858.606,1345.21 863.346,1374.53 883.829,1374.4C905.064,1374.25 983.698,1337.01 983.698,1337.01C983.698,1337.01 918.125,1400.08 902.45,1435.56C888.259,1467.68 857.358,1507.12 831.502,1508.19C808.086,1509.16 769.809,1448.82 770.682,1414.18C774.181,1275.32 977.076,1087.38 1032.54,1017.59C1042.35,1005.25 1024.59,962.952 1040.16,965.327Z" style="stroke:black;stroke-width:1px;"/>
</svg>
