<?xml version="1.0" encoding="UTF-8" standalone="no"?>
<!DOCTYPE svg PUBLIC "-//W3C//DTD SVG 1.1//EN" "http://www.w3.org/Graphics/SVG/1.1/DTD/svg11.dtd">
<svg width="100%" height="100%" viewBox="0 0 2048 2048" version="1.1" xmlns="http://www.w3.org/2000/svg" xmlns:xlink="http://www.w3.org/1999/xlink" xml:space="preserve" xmlns:serif="http://www.serif.com/" style="fill-rule:evenodd;clip-rule:evenodd;stroke-linecap:round;stroke-linejoin:round;stroke-miterlimit:1.5;">
    <g transform="matrix(1,0,0,1,-20.4225,-22.1355)">
        <path d="M1195.51,815.977C1210.51,792.634 1310.29,821.712 1346.19,850.318C1375.27,873.483 1390.5,924.325 1383.7,947.975C1373.64,983.011 1332.19,983.896 1310.62,1000.73C1251.08,1047.2 1158.18,1101.45 1081.9,1144.45C1009.31,1185.37 852.965,1255.52 852.965,1255.52C852.965,1255.52 719.007,1456.31 637.276,1539.12C473.568,1704.98 336.53,1678.34 336.53,1678.34C336.53,1678.34 473.159,1593.62 536.033,1526.21C610.704,1446.16 717.049,1300.09 717.049,1300.09C717.049,1300.09 606.156,1328.23 579.565,1296.39C549.496,1260.4 557.761,1182.54 578.28,1131.57C607.198,1059.74 737.374,921.404 800.256,918.112C841.352,915.961 876.954,967.985 884.389,1008.46C892.13,1050.6 865.833,1179.12 865.833,1179.12C865.833,1179.12 1022.79,1094.63 1083.1,1048.73C1139.82,1005.56 1211.04,938.74 1229.77,899.948C1242.64,873.301 1184.51,833.093 1195.51,815.977ZM752.31,1001.03C830.313,990.512 749.727,1224.36 749.727,1224.36C749.727,1224.36 683.128,1261.49 647.332,1260.84C625.916,1260.45 601.277,1236.24 602.45,1214.85C608.566,1103.27 719.301,1005.49 752.31,1001.03Z" style="stroke:black;stroke-width:1px;"/>
    </g>
    <g transform="matrix(1,0,0,1,-20.4225,-22.1355)">
        <path d="M982.344,222.792C1027.04,212.008 1091.47,230.75 1129.84,247.66C1161.07,261.424 1201.47,294.937 1201.78,329.57C1202.15,372.391 1064.96,455.419 1013.24,507.884C957.784,564.143 867.503,673.393 867.503,673.393C867.503,673.393 1050.97,660.784 1118.25,814.958C1169.55,932.494 1143.72,1154.55 1138.59,1266.58C1123.75,1590.09 1320.63,1751.12 1477.93,1746.78C1722.32,1740.04 1792.27,1647.45 1792.27,1647.45C1792.27,1647.45 1630.85,1876.68 1436,1883.43C1238.53,1890.28 984.3,1768.09 995,1453.83C1000.02,1306.31 1052.33,1125.73 1054.69,1015.04C1059.27,799.48 946.944,760.063 890.795,756.894C824.258,753.138 773.224,808.736 762.829,837.953C753.771,863.414 711.444,913.91 689.875,914.75C667.377,915.626 650.279,884.218 647.811,860.094C645.295,835.511 665.234,788.885 683.682,765.272C702.13,741.659 743.215,726.419 764.041,705.629C800.349,669.382 859.648,603.598 901.531,547.792C944.821,490.11 1019.73,401.388 1023.78,359.542C1026.68,329.569 987.938,302.75 981.031,279.958C975.504,261.717 963.815,227.263 982.344,222.792Z" style="stroke:black;stroke-width:1px;"/>
    </g>
    <g transform="matrix(1,0,0,1,-92.887,-166.714)">
        <path d="M1322.43,733.029C1317.97,627.382 1437.22,568.637 1511.69,571.9C1571.68,574.528 1668.5,593.125 1672.72,716.292C1675.22,789.308 1598.82,873.707 1536.03,876.862C1513.27,878.006 1462.1,873.467 1461.15,860.961C1460.27,849.238 1492.26,816.297 1516.5,809.083C1548.1,799.676 1592.6,737.745 1592.44,710.25C1592.12,655.977 1555.36,633.308 1499.23,632.656C1466.41,632.275 1397.35,657.945 1396.38,691.542C1395.35,726.928 1440.22,738.055 1448.98,763.776C1457.74,789.497 1474.37,826.582 1448.93,845.865C1430.37,859.935 1324.2,774.988 1322.43,733.029Z" style="stroke:black;stroke-width:1px;"/>
    </g>
    <g id="レイヤー1">
    </g>
</svg>
