<?xml version="1.0" encoding="UTF-8" standalone="no"?>
<!DOCTYPE svg PUBLIC "-//W3C//DTD SVG 1.1//EN" "http://www.w3.org/Graphics/SVG/1.1/DTD/svg11.dtd">
<svg width="100%" height="100%" viewBox="0 0 2048 2048" version="1.1" xmlns="http://www.w3.org/2000/svg" xmlns:xlink="http://www.w3.org/1999/xlink" xml:space="preserve" xmlns:serif="http://www.serif.com/" style="fill-rule:evenodd;clip-rule:evenodd;stroke-linecap:round;stroke-linejoin:round;stroke-miterlimit:1.5;">
    <path d="M626.123,916.629C626.123,916.629 603.448,1006.89 594.13,1045.35C585.987,1078.95 570.212,1147.36 570.212,1147.36C570.212,1147.36 642.909,1115.45 684.566,1090.55C734.314,1060.8 816.605,973.302 872.007,971.725C927.41,970.148 1015.67,1020.93 1015.19,1076C1014.93,1106.67 954.37,1137.17 931.125,1138.26C906.479,1139.41 871.092,1126.26 848.674,1127.04C795.114,1128.91 600.112,1209.86 548.129,1246.11C530.077,1258.7 510.256,1285.16 493.116,1286.51C475.977,1287.85 444.026,1265.89 443.556,1245.28C442.247,1187.92 487.213,1181.29 504.414,1148.58C523.447,1112.39 626.123,916.629 626.123,916.629Z" style="stroke:black;stroke-width:1px;"/>
    <path d="M635.086,650.704C679.093,620.885 757.206,670.283 796.675,689.048C828.491,704.174 870.45,739.275 870.844,770.082C871.179,796.354 835.754,819.942 831.663,849.037C821.46,921.613 795.513,1121.15 749.482,1227.99C698.758,1345.72 527.322,1555.43 527.322,1555.43C527.322,1555.43 681.098,1285.81 711.501,1171.51C735.937,1079.65 734.443,955.332 731.161,881.272C728.931,830.929 648.892,766.728 632.937,729.539C623.588,707.749 615.458,664.005 635.086,650.704Z" style="stroke:black;stroke-width:1px;"/>
    <path d="M896.551,191.512C906.467,187.315 935.676,216.738 956.475,227.081C995.998,246.737 1083.19,285.547 1126.12,315.258C1160.83,339.282 1212.03,388.767 1211.08,417.39C1210.17,444.871 1159.36,459.776 1139.92,486.536C1106.87,532.023 1086.76,612.11 1085.48,703.177C1082.45,919.729 1082.3,1591.08 1086.36,1784.87C1086.95,1812.99 1108.56,1837.81 1109.88,1865.91C1111.24,1894.58 1111.24,1956.96 1088.45,1956.61C1065.02,1956.24 987.881,1888.44 984.717,1826.81C982.907,1791.57 1012.44,1741.87 1013.52,1706.59C1020.01,1496.16 1025.3,779.282 1023.62,564.198C1022.14,374.346 920.597,323.04 896.105,263.966C888.35,245.259 886.634,195.708 896.551,191.512Z" style="stroke:black;stroke-width:1px;"/>
    <path d="M1426.09,682.825C1450.9,668.813 1554.11,723.713 1608.26,764.874C1647.35,794.587 1676.42,842.395 1673.61,878.44C1669.31,933.578 1572.91,939.64 1521.98,969.255C1416.41,1030.64 1332.24,1116.01 1227.48,1177.52C950.721,1340.02 786.755,1353.66 786.755,1353.66C786.755,1353.66 1043.96,1222.02 1164.18,1130.05C1279.52,1041.82 1450.96,884.978 1452.68,791.76C1453.37,754.389 1403.97,695.322 1426.09,682.825Z" style="stroke:black;stroke-width:1px;"/>
    <path d="M1291.69,439.333C1309.83,427.36 1351,500.568 1388.91,498.625C1432.26,496.403 1507.52,430.246 1558.48,430.19C1614.52,430.13 1678.23,526.852 1676.09,577.518C1674.46,616.089 1624.44,664.386 1593.56,663.875C1558.21,663.29 1501.36,652.106 1501.89,632.136C1502.48,610.01 1580.92,570.922 1581.03,544.667C1581.13,521.824 1556.09,496.695 1529.84,497.958C1476.52,500.525 1400.73,607.007 1376.22,606.875C1319.59,606.57 1276.53,449.34 1291.69,439.333Z" style="stroke:black;stroke-width:1px;"/>
    <g id="レイヤー1">
    </g>
</svg>
