<?xml version="1.0" encoding="UTF-8" standalone="no"?>
<!DOCTYPE svg PUBLIC "-//W3C//DTD SVG 1.1//EN" "http://www.w3.org/Graphics/SVG/1.1/DTD/svg11.dtd">
<svg width="100%" height="100%" viewBox="0 0 2048 2048" version="1.1" xmlns="http://www.w3.org/2000/svg" xmlns:xlink="http://www.w3.org/1999/xlink" xml:space="preserve" xmlns:serif="http://www.serif.com/" style="fill-rule:evenodd;clip-rule:evenodd;stroke-linecap:round;stroke-linejoin:round;stroke-miterlimit:1.5;">
    <path d="M843.603,685.093C848.263,670.864 934.797,692.418 966.919,710.913C998.654,729.186 1036.48,772.1 1036.33,796.064C1036.19,820.232 970.781,832.102 969.788,858.762C968.104,903.995 965.799,1010.81 965.954,1064.69C966.049,1097.56 1020.53,1151.14 1020.53,1151.14L978.111,1225.92C978.111,1225.92 906.692,1173.76 906.202,1141.96C905.055,1067.52 917.257,872.788 915.411,795.943C914.353,751.934 836.27,707.483 843.603,685.093Z" style="stroke:black;stroke-width:1px;"/>
    <path d="M1116.87,949.416C1132.43,939.263 1184.5,954.801 1204.9,969.992C1225.29,985.183 1239.67,1020.24 1239.24,1040.56C1238.8,1061.59 1216.45,1084.72 1203.2,1085.78C1185.98,1087.16 1166.24,1073.49 1145.36,1074.06C1097.23,1075.38 1010.89,1189.28 995.347,1286.35C977.365,1398.66 1032.48,1470.95 1112.79,1479.72C1164.84,1485.4 1282.44,1468.49 1282.44,1468.49C1282.44,1468.49 1188.37,1537.65 1131.2,1533.86C991.381,1524.6 937.835,1388.62 940.603,1299.7C946.629,1106.16 1058.74,1047.7 1097.72,999.705C1108.44,986.507 1104.11,957.741 1116.87,949.416Z" style="stroke:black;stroke-width:1px;"/>
</svg>
