<?xml version="1.0" encoding="UTF-8" standalone="no"?>
<!DOCTYPE svg PUBLIC "-//W3C//DTD SVG 1.1//EN" "http://www.w3.org/Graphics/SVG/1.1/DTD/svg11.dtd">
<svg width="100%" height="100%" viewBox="0 0 2048 2048" version="1.1" xmlns="http://www.w3.org/2000/svg" xmlns:xlink="http://www.w3.org/1999/xlink" xml:space="preserve" xmlns:serif="http://www.serif.com/" style="fill-rule:evenodd;clip-rule:evenodd;stroke-linecap:round;stroke-linejoin:round;stroke-miterlimit:1.5;">
    <path d="M783.86,302.832C783.86,302.832 1004.03,378.777 1062.49,413.348C1096.2,433.286 1135.48,470.005 1134.58,510.256C1132.55,601.663 787.379,586.32 790.597,723.142C791.367,755.869 818.117,757.919 840.976,756.758C886.477,754.446 978.521,699.524 1038.13,704.097C1094.23,708.401 1188.77,769.33 1190.9,835.713C1194.53,949.216 980.076,1020.97 886.579,1089.08C768.889,1174.82 684.883,1310.74 684.883,1310.74C684.883,1310.74 805.376,1236.07 869.48,1235.47C1105.19,1233.26 1122.43,1594.29 1401.13,1596.46C1632,1598.25 1720.75,1468.22 1720.75,1468.22C1720.75,1468.22 1511.27,1769.74 1296.53,1763.92C1062.9,1757.58 1016.82,1313.09 855.792,1314.7C626.966,1317 617.409,1662.74 547.199,1729.46C511.626,1763.27 479.526,1643.98 476.578,1600.14C468.06,1473.48 759.783,1112.63 942.208,960.675C1006.44,907.171 1036.44,873.41 1034.51,843.261C1029.34,762.851 929.926,799.721 873.055,799.257C815.198,798.785 727.532,764.547 729.253,695.63C731.47,606.907 916.185,518.447 916.827,462.633C917.6,395.558 783.86,302.832 783.86,302.832Z" style="stroke:black;stroke-width:1px;"/>
    <path d="M536.084,883.107C562.814,875.329 577.833,947.376 609.775,944.834C654.978,941.236 808.351,864.1 808.351,864.1C808.351,864.1 718.345,967.26 698.322,1013.44C681.66,1051.87 702.172,1133.73 678.162,1144.94C654.153,1156.16 564.909,1116.21 542.724,1075.33C519.044,1031.69 497.434,894.354 536.084,883.107Z" style="stroke:black;stroke-width:1px;"/>
    <path d="M1148.78,1086.32C1166.28,1079.62 1202.3,1143.36 1237.56,1143.83C1296.67,1144.62 1343.33,1080.56 1390.19,1081.79C1440.05,1083.11 1505.22,1147.11 1503.35,1195.6C1501.55,1242.07 1448.81,1296 1419.28,1297.04C1383.68,1298.3 1340.29,1286 1340,1263.15C1339.7,1240.07 1408.14,1231.05 1409.72,1190.42C1410.77,1163.29 1400.78,1143.16 1371.86,1143.32C1314.79,1143.65 1260.55,1244.07 1228.08,1244.56C1179.96,1245.28 1132.66,1092.48 1148.78,1086.32Z" style="stroke:black;stroke-width:1px;"/>
    <g id="レイヤー1">
    </g>
</svg>
