<?xml version="1.0" encoding="UTF-8" standalone="no"?>
<!DOCTYPE svg PUBLIC "-//W3C//DTD SVG 1.1//EN" "http://www.w3.org/Graphics/SVG/1.1/DTD/svg11.dtd">
<svg width="100%" height="100%" viewBox="0 0 2048 2048" version="1.1" xmlns="http://www.w3.org/2000/svg" xmlns:xlink="http://www.w3.org/1999/xlink" xml:space="preserve" xmlns:serif="http://www.serif.com/" style="fill-rule:evenodd;clip-rule:evenodd;stroke-linecap:round;stroke-linejoin:round;stroke-miterlimit:1.5;">
    <path d="M658.688,905.458C676.568,905.547 697.963,933.468 703.924,955.981C710.643,981.356 708.172,1020.93 680.934,1047.21C659.246,1068.14 547.323,1089.19 515.215,1055.3C483.108,1021.41 469.738,914.182 506.844,861.042C549.365,800.144 659.507,688.11 770.344,689.917C824.113,690.793 875.35,751.149 877.656,803.083C880.487,866.841 782.852,994.344 731.188,1058.1C689.017,1110.13 577.663,1214.38 577.663,1214.38C577.663,1214.38 712.768,1178.14 761.563,1158.5C799.798,1143.11 824.515,1106.81 875.004,1108.6C931.184,1110.6 965.523,1132.74 966.094,1149.88C967.145,1181.44 909.167,1194.89 875.897,1196.48C842.883,1198.07 803.993,1192.17 769.375,1200.17C724.637,1210.5 646.255,1234.93 600.927,1262.2C557.413,1288.38 518.92,1361.51 484.625,1363.39C450.33,1365.27 389.391,1305.52 394.313,1272.69C399.551,1237.75 501.981,1217.62 560.156,1165.33C597.601,1131.68 666.644,1067.76 720.138,1002.08C763.477,948.869 822.391,853.041 822.375,814.958C822.356,769.963 790.539,751.572 751.417,751.631C722.063,751.676 671.062,780.632 643.93,802.721C619.692,822.454 587.129,859.991 585.925,883.625C584.668,908.319 591.114,939.589 608.938,940.333C626.494,941.067 642.143,905.376 658.688,905.458Z" style="stroke:black;stroke-width:1px;"/>
    <path d="M1395.96,706.323C1420.72,683.471 1516.86,723.836 1565.75,771.625C1597.97,803.125 1642.38,848.47 1643.62,881.875C1646.74,965.734 1525.17,950.827 1482.43,973.756C1418.44,1008.09 1326.79,1104.45 1256.91,1150.76C1158.76,1215.8 896.813,1334.83 896.813,1334.83C896.813,1334.83 1093.85,1181.03 1191.47,1097.47C1286.78,1015.89 1379.76,924.048 1421.97,818.988C1434.37,788.141 1378.65,722.306 1395.96,706.323Z" style="stroke:black;stroke-width:1px;"/>
    <path d="M858.003,131.061C882.134,113.477 991.298,168.333 1066.06,215.147C1126.72,253.134 1191.51,288.177 1187.93,345.45C1183.84,410.946 1117.82,389.128 1102.53,419.85C1081.19,462.741 1050.92,547.856 1048.59,642.688C1043.67,842.977 1044.66,1510.52 1047.24,1700.83C1047.62,1728.83 1078.22,1764.32 1076.12,1810.71C1074.94,1836.85 1081.21,1884.02 1059.38,1887.42C1038.54,1890.65 960.537,1837.75 955.989,1802.67C952.387,1774.89 950.295,1729.86 952.382,1706.37C953.967,1688.5 976.021,1657.4 976.516,1638.99C982.349,1422.33 994.48,631.681 987.375,406.458C986.049,364.413 948.455,327.919 928.765,291.24C904.779,246.559 834.814,147.958 858.003,131.061Z" style="stroke:black;stroke-width:1px;"/>
    <g id="レイヤー1">
    </g>
</svg>
