<?xml version="1.0" encoding="UTF-8" standalone="no"?>
<!DOCTYPE svg PUBLIC "-//W3C//DTD SVG 1.1//EN" "http://www.w3.org/Graphics/SVG/1.1/DTD/svg11.dtd">
<svg width="100%" height="100%" viewBox="0 0 2048 2048" version="1.1" xmlns="http://www.w3.org/2000/svg" xmlns:xlink="http://www.w3.org/1999/xlink" xml:space="preserve" xmlns:serif="http://www.serif.com/" style="fill-rule:evenodd;clip-rule:evenodd;stroke-linecap:round;stroke-linejoin:round;stroke-miterlimit:1.5;">
    <path d="M524.166,1208.69C524.166,1208.69 498.409,1311.72 487.101,1351.85C476.734,1388.64 461.08,1457.19 461.08,1457.19C461.08,1457.19 533.248,1434.65 594.733,1391.63C641.095,1359.19 714.822,1285.42 766.711,1283.68C818.599,1281.94 906.223,1341.6 906.063,1381.18C905.92,1416.8 850.467,1448.82 814.879,1447.1C748.543,1443.91 653.72,1465.58 579.692,1486.17C442.02,1524.46 410.743,1596.92 370.529,1598.64C349.975,1599.51 325.535,1568.12 329.147,1546.13C338.061,1491.87 376.563,1485.78 395.624,1448.06C413.208,1413.26 439.158,1372.97 457.403,1339C478.827,1299.1 524.166,1208.69 524.166,1208.69Z" style="stroke:black;stroke-width:1px;"/>
    <path d="M523.131,945.674C551.927,937.601 642.12,968.557 682.231,990.738C717.235,1010.1 764.717,1048.16 763.795,1078.76C762.846,1110.27 730.553,1137.43 722.917,1169.81C707.292,1236.07 679.155,1430.34 631.477,1552.43C567.833,1715.41 392.362,1878.07 392.362,1878.07C392.362,1878.07 554.519,1630.47 592.683,1516.08C627.034,1413.11 627.355,1277.74 620.086,1198.12C614.352,1135.33 534.988,1082.11 518.619,1041.1C506.941,1011.85 494.402,953.727 523.131,945.674Z" style="stroke:black;stroke-width:1px;"/>
    <path d="M1002.26,217.111C1023.32,207.367 1096.5,231.803 1131.95,251.394C1166.31,270.381 1202.98,298.819 1202.96,334.952C1202.94,398.408 1059.01,473.916 1006.59,529.108C953.268,585.249 877.49,679.225 877.49,679.225C877.49,679.225 1148.18,648.422 1172.11,1017.02C1178.91,1121.69 1160.17,1264.8 1147.64,1383.25C1132.92,1522.32 1300.25,1803.01 1450.14,1808.66C1622.81,1815.18 1821.3,1688.14 1821.3,1688.14C1821.3,1688.14 1638.51,1957.8 1418.61,1945.79C1197.17,1933.7 982.118,1728.91 1014.55,1382.65C1026.59,1254.01 1071.47,1097.22 1073.19,999.375C1074.84,905.547 1032.79,765.959 904.914,762.668C796.402,759.876 761.377,879.603 728.919,909.323C704.093,932.054 661.323,895.396 667.336,856.691C684.388,746.905 770.285,729.73 810.32,680.707C851.847,629.858 887.19,590.608 922.897,544.031C962.64,492.187 1025.3,412.289 1028.49,372.442C1030.78,343.9 1009.01,332.087 1004.01,311.104C998.019,285.936 981.196,226.855 1002.26,217.111Z" style="stroke:black;stroke-width:1px;"/>
    <path d="M1242.44,691.542C1244.25,671.243 1305.06,731.344 1340.28,731.417C1415.76,731.573 1454.93,676.202 1504.89,676.079C1568.26,675.924 1627.49,762.52 1624.26,802.753C1620.31,851.911 1586.87,898.427 1537,901.083C1504.56,902.811 1442.55,889.639 1441.41,870.292C1440.27,850.944 1530.46,828.988 1530.16,785C1529.99,761.583 1505.68,732.291 1482.69,733.208C1419.98,735.709 1372.68,852.413 1329.41,853.208C1269.49,854.31 1240.62,711.84 1242.44,691.542Z" style="stroke:black;stroke-width:1px;"/>
    <g id="レイヤー1">
    </g>
</svg>
