<?xml version="1.0" encoding="UTF-8" standalone="no"?>
<!DOCTYPE svg PUBLIC "-//W3C//DTD SVG 1.1//EN" "http://www.w3.org/Graphics/SVG/1.1/DTD/svg11.dtd">
<svg width="100%" height="100%" viewBox="0 0 2048 2048" version="1.1" xmlns="http://www.w3.org/2000/svg" xmlns:xlink="http://www.w3.org/1999/xlink" xml:space="preserve" xmlns:serif="http://www.serif.com/" style="fill-rule:evenodd;clip-rule:evenodd;stroke-linecap:round;stroke-linejoin:round;stroke-miterlimit:1.5;">
    <path d="M1047.01,218.648C1068.37,204.779 1097.49,237.605 1118.06,242.261C1135.75,246.266 1157.26,242.122 1171.03,252.939C1204.41,279.167 1293.55,363.101 1318.34,399.625C1331.91,419.612 1340.61,459.799 1319.81,472.083C1294.91,486.791 1237.36,500.927 1235.52,532.64C1232.01,592.927 1228.97,724.337 1227.25,805.716C1225.7,878.886 1219.02,1028.13 1219.02,1028.13C1219.02,1028.13 1348.72,992.268 1410.35,974.357C1465.61,958.297 1636.36,890.423 1640.06,898.333C1646.71,912.557 1535.69,988.727 1418.91,1027.25C1354.73,1048.42 1214.19,1096.03 1214.19,1096.03C1214.19,1096.03 1164.85,1417.42 1092.3,1589.45C956.671,1911.04 708.812,1941.47 706.299,1920.63C700.135,1869.52 865.305,1879.18 1012.43,1564.05C1054.61,1473.7 1106.19,1120.33 1106.19,1120.33C1106.19,1120.33 951.055,1170.65 876.619,1201.2C798.16,1233.4 685.284,1273.12 650.615,1312.13C633.656,1331.21 631.82,1386.18 605.216,1392.33C567.33,1401.09 542.368,1398.16 501.312,1394.42C465.624,1391.16 419.822,1350.4 416.633,1317.26C413.119,1280.73 398.467,1224.8 424.187,1217.11C461.086,1206.09 515.836,1213.83 548.937,1197.18C608.067,1167.44 714.203,1104.25 778.969,1038.67C906.899,909.112 944.858,810.317 926.563,793.125C912.319,779.741 851.776,818.766 834.409,841.144C822.503,856.484 831.891,904.059 811.813,918.5C791.734,932.941 688.789,912.527 622.906,866.875C591.457,845.082 549.745,791.035 556.438,773.292C563.13,755.549 643.937,753.351 665.444,761.787C678.792,767.023 690.375,776.961 702.774,779.49C749.592,789.038 881.09,749.733 908.219,730.458C958.049,695.055 957.79,665.5 1035.73,658.13C1074.36,654.477 1124.12,668.608 1124.12,668.608C1124.12,668.608 1124.69,542.251 1123.82,483.237C1123.07,432.801 1071.05,384.177 1054.3,346.257C1037.48,308.187 1030.08,229.638 1047.01,218.648ZM1125.13,774.837C1125.13,774.837 1123.18,884.327 1120.72,931.087C1118.57,972.002 1113.54,1049.31 1113.54,1049.31C1113.54,1049.31 1000.08,1091.62 943.288,1106.82C883.829,1122.74 747.654,1150.74 747.654,1150.74C747.654,1150.74 893.872,1011.01 931.147,969.056C990.72,902.007 1048.04,822.866 1081.59,797.312C1109.9,775.748 1125.13,774.837 1125.13,774.837Z" style="stroke:black;stroke-width:1px;"/>
    <g id="レイヤー1">
    </g>
</svg>
