<?xml version="1.0" encoding="UTF-8" standalone="no"?>
<!DOCTYPE svg PUBLIC "-//W3C//DTD SVG 1.1//EN" "http://www.w3.org/Graphics/SVG/1.1/DTD/svg11.dtd">
<svg width="100%" height="100%" viewBox="0 0 2048 2048" version="1.1" xmlns="http://www.w3.org/2000/svg" xmlns:xlink="http://www.w3.org/1999/xlink" xml:space="preserve" xmlns:serif="http://www.serif.com/" style="fill-rule:evenodd;clip-rule:evenodd;stroke-linecap:round;stroke-linejoin:round;stroke-miterlimit:1.5;">
    <path d="M884.574,1286.72C884.574,1286.72 1001.7,1440.32 1055.23,1437.95C1139.5,1434.22 1652,1099.9 1652,1099.9C1652,1099.9 1631.34,1187.57 1391.13,1342.63C1318.33,1389.63 1180.94,1485 1138.97,1528.92C1110.55,1558.64 1101.47,1636.74 1068.3,1638.15C1031.4,1639.72 971.011,1581.58 931.661,1512.9C909.658,1474.5 884.574,1286.72 884.574,1286.72Z" style="stroke:black;stroke-width:1px;"/>
    <path d="M862.473,171.966C878.523,157.684 997.632,203.002 1054.12,245.778C1089.07,272.246 1144.36,341.179 1143.12,366.326C1141.07,408.036 1062.3,388.835 1031.22,397.564C984.677,410.635 888.943,469.672 870.503,447.151C856.047,429.495 953.099,335.509 951.144,286.508C948.707,225.413 848.02,184.826 862.473,171.966Z" style="stroke:black;stroke-width:1px;"/>
    <path d="M683.316,603.32C698.946,592.989 749.399,639.461 784.921,636.592C908.837,626.584 1112.59,479.105 1198.13,481.728C1250.43,483.331 1290.38,543.333 1289.28,563.788C1288.17,584.244 1204.46,589.011 1176.7,610.827C1129.33,648.055 1003.68,725.979 1005.05,787.158C1007.55,898.577 1288.69,867.526 1277.49,1024.05C1264.08,1211.53 1000.28,1263.78 838.795,1358.68C687.549,1447.57 525.915,1592.25 514.668,1746.2C509.918,1811.22 549.694,1938.61 549.694,1938.61C549.694,1938.61 466.58,1849.92 464.534,1709.04C462.913,1597.37 602.852,1421.6 726.472,1331.82C857.616,1236.58 1121.27,1081.44 1123.61,1010.61C1126.77,915.088 943.989,880.278 948.802,783.353C952.252,713.885 1093.52,589.277 1093.52,589.277C1093.52,589.277 954.071,633.421 872.401,694.415C848.242,712.458 842.874,770.475 812.664,771.169C782.453,771.864 722.692,735.112 701.52,705.98C682.789,680.207 667.685,613.651 683.316,603.32Z" style="stroke:black;stroke-width:1px;"/>
    <path d="M1330.06,679.167C1343.59,666.476 1395.26,735.376 1434.41,733.375C1519.54,729.023 1544.36,676.961 1594.22,678.208C1657.05,679.78 1718.22,744.568 1715.82,808.973C1714.41,847.135 1661.42,896.504 1627.6,897.132C1592.5,897.784 1548.64,889.726 1547.63,871.419C1546.62,853.112 1621.36,834.392 1621.53,787.292C1621.62,763.949 1600.02,737.02 1576.34,737.458C1496.23,738.942 1457.29,843.44 1419.12,843.625C1376.94,843.83 1316.74,691.662 1330.06,679.167Z" style="stroke:black;stroke-width:1px;"/>
    <g id="レイヤー1">
    </g>
</svg>
