<?xml version="1.0" encoding="UTF-8" standalone="no"?>
<!DOCTYPE svg PUBLIC "-//W3C//DTD SVG 1.1//EN" "http://www.w3.org/Graphics/SVG/1.1/DTD/svg11.dtd">
<svg width="100%" height="100%" viewBox="0 0 2048 2048" version="1.1" xmlns="http://www.w3.org/2000/svg" xmlns:xlink="http://www.w3.org/1999/xlink" xml:space="preserve" xmlns:serif="http://www.serif.com/" style="fill-rule:evenodd;clip-rule:evenodd;stroke-linecap:round;stroke-linejoin:round;stroke-miterlimit:1.5;">
    <path d="M701.571,723.652C708.405,713.142 737.319,736.347 750.877,729.596C788.494,710.866 843.014,610.479 927.272,611.273C1006.44,612.019 1071.06,683.923 1070.97,750.462C1070.89,807.899 1069.28,867.036 1069.07,925.367C1068.79,1004.98 1209.31,1195.15 1322.56,1206.01C1341.51,1207.82 1380.09,1236.58 1379.05,1265.81C1378.38,1284.57 1355.69,1311.67 1328.85,1313.63C1282.03,1317.05 1278.33,1266.46 1097.38,1266.83C958.956,1267.12 808.701,1365.86 808.701,1365.86C808.701,1365.86 856.915,1295.16 937.771,1251.74C993.385,1221.88 1137.19,1192.98 1137.19,1192.98C1137.19,1192.98 1030.1,1050.31 1027.58,975.616C1024.69,889.993 1023.94,805.232 1024.53,750.276C1025.16,691.99 991.649,661.678 944.502,662.335C908.454,662.837 831.426,722.69 827.937,777.458C826.663,797.461 850.528,814.137 850.155,833.334C849.79,852.096 827.656,887.464 805.702,887.838C780.701,888.264 733.307,840.103 715.952,812.738C702.061,790.837 694.738,734.162 701.571,723.652Z" style="stroke:black;stroke-width:1px;"/>
</svg>
