<?xml version="1.0" encoding="UTF-8" standalone="no"?>
<!DOCTYPE svg PUBLIC "-//W3C//DTD SVG 1.1//EN" "http://www.w3.org/Graphics/SVG/1.1/DTD/svg11.dtd">
<svg width="100%" height="100%" viewBox="0 0 2048 2048" version="1.1" xmlns="http://www.w3.org/2000/svg" xmlns:xlink="http://www.w3.org/1999/xlink" xml:space="preserve" xmlns:serif="http://www.serif.com/" style="fill-rule:evenodd;clip-rule:evenodd;stroke-linecap:round;stroke-linejoin:round;stroke-miterlimit:1.5;">
    <path d="M1294.78,728.833C1311.31,716.135 1352.36,790.33 1394.15,790.06C1469.07,789.577 1507.92,716.681 1546.25,717.583C1598.41,718.811 1675.58,789.208 1678.75,868.208C1679.99,899.079 1658.46,928.879 1631.94,936.25C1583,949.849 1499.11,943.526 1499.12,923.542C1499.14,903.452 1579.06,883.775 1580.72,827.833C1581.36,806.246 1552.78,787.718 1530.31,787.125C1467.88,785.476 1422.4,890.806 1379.31,891C1307.42,891.324 1280.17,740.065 1294.78,728.833Z" style="stroke:black;stroke-width:1px;"/>
    <path d="M931.478,383.614C931.478,383.614 1100.28,432.503 1175.71,493.89C1210.53,522.226 1233.67,577.033 1233.72,611.28C1233.77,649.044 1224.48,699.125 1192.22,698.708C1149.89,698.161 1096.72,612.351 979.745,607.998C913.421,605.531 788.91,640.063 794.181,710.535C803.371,833.401 1256.79,710.523 1246.09,1010.24C1240.22,1174.71 741.918,1526.71 741.918,1526.71C741.918,1526.71 984.882,1499.48 1099.38,1498.34C1209.46,1497.25 1323.8,1522.52 1394.15,1516.55C1430.32,1513.48 1475.45,1460.05 1521.49,1462.54C1582.72,1465.84 1705.99,1554.42 1704.91,1605.59C1704.08,1645.17 1649.81,1681.89 1609.07,1680.02C1562.03,1677.85 1489.4,1608.59 1422.65,1592.6C1336.99,1572.06 1207.85,1556.37 1095.09,1556.83C818.02,1557.97 704.375,1601.69 603.06,1649.25C539.309,1679.17 479.487,1759.24 431.068,1759.47C388.632,1759.66 323.557,1703.61 322.248,1672.67C320.853,1639.71 363.192,1580.19 388.861,1578.51C420.997,1576.39 451.548,1605.7 476.526,1597.98C549.811,1575.32 725.58,1436.93 838.548,1346.06C950.966,1255.64 1105.21,1119 1106.36,1020.08C1109.43,758.338 739.544,904.986 736.497,711.959C733.88,546.114 997.752,501.903 997.752,501.903C997.752,501.903 963.049,468.951 952.004,449.236C940.958,429.521 931.478,383.614 931.478,383.614Z" style="stroke:black;stroke-width:1px;"/>
    <path d="M574.21,989.267C617.439,954.862 668.886,1104.16 719.885,1078.73C780.675,1048.43 938.722,951.875 938.722,951.875C938.722,951.875 847.469,1048 808.532,1090.78C772.927,1129.89 803.809,1237.35 771.812,1258.23C739.816,1279.11 640.499,1227.2 608.748,1183.98C575.815,1139.15 551.796,1007.11 574.21,989.267Z" style="stroke:black;stroke-width:1px;"/>
    <g id="レイヤー1">
    </g>
</svg>
