<?xml version="1.0" encoding="UTF-8" standalone="no"?>
<!DOCTYPE svg PUBLIC "-//W3C//DTD SVG 1.1//EN" "http://www.w3.org/Graphics/SVG/1.1/DTD/svg11.dtd">
<svg width="100%" height="100%" viewBox="0 0 2048 2048" version="1.1" xmlns="http://www.w3.org/2000/svg" xmlns:xlink="http://www.w3.org/1999/xlink" xml:space="preserve" xmlns:serif="http://www.serif.com/" style="fill-rule:evenodd;clip-rule:evenodd;stroke-linecap:round;stroke-linejoin:round;stroke-miterlimit:1.5;">
    <path d="M826.842,189.954C826.842,189.954 975.304,206.434 1035.52,230.115C1096.85,254.234 1175.94,313.849 1172.46,366.82C1170.12,402.254 1054.86,409.999 1054.03,447.481C1049.28,661.254 1041.8,1452.79 1040.64,1684.5C1040.38,1735.41 1095.34,1747.26 1097.84,1832.55C1099.1,1875.17 1073.77,1900.28 1045.15,1901.28C993.084,1903.09 931.108,1812.03 931.518,1762.08C931.721,1737.26 979.665,1700.57 979.662,1661.81C979.65,1441.2 980.442,667.864 975.885,439.22C974.895,389.546 939.257,344.98 914.416,303.435C889.896,262.426 826.842,189.954 826.842,189.954Z" style="stroke:black;stroke-width:1px;"/>
    <path d="M652.011,611.263C662.99,605.607 695.6,640.339 719.699,650.159C747.469,661.474 789.36,664.525 818.63,679.155C846.625,693.148 880.254,715.187 881.643,742.183C882.932,767.247 820.052,802.654 794.2,821.575C778.135,833.334 754.203,833.783 737.181,844.108C712.609,859.011 644.7,923.142 644.7,923.142C644.7,923.142 651.654,881.778 658.699,862.651C668.322,836.523 708.184,789.878 706.809,760.068C705.4,729.541 661.393,708.201 652.26,683.4C644.273,661.71 641.032,616.92 652.011,611.263Z" style="stroke:black;stroke-width:1px;"/>
    <path d="M563.149,988.33C580.021,989.452 597.648,1037.22 622.577,1036.72C659.629,1035.99 763.286,970.716 800.215,970.308C824.683,970.037 867.15,984.546 860.671,1008.14C850.651,1044.64 743.922,1132.51 744.265,1189.23C744.609,1245.95 863.167,1275.35 862.732,1348.47C862.536,1381.43 822.305,1413.34 795.202,1412.87C767.841,1412.38 733.503,1367.45 699.6,1367.11C462.051,1364.69 423.344,1655.99 423.344,1655.99C423.344,1655.99 385.423,1549.41 520.326,1392.41C607.952,1290.43 729.475,1322.36 732.62,1289.32C735.53,1258.77 691.363,1227.89 692.451,1197.22C693.835,1158.23 754.702,1047.76 754.702,1047.76C754.702,1047.76 717.741,1043.12 691.776,1067.92C670.646,1088.09 635.195,1152.65 605.98,1152.33C576.764,1152 540.681,1091.84 533.543,1064.51C526.472,1037.43 546.807,987.243 563.149,988.33Z" style="stroke:black;stroke-width:1px;"/>
    <path d="M1284.38,426.333C1300.51,414.182 1355.01,476.361 1396.7,474.926C1440.89,473.405 1505.61,410.417 1558.31,412.15C1611.62,413.903 1677.62,495.749 1676.94,545.099C1675.97,615.36 1621.19,643.624 1579.59,645.958C1551.78,647.519 1500.86,631.818 1501.41,611.633C1502.1,586.708 1591.23,556.114 1590.75,526.635C1590.36,502.75 1564.64,471.416 1531.12,471.417C1494.64,471.418 1426.5,594.359 1384.35,593C1333.57,591.363 1267.25,439.232 1284.38,426.333Z" style="stroke:black;stroke-width:1px;"/>
    <path d="M1382.24,643.215C1400.54,633.897 1477.39,694.21 1502.14,738.966C1527.1,784.088 1554.42,897.772 1531.99,913.947C1489.56,944.543 1439.82,873.532 1401.09,874.835C1332.92,877.131 1252.31,978.798 1249.44,1101.32C1245.07,1288.53 1422.6,1407.52 1572.64,1457.29C1676.59,1491.78 1772.3,1482.1 1772.3,1482.1C1772.3,1482.1 1692.75,1541.97 1534.54,1505.86C1381.31,1470.88 1176.04,1301.74 1155.01,1089.54C1140.81,946.342 1289.73,757.688 1348.42,708.166C1368.53,691.196 1365.03,651.985 1382.24,643.215Z" style="stroke:black;stroke-width:1px;"/>
    <g id="レイヤー1">
    </g>
</svg>
