<?xml version="1.0" encoding="UTF-8" standalone="no"?>
<!DOCTYPE svg PUBLIC "-//W3C//DTD SVG 1.1//EN" "http://www.w3.org/Graphics/SVG/1.1/DTD/svg11.dtd">
<svg width="100%" height="100%" viewBox="0 0 2048 2048" version="1.1" xmlns="http://www.w3.org/2000/svg" xmlns:xlink="http://www.w3.org/1999/xlink" xml:space="preserve" xmlns:serif="http://www.serif.com/" style="fill-rule:evenodd;clip-rule:evenodd;stroke-linecap:round;stroke-linejoin:round;stroke-miterlimit:1.5;">
    <g id="レイヤー1">
        <path d="M1067.68,367.681C1109.52,301.422 1307.01,480.69 1345.97,535.708C1368.18,567.071 1363.96,631.146 1347.73,649.149C1330.99,667.719 1231.92,635.93 1200.26,657.901C1162.39,684.181 1134.74,752.349 1120.5,806.833C1105.2,865.357 1108.47,1009.04 1108.47,1009.04C1108.47,1009.04 1229.88,942.864 1253.81,902.708C1274.85,867.412 1194.28,797.045 1241.16,765.67C1269.88,746.453 1419.4,860.528 1460.91,899.458C1486.19,923.174 1491.37,999.409 1471.9,1040.04C1453.27,1078.93 1394.67,1084.89 1374.51,1075.1C1344.71,1060.63 1325.74,1031.09 1290,1044.01C1251.2,1058.04 1126.2,1116.87 1126.2,1116.87C1126.2,1116.87 1098.1,1319.88 1283.06,1512.79C1350.16,1582.77 1543.07,1702.25 1637.06,1723.16C1699.03,1736.95 1816.86,1733.73 1816.86,1733.73C1816.86,1733.73 1743.46,1799.32 1705.85,1811.61C1658.59,1827.05 1586.16,1832.32 1518.05,1820.16C1410.29,1800.92 1266.15,1660.09 1182.44,1555.58C1059.82,1402.5 1039.2,1164.4 1039.2,1164.4L859.75,1243.96C859.75,1243.96 847.008,1426.43 756.125,1575.03C697.236,1671.32 592.732,1776.27 493.034,1791.69C463.769,1796.22 398.906,1777.83 398.906,1777.83C398.906,1777.83 538.663,1695.29 593.813,1637.17C750.805,1471.71 755.523,1294.88 755.523,1294.88C755.523,1294.88 684.258,1322.14 654.307,1339.21C630.35,1352.86 618.668,1384.46 593.156,1394.92C563.569,1407.05 502.073,1422.5 485.345,1401.63C421.133,1321.51 539.65,1157.58 582.281,1077.58C616.149,1014.03 717.613,884.363 717.613,884.363C717.613,884.363 696.831,765.247 727.966,754.655C799.871,730.194 813.307,785.923 861.357,805.657C903.155,822.823 969.378,868.382 965.994,901.211C960.844,951.16 894.087,970.33 890.5,1011.29C886.935,1052 882.188,1133.25 882.188,1133.25L1023.35,1055.84C1023.35,1055.84 1023.46,870.618 1038.91,778.792C1053.74,690.602 1083.31,597.733 1097.58,530.317C1112.74,458.73 1047.55,399.571 1067.68,367.681ZM751.517,919.31C775.775,921.714 782.019,960.876 784.566,986.15C790.351,1043.54 785.156,1174.92 785.156,1174.92C785.156,1174.92 618.85,1265.95 588.438,1242.33C556.387,1217.44 722.758,916.46 751.517,919.31Z" style="stroke:black;stroke-width:1px;"/>
    </g>
</svg>
