<?xml version="1.0" encoding="UTF-8" standalone="no"?>
<!DOCTYPE svg PUBLIC "-//W3C//DTD SVG 1.1//EN" "http://www.w3.org/Graphics/SVG/1.1/DTD/svg11.dtd">
<svg width="100%" height="100%" viewBox="0 0 2048 2048" version="1.1" xmlns="http://www.w3.org/2000/svg" xmlns:xlink="http://www.w3.org/1999/xlink" xml:space="preserve" xmlns:serif="http://www.serif.com/" style="fill-rule:evenodd;clip-rule:evenodd;stroke-linecap:round;stroke-linejoin:round;stroke-miterlimit:1.5;">
    <path d="M550.225,1093.36C557.069,1066.72 698.687,1084.24 758.112,1102.78C815.45,1120.66 904.524,1133.36 906.776,1204.6C908.247,1251.09 824.442,1298.57 799.776,1294.87C782.775,1292.32 781.138,1260.18 768.105,1245.67C750.751,1226.35 722.563,1197.76 695.656,1178.95C659.342,1153.57 546.14,1109.26 550.225,1093.36Z" style="stroke:black;stroke-width:1px;"/>
    <path d="M477.278,848.193C494.958,839.732 539.677,910.971 578.903,902.549C734.845,869.068 760.794,778.655 818.821,767.235C863.235,758.493 923.467,786.46 919.676,803.626C913.953,829.544 875.617,848.031 865.97,867.412C829.349,940.993 772.759,1133.93 699.946,1245.11C629.377,1352.85 504.876,1469.17 442.722,1512.34C410.967,1534.4 327.021,1504.15 327.021,1504.15C327.021,1504.15 409.547,1488.42 439.255,1461.63C498.116,1408.54 609.936,1318.64 680.185,1185.63C764.352,1026.28 772.328,871.551 772.328,871.551C772.328,871.551 702.823,918.981 671.44,946.833C639.207,975.44 611.519,1041.29 578.932,1043.19C546.346,1045.1 500.37,997.125 483.427,964.625C466.485,932.125 459.597,856.653 477.278,848.193Z" style="stroke:black;stroke-width:1px;"/>
    <path d="M1401.12,682.592C1430.25,674.492 1498.18,745.168 1522.34,792C1546.51,838.832 1572.12,929.172 1551.37,957.295C1514.3,1007.55 1429.43,927.532 1387.29,939.534C1334.36,954.609 1271.4,1026.67 1274.28,1135.21C1285.15,1545.05 1791.52,1545.37 1791.52,1545.37C1791.52,1545.37 1263.95,1664.7 1172.12,1181.15C1120.38,908.677 1335.91,824.316 1368.41,741.667C1376.64,720.719 1386.48,686.661 1401.12,682.592Z" style="stroke:black;stroke-width:1px;"/>
    <path d="M843.87,252.153C869.868,222.746 989.774,247.771 1046.78,273.731C1103.78,299.692 1190.63,375.111 1191.9,414.31C1193.73,470.983 1094.76,460.168 1088.82,495.257C1073.75,584.273 1063.67,790.091 1059.66,936.931C1054.03,1143.64 1055.71,1555.76 1057.74,1712.27C1058.43,1765.14 1116.84,1850.7 1117.31,1892.17C1117.95,1948.17 1100.57,1962.4 1069.78,1960.83C1038.93,1959.26 943.52,1875.63 943.427,1835.78C943.349,1802.43 982.689,1719.86 983.695,1686.15C987.821,1547.92 999.486,1187.57 998.661,987.366C997.982,822.434 980.046,587.811 978.75,484.917C977.249,365.722 827.499,270.672 843.87,252.153Z" style="stroke:black;stroke-width:1px;"/>
    <g id="レイヤー1">
    </g>
</svg>
