<?xml version="1.0" encoding="UTF-8" standalone="no"?>
<!DOCTYPE svg PUBLIC "-//W3C//DTD SVG 1.1//EN" "http://www.w3.org/Graphics/SVG/1.1/DTD/svg11.dtd">
<svg width="100%" height="100%" viewBox="0 0 2048 2048" version="1.1" xmlns="http://www.w3.org/2000/svg" xmlns:xlink="http://www.w3.org/1999/xlink" xml:space="preserve" xmlns:serif="http://www.serif.com/" style="fill-rule:evenodd;clip-rule:evenodd;stroke-linecap:round;stroke-linejoin:round;stroke-miterlimit:1.5;">
    <g id="レイヤー1">
        <path d="M887.563,214.833C912.016,195.015 1073.89,280.091 1125.06,319.201C1154.49,341.693 1198.12,391.519 1197.4,433.462C1196.41,491.498 1090.22,478.838 1064.31,506.591C1031.41,541.821 1036.1,810.686 1036.1,810.686C1036.1,810.686 1101.41,750.672 1129.48,724.185C1156.11,699.068 1204.56,641.669 1204.5,612.229C1204.41,571.725 1162.21,548.784 1175.62,531.5C1186.6,517.365 1293.58,540.186 1329.24,566.696C1361.37,590.587 1375.91,632.819 1373.94,661.083C1371.59,694.658 1307.15,701.527 1282.96,717.968C1257.43,735.325 1209.01,780.082 1158.5,815.529C1097.43,858.392 1034.77,895.12 1034.77,895.12L1038.27,1347.76C1038.27,1347.76 1231.95,1291.07 1327.87,1259.81C1447.52,1220.83 1731.13,1105.6 1737.71,1132.27C1742.18,1150.41 1555.87,1220.69 1362.46,1298.72C1197.07,1365.45 1040.22,1436.75 1040.22,1436.75C1040.22,1436.75 1045.02,1658.65 1047.06,1722.9C1048.02,1753 1092.22,1788.49 1092.67,1825.02C1093.08,1858.58 1072.88,1923.57 1036.97,1924.04C1007.66,1924.42 939.592,1846.36 938.832,1808.54C938.153,1774.74 956.013,1747.07 956.064,1712.36C956.145,1657.62 965.668,1466.24 965.668,1466.24C965.668,1466.24 947.636,1478.26 933.775,1484.43C918.564,1491.2 913.946,1552.28 881.428,1551.3C830.961,1549.78 759.305,1486.02 752.969,1424.71C748.276,1379.3 783.56,1293.59 808.372,1293.63C837.549,1293.68 843.817,1366.63 869.344,1378.29C894.87,1389.96 962.523,1368.78 962.523,1368.78L970.569,930.623C970.569,930.623 899.778,973.278 862.575,1015.84C825.752,1057.96 778.758,1173.42 681.281,1285.96C526.303,1464.88 359.417,1488.93 348.5,1463.75C341.228,1446.98 473.622,1392.82 552.096,1315.12C700.833,1167.83 722.004,1058.89 722.004,1058.89C722.004,1058.89 576.922,1080.36 569.906,1008.38C561.833,925.543 609.186,845.615 647.846,784.857C684.316,727.541 749.582,643.518 798.213,639.466C842.432,635.782 894.98,712.329 896.994,758.622C899.071,806.373 885.009,913.94 885.009,913.94L964.652,853.576C964.652,853.576 969.227,686.94 969.28,599.836C969.328,521.045 952.588,438.675 938.968,374.508C928.861,326.892 867.514,231.081 887.563,214.833ZM765.886,729.495C806.686,731.992 798.975,796.779 798.952,832.997C798.92,882.134 790.971,938.935 767.14,968.416C743.31,997.896 622.242,1031.05 619.366,983.144C614.522,902.429 726.089,727.059 765.886,729.495Z" style="stroke:black;stroke-width:1px;"/>
    </g>
</svg>
