<?xml version="1.0" encoding="UTF-8" standalone="no"?>
<!DOCTYPE svg PUBLIC "-//W3C//DTD SVG 1.1//EN" "http://www.w3.org/Graphics/SVG/1.1/DTD/svg11.dtd">
<svg width="100%" height="100%" viewBox="0 0 2048 2048" version="1.1" xmlns="http://www.w3.org/2000/svg" xmlns:xlink="http://www.w3.org/1999/xlink" xml:space="preserve" xmlns:serif="http://www.serif.com/" style="fill-rule:evenodd;clip-rule:evenodd;stroke-linecap:round;stroke-linejoin:round;stroke-miterlimit:1.5;">
    <path d="M581.313,658.958C609.026,655.84 594.713,807.035 657.531,802.75C749.746,796.46 981.774,617.967 1160.13,617.692C1274.52,617.516 1441.12,664.078 1439.47,758.266C1436.13,947.956 1085.93,1068.45 1083.28,1290.21C1080.36,1534.44 1291.69,1631.46 1291.69,1631.46C1291.69,1631.46 987.554,1558.73 1001.84,1285C1014.45,1043.51 1281.96,907.68 1281.1,794.635C1280.68,739.111 1234.57,699.24 1156.75,702.292C895.17,712.551 734.037,954.395 636.803,957.301C569.874,959.3 495.217,871.879 491.25,821.458C487.151,769.355 553.599,662.076 581.313,658.958Z" style="stroke:black;stroke-width:1px;"/>
    <g id="レイヤー1">
    </g>
</svg>
