<?xml version="1.0" encoding="UTF-8" standalone="no"?>
<!DOCTYPE svg PUBLIC "-//W3C//DTD SVG 1.1//EN" "http://www.w3.org/Graphics/SVG/1.1/DTD/svg11.dtd">
<svg width="100%" height="100%" viewBox="0 0 2048 2048" version="1.1" xmlns="http://www.w3.org/2000/svg" xmlns:xlink="http://www.w3.org/1999/xlink" xml:space="preserve" xmlns:serif="http://www.serif.com/" style="fill-rule:evenodd;clip-rule:evenodd;stroke-linecap:round;stroke-linejoin:round;stroke-miterlimit:1.5;">
    <path d="M1124.11,1204.88C1140.8,1193.17 1195.06,1227.63 1225.12,1246.35C1255.18,1265.08 1299.95,1294.68 1298.14,1313.8C1294.76,1349.62 1220.45,1345.7 1195.47,1364.23C1152.96,1395.79 1090.46,1454.49 1034.25,1497.57C973.542,1544.11 822.817,1632.17 822.817,1632.17C822.817,1632.17 956.985,1520.31 1013.15,1465.69C1067.2,1413.12 1126.11,1346 1144.6,1302.53C1156.58,1274.37 1107.35,1216.62 1124.11,1204.88Z" style="stroke:black;stroke-width:1px;"/>
    <path d="M1139.81,1024.78C1162.59,1021.65 1237.8,1044.77 1234.74,1092.34C1232.06,1133.8 1167.95,1117.38 1148.12,1136.07C1102.55,1179 1037.32,1277.12 963.023,1342.93C842.98,1449.26 697.498,1493.99 697.498,1493.99C697.498,1493.99 854.129,1396.92 918.762,1332.39C984.748,1266.51 1054.42,1169.13 1086.25,1110.6C1099.14,1086.9 1096.91,1030.66 1139.81,1024.78Z" style="stroke:black;stroke-width:1px;"/>
    <path d="M1140.85,882.845C1140.85,882.845 1040.52,963.773 1038.62,1022.01C1034.72,1141.45 1110.1,1080.05 1110.1,1080.05L1084.88,1162.68C1084.88,1162.68 997.973,1119.06 994.422,1079.53C990.832,1039.55 1023.29,931.198 1023.29,931.198L1140.85,882.845Z" style="stroke:black;stroke-width:1px;"/>
    <path d="M863.437,920.708C877.166,909.745 943.587,933.554 979.798,922.685C1019.6,910.736 1074.63,870.078 1102.27,849.016C1120.36,835.227 1134.07,796.189 1155.05,795.148C1176.04,794.106 1229.15,822.493 1228.16,842.768C1227.12,863.847 1189.6,874.481 1166.54,876.454C1133.8,879.256 1063.59,921.31 1028.67,946.812C994.316,971.899 982.203,1018.15 959.805,1025.89C937.407,1033.64 849.708,931.671 863.437,920.708Z" style="stroke:black;stroke-width:1px;"/>
</svg>
