<?xml version="1.0" encoding="UTF-8" standalone="no"?>
<!DOCTYPE svg PUBLIC "-//W3C//DTD SVG 1.1//EN" "http://www.w3.org/Graphics/SVG/1.1/DTD/svg11.dtd">
<svg width="100%" height="100%" viewBox="0 0 2048 2048" version="1.1" xmlns="http://www.w3.org/2000/svg" xmlns:xlink="http://www.w3.org/1999/xlink" xml:space="preserve" xmlns:serif="http://www.serif.com/" style="fill-rule:evenodd;clip-rule:evenodd;stroke-linecap:round;stroke-linejoin:round;stroke-miterlimit:1.5;">
    <path d="M589.291,897.809C589.291,897.809 559.235,1018.97 547.705,1065.41C538.036,1104.35 517.572,1174.72 517.572,1174.72C517.572,1174.72 593.208,1133.41 638.89,1100.64C682.218,1069.57 740.133,977.265 791.662,978.117C843.191,978.97 973.506,1026.49 969.324,1093.89C964.25,1175.68 744.721,1127.17 635.727,1172.62C546.964,1209.63 472.273,1304.73 425.612,1303.76C398.321,1303.19 383.753,1250.52 400.703,1218.19C417.581,1186 446.117,1176.77 460.264,1155.94C478.375,1129.27 498.605,1088.41 514.912,1055.79C536.416,1012.76 589.291,897.809 589.291,897.809Z" style="stroke:black;stroke-width:1px;"/>
    <path d="M602.907,646.133C639.129,644.792 749.428,691.502 785.418,716.471C809.179,732.956 825.862,766.644 825.577,791.775C825.293,816.906 789.958,846.128 784.453,874.368C770.051,948.254 748.469,1134.09 702.697,1241.78C644.641,1378.37 447.613,1591.67 447.613,1591.67C447.613,1591.67 620.316,1343.66 657.091,1223.01C690.894,1112.12 684.225,989.17 676.545,899.03C670.631,829.614 572.888,759.713 571.4,696.829C570.929,676.938 574.716,647.176 602.907,646.133Z" style="stroke:black;stroke-width:1px;"/>
    <path d="M697.944,425.099C704.43,409.116 727.013,473.088 743.717,462.599C795.524,430.065 851.477,233.273 1008.78,229.896C1070.84,228.564 1139.05,289.677 1140.1,363.622C1141.14,436.888 1135.95,557.339 1137.51,650.268C1141.87,909.068 1683.04,860.341 1682.87,1089.97C1682.74,1264.75 1474.48,1245.26 1288.58,1336.86C1144.43,1407.88 1005.47,1547.41 998.016,1719.77C994.47,1801.73 1025.71,1967.15 1025.71,1967.15C1025.71,1967.15 953.952,1779.31 953.389,1683.78C950.918,1264.63 1462.1,1133.28 1459.24,1071.84C1453.5,948.384 1077.81,938.782 1076.05,661.001C1075.34,548.794 1082.56,426.431 1083.37,357.525C1083.78,322.784 1044.53,271.603 1012.35,275.337C936.098,284.182 860.97,377.298 858.873,471.991C858.242,500.466 877.715,539.776 877.24,565.793C876.717,594.361 846.012,641.586 816.117,640.639C727.953,637.845 675.706,479.899 697.944,425.099Z" style="stroke:black;stroke-width:1px;"/>
    <path d="M1299.81,556.875C1318.01,547.686 1368.47,625.732 1412.71,625.366C1457.96,624.991 1522.12,557.624 1573.82,561.079C1632.77,565.018 1701.9,655.708 1701.34,696.083C1700.7,742.401 1649.06,793.774 1593.06,795.917C1557.39,797.282 1506.94,782.993 1506.75,763.833C1506.56,744.674 1592.1,703.487 1591.94,680.958C1591.77,657.647 1563.03,626.975 1539.59,627.875C1487.02,629.894 1426.18,744.108 1387.89,742.7C1341.92,741.011 1282.19,565.773 1299.81,556.875Z" style="stroke:black;stroke-width:1px;"/>
    <g id="レイヤー1">
    </g>
</svg>
