<?xml version="1.0" encoding="UTF-8" standalone="no"?>
<!DOCTYPE svg PUBLIC "-//W3C//DTD SVG 1.1//EN" "http://www.w3.org/Graphics/SVG/1.1/DTD/svg11.dtd">
<svg width="100%" height="100%" viewBox="0 0 2048 2048" version="1.1" xmlns="http://www.w3.org/2000/svg" xmlns:xlink="http://www.w3.org/1999/xlink" xml:space="preserve" xmlns:serif="http://www.serif.com/" style="fill-rule:evenodd;clip-rule:evenodd;stroke-linecap:round;stroke-linejoin:round;stroke-miterlimit:1.5;">
    <g id="レイヤー1">
        <path d="M679.054,431.994C696.938,419.733 717,468.057 735.181,453.854C769.41,427.115 784.18,356.352 834.693,307.605C873.75,269.914 938.058,231.835 987.375,232.75C1078.22,234.436 1126.35,331.166 1126.43,358.706C1126.64,435.91 1120.9,579.384 1123.44,662.708C1124.97,712.935 1185.87,801.243 1284.89,843.551C1365.05,877.795 1458.17,892.367 1548.96,934.653C1602.58,959.622 1670.95,1023.94 1667.53,1108.64C1663.41,1210.63 1576.5,1241.14 1505.48,1262.59C1396.79,1295.41 1270.57,1352.38 1150.14,1440.28C885.468,1633.44 1030.22,1974.05 1010.33,1983.82C988.027,1994.78 840.837,1713.06 1030.73,1407.03C1159.7,1199.16 1443.28,1123.2 1440.51,1073.89C1436.03,994.088 1230.09,932.724 1157.93,874.057C1100.17,827.1 1059.84,740.701 1059.75,664.548C1059.65,569.741 1066.08,419.047 1068.88,355.84C1069.98,330.966 1036.55,293.081 977.421,295.115C901.569,297.724 849.156,420.503 848.703,478.609C848.395,518.068 861.46,551.376 860.985,581.816C860.444,616.504 829.149,650.912 804.828,652.052C773.298,653.53 680.245,565.564 676.844,541.848C671.552,504.94 667.279,440.067 679.054,431.994Z" style="stroke:black;stroke-width:1px;"/>
        <path d="M573.188,650.989C618.506,628.923 808.29,697.161 812.98,793.169C814.419,822.648 769.353,840.669 769.292,870.183C769.22,905.754 775.84,996.856 775.84,996.856C775.84,996.856 899.015,974.708 953.595,1054.18C1000.49,1122.46 910.7,1163.18 873.038,1161.06C830.065,1158.64 768.154,1160.8 742.959,1181.4C706.642,1211.09 687.687,1302.19 613.97,1408.34C565.005,1478.84 449.433,1611.9 434.929,1602.97C418.615,1592.93 517.697,1468.62 552.786,1400.55C584.727,1338.59 650.628,1215.97 643.415,1204.9C634.635,1191.42 553.098,1225.78 515.049,1247.68C479.464,1268.17 440.47,1325.01 419.225,1325.09C396.916,1325.19 382.8,1283.33 382.907,1261.02C383.208,1198.3 423.568,1193.55 441.483,1153.77C470.19,1090.03 555.227,910.187 571.929,915.933C603.887,926.929 505.022,1154.67 522.412,1165.02C531.888,1170.65 559.411,1139.78 590.588,1117.13C623.948,1092.89 664.829,1052.45 664.829,1052.45C664.829,1052.45 661.863,946.69 659.477,890.542C658.047,856.894 586.859,799.164 567.234,756.911C552.624,725.453 548.272,663.121 573.188,650.989Z" style="stroke:black;stroke-width:1px;"/>
    </g>
</svg>
