<?xml version="1.0" encoding="UTF-8" standalone="no"?>
<!DOCTYPE svg PUBLIC "-//W3C//DTD SVG 1.1//EN" "http://www.w3.org/Graphics/SVG/1.1/DTD/svg11.dtd">
<svg width="100%" height="100%" viewBox="0 0 2048 2048" version="1.1" xmlns="http://www.w3.org/2000/svg" xmlns:xlink="http://www.w3.org/1999/xlink" xml:space="preserve" xmlns:serif="http://www.serif.com/" style="fill-rule:evenodd;clip-rule:evenodd;stroke-linecap:round;stroke-linejoin:round;stroke-miterlimit:1.5;">
    <g id="レイヤー1">
        <path d="M834.97,188.284C852.06,171.243 961.744,193.117 1008.47,211.418C1053.75,229.154 1104.4,268.242 1124.68,300.852C1139.19,324.176 1146.79,380.139 1134.25,403.164C1121.7,426.188 1072.9,446.323 1063.57,471.677C1048.18,513.489 1037.61,669.257 1037.61,669.257C1037.61,669.257 1373.1,858.96 1412.74,1030.65C1426.48,1090.12 1426.03,1178.34 1406.51,1233.54C1388.22,1285.24 1345.96,1323.18 1295.4,1345.56C1241.85,1369.25 1204.31,1353.75 1148.01,1355.76C1084.92,1358.01 1027.38,1368.83 1027.38,1368.83C1027.38,1368.83 1029.33,1682.43 1032.25,1770.5C1033.35,1803.5 1069.3,1815.25 1072.06,1861.21C1074.16,1896.05 1072.56,1915.68 1043.97,1918.48C1013.05,1921.51 943.898,1852.33 934.719,1817.88C914.538,1742.12 965.831,1709.97 965.871,1681.7C965.952,1624.44 966.128,1380.45 966.128,1380.45C966.128,1380.45 818.871,1421.45 750.086,1456.07C654.514,1504.18 598.862,1560.45 566.542,1645.08C547.099,1695.99 555.688,1788.02 536.209,1788.9C514.533,1789.89 503.814,1673.98 526.409,1620.17C563.881,1530.92 608.508,1482.18 717.048,1401.73C808.376,1334.03 963.956,1289.17 963.956,1289.17L961.375,684.042C961.375,684.042 784.492,597.009 744.555,563.147C725.497,546.989 714.826,504.882 721.75,480.875C747.052,393.148 850.169,371.365 888.607,321.96C918.097,284.056 817.881,205.326 834.97,188.284ZM1038.17,731.172C1038.17,731.172 1211.95,833.371 1265.19,964.109C1290.08,1025.21 1283.76,1100.33 1259.7,1159.92C1231.83,1228.95 1030.14,1272.09 1030.14,1272.09L1038.17,731.172ZM920.681,409.156C961.447,419.353 954.233,617.668 954.233,617.668C954.233,617.668 782.4,529.326 785.928,494.437C792.659,427.88 888.166,401.023 920.681,409.156Z" style="stroke:black;stroke-width:1px;"/>
    </g>
</svg>
