<?xml version="1.0" encoding="UTF-8" standalone="no"?>
<!DOCTYPE svg PUBLIC "-//W3C//DTD SVG 1.1//EN" "http://www.w3.org/Graphics/SVG/1.1/DTD/svg11.dtd">
<svg width="100%" height="100%" viewBox="0 0 2048 2048" version="1.1" xmlns="http://www.w3.org/2000/svg" xmlns:xlink="http://www.w3.org/1999/xlink" xml:space="preserve" xmlns:serif="http://www.serif.com/" style="fill-rule:evenodd;clip-rule:evenodd;stroke-linecap:round;stroke-linejoin:round;stroke-miterlimit:1.5;">
    <path d="M763.318,1281.25C774.244,1272.08 806.095,1287.14 823.98,1294.71C839.611,1301.33 861.573,1326.55 877.849,1321.08C921.638,1306.37 1015.43,1268.68 1083.29,1238.28C1159.57,1204.11 1335.56,1116.05 1335.56,1116.05C1335.56,1116.05 1271.62,1172.74 1117.73,1274.95C1056.13,1315.86 965.937,1359.94 927.669,1388.33C904.887,1405.24 909.446,1440.12 893.449,1448.5C874.583,1458.39 830.434,1410.58 808.745,1382.71C787.057,1354.83 751.523,1291.14 763.318,1281.25Z" style="stroke:black;stroke-width:1px;"/>
    <path d="M966.326,590.965C994.752,599.174 1106.72,672.72 1129.12,706.953C1151.31,740.86 1083.7,772.677 1083.01,805.117C1081.77,863.488 1079.89,1001.04 1080.67,1057.32C1081.06,1085.71 1093.54,1113.36 1092.71,1139.7C1091.44,1179.95 1074.74,1213.49 1061.15,1214.23C1047.22,1214.99 1030.5,1153.05 1014.81,1125.58C995.59,1091.91 968.377,1042.89 955.031,1012.72C945.939,992.16 936.423,945.461 936.423,945.461C936.423,945.461 965.912,981.398 980.815,996.422C994.828,1010.55 1031.71,1044.25 1031.71,1044.25C1031.71,1044.25 1029.1,859.288 1029.12,804.444C1029.14,775.489 1023.27,735.228 1012.05,711.269C1002.2,690.247 975.951,674.404 968.331,654.354C960.711,634.303 946.982,585.378 966.326,590.965Z" style="stroke:black;stroke-width:1px;"/>
</svg>
