<?xml version="1.0" encoding="UTF-8" standalone="no"?>
<!DOCTYPE svg PUBLIC "-//W3C//DTD SVG 1.1//EN" "http://www.w3.org/Graphics/SVG/1.1/DTD/svg11.dtd">
<svg width="100%" height="100%" viewBox="0 0 2048 2048" version="1.1" xmlns="http://www.w3.org/2000/svg" xmlns:xlink="http://www.w3.org/1999/xlink" xml:space="preserve" xmlns:serif="http://www.serif.com/" style="fill-rule:evenodd;clip-rule:evenodd;stroke-linecap:round;stroke-linejoin:round;stroke-miterlimit:1.5;">
    <g id="レイヤー1">
        <path d="M575.438,183.083C596.637,147.651 734.479,221.854 778.969,249.667C812.506,270.632 842.332,320.128 842.375,349.958C842.444,397.734 751.699,403.449 749.404,436.689C745.3,496.15 744.759,685.067 744.759,685.067C744.759,685.067 930.212,495.515 1046.53,474.167C1196.55,446.634 1301.22,506.24 1343.53,578.708C1418.25,706.693 1404.46,872.896 1356.56,993.083C1308.66,1113.27 1165.88,1225.71 1056.12,1299.83C963.665,1362.28 853.728,1420.73 804.969,1521.08C666.483,1806.1 768.753,1915.73 749.013,1924.44C731.782,1932.04 635.17,1743.39 697.219,1555.12C752.086,1388.65 867.838,1277.14 938.281,1223.62C1117.67,1087.35 1282.17,943.279 1283.03,769.851C1283.77,621.555 1182.29,574.037 1075.33,575.371C940.845,577.049 769.403,713.335 768.149,806.767C767.034,889.75 766.389,991.846 765.508,1031.49C764.134,1093.25 653.851,1010 651.067,957.506C649.019,918.902 652.838,906.28 653.436,881.9C654.334,845.247 686.442,815.019 687.405,776.924C689.338,700.532 690.402,512.083 688.627,413.207C687.163,331.632 549.458,226.504 575.438,183.083Z" style="stroke:black;stroke-width:1px;"/>
        <path d="M918.024,747.83C947.761,722.08 980.106,798.159 1016.78,796.582C1062.65,794.61 1131.72,700.031 1148.96,711.595C1167.96,724.336 1116.57,802.768 1095.12,841.645C1076.76,874.921 1093.56,987.274 1043.18,1004.61C1016.82,1013.68 969.784,948.813 950.301,908.839C929.442,866.042 900.85,762.701 918.024,747.83Z" style="stroke:black;stroke-width:1px;"/>
    </g>
</svg>
