<?xml version="1.0" encoding="UTF-8" standalone="no"?>
<!DOCTYPE svg PUBLIC "-//W3C//DTD SVG 1.1//EN" "http://www.w3.org/Graphics/SVG/1.1/DTD/svg11.dtd">
<svg width="100%" height="100%" viewBox="0 0 2048 2048" version="1.1" xmlns="http://www.w3.org/2000/svg" xmlns:xlink="http://www.w3.org/1999/xlink" xml:space="preserve" xmlns:serif="http://www.serif.com/" style="fill-rule:evenodd;clip-rule:evenodd;stroke-linecap:round;stroke-linejoin:round;stroke-miterlimit:1.5;">
    <g id="レイヤー1">
        <path d="M987.081,257.378C1000.51,233.21 1058.34,238.406 1091.91,248.542C1127.55,259.305 1196.36,292.331 1200.97,321.958C1214.68,410.068 1142.38,428.365 1126.71,447.156C1076.37,507.497 879.867,642.428 880.094,692.375C880.302,738.238 1014.03,681.996 1086.19,792.232C1127.78,855.767 1166.99,954.124 1168.76,1041.12C1170.74,1138.66 1137.41,1264.8 1136.74,1364.7C1135.38,1570.07 1257.68,1828.94 1472.44,1832.71C1660.28,1836 1786.06,1707.52 1797.57,1728.21C1807.7,1746.43 1599.32,1952.21 1514.69,1960.37C1160.7,1994.48 1023.92,1752.18 1004.59,1475C994.564,1331.18 1061.37,1161.32 1063.12,1046.46C1065.29,905.29 1024.27,786.832 880.25,784C762.933,781.693 786.783,959.386 677.909,939.199C614.839,927.505 662.747,833.768 694.043,787.111C717.913,751.525 771.357,745.534 879.373,609.934C931.032,545.084 1009.94,447.085 1013.84,391.016C1017.67,335.997 957.545,310.545 987.081,257.378Z" style="stroke:black;stroke-width:1px;"/>
        <path d="M505.101,931.734C534.162,932.096 512.621,1037.29 574.398,1034.33C619.045,1032.18 739.25,947.753 786.886,945.907C829.725,944.246 860.541,966.742 860.068,996.37C859.8,1013.11 691.456,1120.16 697.941,1211.25C701.93,1267.29 872.996,1298.65 872.772,1418.51C872.683,1465.89 795.992,1505.02 760.869,1505.25C614.276,1506.24 568.707,1509.31 483.435,1629.98C397.893,1751.03 428.029,1807.39 400.728,1812.1C375.483,1816.44 378.278,1677.21 499.398,1514.62C549.627,1447.19 708.936,1416.96 712.067,1379.84C719.059,1296.95 638.696,1284.03 635.448,1235.79C632.2,1187.56 700.031,1095.04 686.868,1087.1C645.249,1062 589.245,1185.03 545.37,1185.55C501.495,1186.07 440.28,1118.88 440.109,1076.05C439.922,1028.97 477.715,931.393 505.101,931.734Z" style="stroke:black;stroke-width:1px;"/>
    </g>
</svg>
