<?xml version="1.0" encoding="UTF-8" standalone="no"?>
<!DOCTYPE svg PUBLIC "-//W3C//DTD SVG 1.1//EN" "http://www.w3.org/Graphics/SVG/1.1/DTD/svg11.dtd">
<svg width="100%" height="100%" viewBox="0 0 2048 2048" version="1.1" xmlns="http://www.w3.org/2000/svg" xmlns:xlink="http://www.w3.org/1999/xlink" xml:space="preserve" xmlns:serif="http://www.serif.com/" style="fill-rule:evenodd;clip-rule:evenodd;stroke-linecap:round;stroke-linejoin:round;stroke-miterlimit:1.5;">
    <path d="M1048.38,212.382C1079.8,194.18 1141.13,214.311 1178.72,230.958C1216.3,247.606 1268.67,282.068 1263.55,318.833C1258.81,352.821 1215.05,372.173 1173.51,406.421C1131.43,441.115 1094.49,473.702 1063.43,504.708C1005.79,562.235 916.687,664.729 916.687,664.729C916.687,664.729 1033.9,661.2 1086.53,705.042C1239.9,832.794 1234.84,1013.84 1211.69,1126.12C1153.13,1410.13 1233.22,1787 1536.66,1784.33C1747.94,1782.48 1862.59,1670.38 1862.59,1670.38C1862.59,1670.38 1676.1,1931.43 1478.74,1928.34C1249.86,1924.75 1066.11,1688.94 1060.06,1421.45C1056.96,1284.56 1125.45,1110.56 1120.67,995.838C1113.98,835.36 1040.68,734.009 951.318,736.985C831.466,740.976 818.576,867.103 776.607,891.201C753.625,904.398 711.398,872.951 712.617,845.222C718.089,720.77 800.784,723.226 845.45,671.343C911.856,594.207 1086.45,407.168 1088.79,336.87C1089.86,304.646 1048.65,306.132 1039.65,291.331C1028.9,273.664 1026.46,225.079 1048.38,212.382Z" style="stroke:black;stroke-width:1px;"/>
    <path d="M716.062,322.989C737.776,324.724 737.217,421.483 795.595,418.249C837.619,415.921 968.352,312.016 968.352,312.016C968.352,312.016 926.688,384.823 904.489,420.398C876.805,464.764 874.981,552.322 795.126,569.876C753.776,578.966 664.598,516.348 660.341,471.653C655.646,422.356 694.348,321.255 716.062,322.989Z" style="stroke:black;stroke-width:1px;"/>
    <path d="M653.593,1177.16C670.794,1176.51 706.848,1217.8 713.209,1242.49C719.569,1267.18 710.435,1308.85 691.756,1325.31C669.246,1345.16 624.804,1356.65 573.369,1355.9C532.764,1355.31 461.887,1325.14 462.875,1235.29C464.033,1130.07 548.881,1032.87 617.366,988.756C682.66,946.695 834.48,941.033 873.781,970.602C913.083,1000.17 903.688,1102.27 876.89,1159.95C849.674,1218.53 790.248,1282.98 742.768,1336.12C691.523,1393.49 568.673,1517.22 568.673,1517.22C568.673,1517.22 664.48,1487.14 710.957,1468.3C778.885,1440.75 835.485,1394.96 883.464,1392.09C932.477,1389.16 1004.62,1416.59 1005.03,1450.7C1005.59,1495.44 932.335,1500.12 888.24,1500.8C751.401,1502.91 649.483,1535.92 604.394,1560.24C497.768,1617.75 517.461,1674.6 475.233,1677.32C437.629,1679.74 371.536,1620.34 369.819,1591.21C366.105,1528.21 457.8,1536.95 497.027,1503.62C555.189,1454.19 660.848,1364.95 718.791,1294.68C768.763,1234.07 832.402,1131.18 836.738,1071.44C839.158,1038.09 812.833,1000.48 761.809,1002.33C679.336,1005.32 575.114,1110.38 569.467,1168.63C567.18,1192.22 574.03,1218.02 602.217,1218.1C616.31,1218.14 634.667,1177.88 653.593,1177.16Z" style="stroke:black;stroke-width:1px;"/>
    <g id="レイヤー1">
    </g>
</svg>
