<?xml version="1.0" encoding="UTF-8" standalone="no"?>
<!DOCTYPE svg PUBLIC "-//W3C//DTD SVG 1.1//EN" "http://www.w3.org/Graphics/SVG/1.1/DTD/svg11.dtd">
<svg width="100%" height="100%" viewBox="0 0 2048 2048" version="1.1" xmlns="http://www.w3.org/2000/svg" xmlns:xlink="http://www.w3.org/1999/xlink" xml:space="preserve" xmlns:serif="http://www.serif.com/" style="fill-rule:evenodd;clip-rule:evenodd;stroke-linecap:round;stroke-linejoin:round;stroke-miterlimit:1.5;">
    <g id="レイヤー1">
        <path d="M1275.91,146.21C1291.01,129.12 1386.05,137.9 1422.08,161.36C1467.43,190.895 1524.76,286.593 1530.85,329.986C1536.44,369.802 1480.66,421.89 1449.98,429.642C1419.3,437.394 1377.85,372.777 1335.55,379.177C1263.26,390.115 1107.19,479.838 986.153,568.145C884.921,642 553.365,806.602 533.362,777.336C512.966,747.495 660.755,718.061 804.156,619.75C893.617,558.419 991.179,464.535 1074.74,401.792C1150.76,344.709 1264.47,287.097 1289.5,239.009C1309.53,200.514 1260.82,163.301 1275.91,146.21Z" style="stroke:black;stroke-width:1px;"/>
        <path d="M1011.36,598.272C1033.5,608.174 952.914,762.822 965.145,769.476C980.24,777.689 1062.86,718.73 1107.66,690.692C1133.22,674.697 1192.05,611.062 1226.26,602.576C1256.77,595.009 1292.47,618.085 1305.53,632.956C1316.28,645.197 1303.35,688.851 1296.16,700.622C1284.83,719.171 1090.38,826.707 1099.68,946.671C1107.06,1041.69 1346.41,1042.87 1397.79,1161.29C1412.24,1194.6 1410.78,1247.62 1392.3,1278.89C1311.98,1414.7 1189.11,1318.33 972.323,1429.38C922.373,1454.96 845.831,1509.2 781.128,1627.9C753.429,1678.72 769.617,1781.55 771.943,1802.33C776.006,1838.65 790.207,1905.97 773.776,1911.59C738.755,1923.56 701.637,1711.31 719.499,1599.79C743.905,1447.41 896.299,1345.2 979.469,1294.74C1053.79,1249.64 1203.6,1220.71 1207.87,1168.88C1215.27,1079.16 1032.3,1058.72 1030.96,985.994C1028.8,869.196 1156.12,719.599 1156.12,719.599C1156.12,719.599 1040.92,803.795 998.187,849.732C959.273,891.561 961.322,978.409 909.066,990.924C870.635,1000.13 835.882,961.351 809.867,909.246C794.489,878.444 787.164,818.529 799.592,803.858C813.916,786.95 836.116,801.888 855.8,792.675C882.619,780.121 911.813,741.282 933.554,710.56C957.988,676.033 989.892,588.671 1011.36,598.272Z" style="stroke:black;stroke-width:1px;"/>
    </g>
</svg>
