<?xml version="1.0" encoding="UTF-8" standalone="no"?>
<!DOCTYPE svg PUBLIC "-//W3C//DTD SVG 1.1//EN" "http://www.w3.org/Graphics/SVG/1.1/DTD/svg11.dtd">
<svg width="100%" height="100%" viewBox="0 0 2048 2048" version="1.1" xmlns="http://www.w3.org/2000/svg" xmlns:xlink="http://www.w3.org/1999/xlink" xml:space="preserve" xmlns:serif="http://www.serif.com/" style="fill-rule:evenodd;clip-rule:evenodd;stroke-linecap:round;stroke-linejoin:round;stroke-miterlimit:1.5;">
    <path d="M845.938,130.5C881.685,106.008 1102.18,240.444 1150.91,283.708C1179.73,309.304 1186.46,352.77 1178.53,374.042C1162.85,416.126 1109.98,397.312 1095.65,421.084C1073.73,457.445 1056.54,567.853 1054.42,624.387C1050.18,737.266 1042.11,1126.25 1042.11,1126.25C1042.11,1126.25 1197.83,1015.28 1261.44,959.042C1359.77,872.104 1380.35,820.033 1400.94,764.625C1422.7,706.069 1364.68,653.21 1384.26,630.407C1408.52,602.139 1512.91,642.829 1557.75,671.947C1597.01,697.439 1634.7,762.425 1632.13,798.115C1624.74,900.888 1541.41,875.703 1499.7,894.88C1437.81,923.334 1374.75,977.302 1310.44,1034.15C1199.59,1132.15 1043.75,1197.71 1043.75,1197.71C1043.75,1197.71 1047.48,1630.34 1044.79,1731.84C1044.37,1747.44 1067.47,1768.4 1065.7,1795.14C1065.16,1803.42 1068.69,1882.08 1047.68,1885.13C1026.68,1888.18 966.957,1850.36 947.614,1823.55C929.667,1798.68 933.021,1746.99 936.07,1721.93C938.547,1701.56 965.654,1687.39 966.215,1668.34C968.713,1583.56 978.621,1219.77 978.621,1219.77C978.621,1219.77 897.914,1257.46 857.867,1271.06C816.166,1285.22 725.853,1324.39 724.031,1306.17C722.648,1292.33 790.379,1265.78 855.628,1231.54C915.501,1200.12 978.631,1157.99 978.631,1157.99L979.326,1047.02C979.326,1047.02 948.997,1052.77 941.656,1059.41C931.593,1068.51 920.01,1070.34 892.319,1073.51C826.656,1081.02 753.54,1067.2 742.648,1094.69C720.188,1151.38 721.67,1190.66 635.539,1312.07C585.565,1382.52 477.999,1518.58 468.438,1515.4C458.878,1512.22 558.183,1362.07 592.058,1297.45C620.513,1243.17 672.361,1108.12 672.361,1108.12C672.361,1108.12 580.312,1145.3 546.274,1160.95C508.097,1178.51 467.57,1224.12 442.654,1228.54C421.436,1232.3 407.978,1195.67 408.815,1175.16C411.499,1109.42 446.56,1102.75 458.827,1078.82C487.964,1021.99 572.397,840.45 586.188,840.667C599.464,840.875 580.388,932.798 573.093,969.744C566.932,1000.95 541.882,1058.51 541.882,1058.51L687.876,970.803C687.876,970.803 687.256,870.674 678.665,810.916C670.402,753.445 590.462,678.498 580.509,640.097C570.994,603.383 583.115,555.695 615.578,555.206C655.535,554.603 779.063,612.294 814.233,646.656C840.941,672.751 830.982,729.186 825.471,751.727C822.761,762.811 791.41,772.483 790.74,784.94C789.238,812.837 791.052,929.282 791.052,929.282C791.052,929.282 841.43,905.84 881.432,910.705C914.663,914.746 979.795,991.284 979.795,991.284C979.795,991.284 976.38,568.877 971.315,428.577C968.417,348.272 942.539,341.816 910.476,293.489C887.078,258.223 885.634,209.124 846.75,188.917C829.47,179.937 829.872,141.507 845.938,130.5Z" style="stroke:black;stroke-width:1px;"/>
</svg>
