<?xml version="1.0" encoding="UTF-8" standalone="no"?>
<!DOCTYPE svg PUBLIC "-//W3C//DTD SVG 1.1//EN" "http://www.w3.org/Graphics/SVG/1.1/DTD/svg11.dtd">
<svg width="100%" height="100%" viewBox="0 0 2048 2048" version="1.1" xmlns="http://www.w3.org/2000/svg" xmlns:xlink="http://www.w3.org/1999/xlink" xml:space="preserve" xmlns:serif="http://www.serif.com/" style="fill-rule:evenodd;clip-rule:evenodd;stroke-linecap:round;stroke-linejoin:round;stroke-miterlimit:1.5;">
    <g id="レイヤー1">
        <path d="M1220.87,155.851C1238.19,134.421 1289.76,145.018 1319.58,161.312C1364.17,185.68 1459.09,259.106 1468.46,304.116C1475.32,337.049 1467.84,375.039 1448.42,392.371C1432,407.033 1355.19,392.172 1316.78,414.653C1253.24,451.841 1060.82,613.348 1060.82,613.348C1060.82,613.348 1182.01,688.53 1237.06,731.677C1292.26,774.938 1367.34,852.654 1374.37,872.934C1383.33,898.765 1375.76,925.953 1360.13,941.742C1344.51,957.53 1298.14,948.882 1275.8,943.783C1255.16,939.071 1232.48,919.889 1207.57,915.612C1173.33,909.734 1100.62,900.257 1050.2,915.71C1001.29,930.703 927.498,947.84 925.583,1018.23C921.916,1153.06 1158.74,1174.98 1249.77,1237.38C1294.46,1268.01 1369.67,1327.29 1369.82,1393.16C1370.2,1561.99 1281.42,1626.47 1201.32,1692.25C1139.83,1742.74 1057.78,1779.06 985.346,1791.16C912.915,1803.27 770.659,1784.59 770.727,1759.28C770.796,1733.7 915.611,1755.54 967.464,1733.39C1059.45,1694.08 1122.53,1645.36 1188.38,1555.73C1214.66,1519.94 1223.67,1459.97 1206.12,1410.4C1171.6,1312.9 930.385,1225.47 866.75,1116.5C839.225,1069.37 850.564,992.474 865.719,951.711C875.873,924.401 936.415,872.122 980.206,843.254C1024,814.385 1148.47,778.98 1148.47,778.98L999.287,659.611C999.287,659.611 834.661,766.535 741.518,816.875C645.879,868.565 422.373,962.803 418.947,932.826C415.12,899.334 722.482,783.692 908.295,621.547C1045.1,502.166 1155.94,374.217 1207.76,295.709C1233.15,257.24 1203.56,177.282 1220.87,155.851Z" style="stroke:black;stroke-width:1px;"/>
        <path d="M800.403,1325.64C823.816,1305.97 870.032,1344.7 903.008,1346.34C935.984,1347.99 990.228,1301.21 1006.43,1318.27C1017.56,1329.99 987.576,1362.85 973.372,1391.95C959.864,1419.62 988.839,1483.54 965.601,1497.62C942.362,1511.71 899.02,1529.33 842.166,1468.39C796.644,1419.6 782.187,1340.95 800.403,1325.64Z" style="stroke:black;stroke-width:1px;"/>
    </g>
</svg>
