<?xml version="1.0" encoding="UTF-8" standalone="no"?>
<!DOCTYPE svg PUBLIC "-//W3C//DTD SVG 1.1//EN" "http://www.w3.org/Graphics/SVG/1.1/DTD/svg11.dtd">
<svg width="100%" height="100%" viewBox="0 0 2048 2048" version="1.1" xmlns="http://www.w3.org/2000/svg" xmlns:xlink="http://www.w3.org/1999/xlink" xml:space="preserve" xmlns:serif="http://www.serif.com/" style="fill-rule:evenodd;clip-rule:evenodd;stroke-linecap:round;stroke-linejoin:round;stroke-miterlimit:1.5;">
    <g transform="matrix(1,0,0,1,-56.9759,11.8258)">
        <path d="M998.503,679.911C1006.19,672.826 1031.29,679.826 1044.6,688.489C1074.55,707.983 1177.26,770.776 1174.04,806.427C1171.19,837.969 1114.06,843.846 1114.02,875.529C1113.91,954.801 1109.7,1278.49 1109.19,1340.46C1108.85,1382.85 1015.91,1287.89 1011.41,1237.1C1009.63,1216.94 1051.44,1214.29 1052.58,1173.65C1055.82,1058.33 1053.8,869.354 1054.4,797.984C1054.58,777.282 1015.71,747.031 1008.11,731.571C1000.82,716.743 990.813,686.995 998.503,679.911Z" style="stroke:black;stroke-width:1px;"/>
    </g>
    <path d="M1023.93,985.112C1084.17,986.4 1181.16,1064.02 1181.29,1131.01C1181.41,1194.42 1182,1294.57 1182.79,1353.63C1183.53,1409.33 1253.69,1470.16 1301.51,1471.22C1352.73,1472.36 1464.54,1408.33 1464.54,1408.33C1464.54,1408.33 1363.6,1527.91 1298.15,1528.64C1241.99,1529.27 1137,1438.62 1135.82,1364.52C1134.59,1286.99 1138.2,1170.95 1136.9,1114.24C1135.8,1066.26 1068.35,1023.59 1026.31,1022.05C984.267,1020.51 885.648,1053.41 884.665,1105.01C883.673,1157.11 942.287,1173.22 966.515,1174.3C982.035,1175 1020.52,1157.14 1020.52,1157.14L965.51,1281.71C965.51,1281.71 944.576,1234.62 922.926,1234.78C889.219,1235.04 832.189,1184.48 831.852,1140.88C830.978,1027.79 964.453,983.84 1023.93,985.112Z" style="stroke:black;stroke-width:1px;"/>
</svg>
