<?xml version="1.0" encoding="UTF-8" standalone="no"?>
<!DOCTYPE svg PUBLIC "-//W3C//DTD SVG 1.1//EN" "http://www.w3.org/Graphics/SVG/1.1/DTD/svg11.dtd">
<svg width="100%" height="100%" viewBox="0 0 2048 2048" version="1.1" xmlns="http://www.w3.org/2000/svg" xmlns:xlink="http://www.w3.org/1999/xlink" xml:space="preserve" xmlns:serif="http://www.serif.com/" style="fill-rule:evenodd;clip-rule:evenodd;stroke-linecap:round;stroke-linejoin:round;stroke-miterlimit:1.5;">
    <g transform="matrix(1,0,0,1,-159.762,38.5165)">
        <path d="M1322.43,733.029C1317.97,627.382 1437.22,568.637 1511.69,571.9C1571.68,574.528 1668.5,593.125 1672.72,716.292C1675.22,789.308 1598.82,873.707 1536.03,876.862C1513.27,878.006 1462.1,873.467 1461.15,860.961C1460.27,849.238 1492.26,816.297 1516.5,809.083C1548.1,799.676 1592.6,737.745 1592.44,710.25C1592.12,655.977 1555.36,633.308 1499.23,632.656C1466.41,632.275 1397.35,657.945 1396.38,691.542C1395.35,726.928 1440.22,738.055 1448.98,763.776C1457.74,789.497 1474.37,826.582 1448.93,845.865C1430.37,859.935 1324.2,774.988 1322.43,733.029Z" style="stroke:black;stroke-width:1px;"/>
    </g>
    <g transform="matrix(1,0,0,1,-27.4565,-63.7128)">
        <path d="M1228.77,246.235C1253.44,242.762 1339.15,281.622 1377.58,307.099C1413.87,331.161 1459.62,368.249 1459.35,399.1C1458.72,471.017 1359.99,449.364 1324.45,483.698C1267.95,538.287 1180.19,656.169 1101.77,732.39C994.279,836.858 891.532,993.439 891.532,993.439C891.532,993.439 1181.68,976.372 1310.13,1069.8C1365.78,1110.27 1419.58,1168.74 1418.12,1228.05C1414.48,1376.16 1248.09,1423.88 1155.9,1477.8C1076.98,1523.96 953.501,1594.41 953.683,1669.58C954.013,1806.08 1159.46,1928.79 1159.46,1928.79C1159.46,1928.79 881.602,1849.88 878.705,1655.34C877.01,1541.48 1006.4,1447.06 1078.29,1403.93C1153.8,1358.64 1270.15,1276.82 1266.82,1221.65C1263.27,1163.06 1170.55,1051.13 1024.38,1050.92C861.333,1050.69 773.353,1138.6 717.063,1190.17C681.893,1222.38 650.676,1266.53 643.634,1299.89C639.912,1317.52 628.942,1353.79 618.778,1374.83C606.902,1399.42 567.855,1441.24 539.179,1441.52C504.046,1441.86 432.708,1338.42 432.731,1297.99C432.787,1199.82 511.204,1212.73 546.114,1183.85C590.699,1146.97 658.689,1103.39 706.874,1063.48C755.51,1023.19 835.561,924.635 835.561,924.635C835.561,924.635 691.846,904.712 694.042,792.624C696.105,687.296 760.227,633.167 819.636,595C894.924,546.632 982.821,555.788 1025.95,597.994C1053.47,624.926 1050.84,697.949 1050.84,697.949C1050.84,697.949 1143.22,610.437 1176.13,558.806C1209.03,507.174 1241.89,425.588 1249.73,386.383C1254.18,364.087 1226.49,346.06 1223.13,323.574C1219.63,300.216 1208.67,249.065 1228.77,246.235ZM911.362,790.208C891.676,811.066 849.261,830.285 824.212,825.725C799.138,821.161 760.763,787.082 762.31,756.054C766.174,678.536 855.888,632.667 887.241,631.044C950,627.796 945.452,673.928 942.326,700.576C938.41,733.967 931.048,769.35 911.362,790.208Z" style="stroke:black;stroke-width:1px;"/>
    </g>
    <g id="レイヤー1">
    </g>
</svg>
