<?xml version="1.0" encoding="UTF-8" standalone="no"?>
<!DOCTYPE svg PUBLIC "-//W3C//DTD SVG 1.1//EN" "http://www.w3.org/Graphics/SVG/1.1/DTD/svg11.dtd">
<svg width="100%" height="100%" viewBox="0 0 2048 2048" version="1.1" xmlns="http://www.w3.org/2000/svg" xmlns:xlink="http://www.w3.org/1999/xlink" xml:space="preserve" xmlns:serif="http://www.serif.com/" style="fill-rule:evenodd;clip-rule:evenodd;stroke-linecap:round;stroke-linejoin:round;stroke-miterlimit:1.5;">
    <g id="レイヤー1">
        <path d="M1216.69,515.11C1216.69,515.11 1427.94,580.585 1472.12,636.719C1500.04,672.185 1500.8,729.076 1466.61,769.019C1452.43,785.581 1398.47,776.721 1366.04,768.61C1344.94,763.335 1337.18,755.612 1311.21,753.213C1282.43,750.554 1216.83,787.366 1183.05,851.639C1146.28,921.6 1126.2,1086.69 1152.69,1188.62C1179.17,1290.56 1251.37,1407.04 1341.2,1477.08C1505.31,1605.05 1755.5,1601.21 1762.95,1637.79C1776.54,1704.58 1449.52,1651.69 1273.66,1504.79C1168.85,1417.25 1084.34,1268.7 1055.28,1165.11C1031.04,1078.69 1041.23,974.548 1057.17,889.839C1075.16,794.255 1219.69,591.417 1219.69,591.417L1216.69,515.11Z" style="stroke:black;stroke-width:1px;"/>
        <path d="M735.318,161.798C735.318,161.798 867.883,158.598 955.91,199.307C998.723,219.106 1084.68,279.439 1104.2,307.572C1118.16,327.698 1104.7,365.332 1090.86,379.841C1077.01,394.349 1037.29,384.062 1021.12,394.624C1005.57,404.783 990.3,433.499 989.46,452.059C979.415,673.942 973.34,1435.71 970.061,1662.55C969.392,1708.9 1031.27,1757.41 1030.36,1793C1029.1,1842.81 1015.17,1880.01 977.008,1876.06C922.9,1870.45 865.222,1813.36 868.417,1744.52C870.783,1693.53 903.251,1692.75 903.966,1651.94C907.528,1448.61 909.068,670.24 912.069,452.781C912.605,414.014 897.359,374.998 878.011,341.569C849.361,292.065 735.318,161.798 735.318,161.798Z" style="stroke:black;stroke-width:1px;"/>
    </g>
</svg>
