<?xml version="1.0" encoding="UTF-8" standalone="no"?>
<!DOCTYPE svg PUBLIC "-//W3C//DTD SVG 1.1//EN" "http://www.w3.org/Graphics/SVG/1.1/DTD/svg11.dtd">
<svg width="100%" height="100%" viewBox="0 0 2048 2048" version="1.1" xmlns="http://www.w3.org/2000/svg" xmlns:xlink="http://www.w3.org/1999/xlink" xml:space="preserve" xmlns:serif="http://www.serif.com/" style="fill-rule:evenodd;clip-rule:evenodd;stroke-linecap:round;stroke-linejoin:round;stroke-miterlimit:1.5;">
    <path d="M998.503,679.911C1006.19,672.826 1031.29,679.826 1044.6,688.489C1074.55,707.983 1187.05,782.568 1183.83,818.219C1180.98,849.761 1093.75,843.131 1093.71,874.815C1093.6,954.086 1092.02,1230.83 1089.73,1292.21C1088.88,1315.03 1038.46,1253.22 1038.46,1253.22C1038.46,1253.22 1040.71,863.42 1041.49,771.917C1041.66,751.214 1015.71,747.031 1008.11,731.571C1000.82,716.743 990.813,686.995 998.503,679.911Z" style="stroke:black;stroke-width:1px;"/>
    <path d="M1058.54,1178.24L1062.22,1261.21C1062.22,1261.21 976.593,1249.48 947.368,1230.82C918.837,1212.6 885.127,1181.41 886.87,1149.25C889.823,1094.72 961.51,1026.86 1020.68,995.83C1084.18,962.53 1228.52,952.301 1260.24,1003.68C1323.85,1106.71 1248.34,1222.18 1160.33,1333.16C999.028,1536.55 780.356,1548.42 780.356,1548.42C780.356,1548.42 987.578,1446.15 1076.48,1349.32C1147.88,1271.54 1227.02,1126.46 1223.37,1068.68C1220.67,1025.99 1177.39,986.583 1108.77,993.026C1063.63,997.264 961.229,1050.5 957.709,1127.21C956.685,1149.53 980.987,1172.14 998.976,1177.72C1018.84,1183.88 1058.54,1178.24 1058.54,1178.24Z" style="stroke:black;stroke-width:1px;"/>
</svg>
