<?xml version="1.0" encoding="UTF-8" standalone="no"?>
<!DOCTYPE svg PUBLIC "-//W3C//DTD SVG 1.1//EN" "http://www.w3.org/Graphics/SVG/1.1/DTD/svg11.dtd">
<svg width="100%" height="100%" viewBox="0 0 2048 2048" version="1.1" xmlns="http://www.w3.org/2000/svg" xmlns:xlink="http://www.w3.org/1999/xlink" xml:space="preserve" xmlns:serif="http://www.serif.com/" style="fill-rule:evenodd;clip-rule:evenodd;stroke-linecap:round;stroke-linejoin:round;stroke-miterlimit:1.5;">
    <path d="M941.723,1172.88C941.723,1172.88 1002.46,1154.17 1034.7,1156.6C1132.68,1163.99 1136.21,1263.87 1133.81,1288.39C1129.97,1327.52 1124.07,1361.61 1126.23,1394.14C1128.76,1432.02 1167.14,1470.26 1223.11,1464.1C1306.87,1454.88 1411.4,1374.02 1411.4,1374.02C1411.4,1374.02 1318.25,1538.82 1160.68,1539.97C1102.66,1540.4 1031.46,1472.21 1030.41,1424.56C1029.23,1371.04 1059.9,1304.22 1060.96,1268.03C1064.54,1145.05 937.661,1199.63 937.661,1199.63L941.723,1172.88Z" style="stroke:black;stroke-width:1px;"/>
    <g transform="matrix(1,0,0,1,-70.6787,-98.0288)">
        <path d="M1131.74,1018.75C1154.32,1014.38 1237.8,1044.77 1234.74,1092.34C1232.06,1133.8 1173.34,1126.94 1153.5,1145.62C1107.94,1188.55 1046.24,1283.55 971.933,1349.36C851.891,1455.69 697.498,1493.99 697.498,1493.99C697.498,1493.99 854.129,1396.92 918.762,1332.39C984.748,1266.51 1053.97,1180.76 1080.92,1119.83C1091.83,1095.18 1070.87,1030.53 1131.74,1018.75Z" style="stroke:black;stroke-width:1px;"/>
    </g>
    <g transform="matrix(1,0,0,1,-70.6787,-98.0288)">
        <path d="M1140.85,882.845C1140.85,882.845 1041.65,963.821 1038.62,1022.01C1035.31,1085.52 1110.1,1080.05 1110.1,1080.05L1084.88,1162.68C1084.88,1162.68 984.175,1119.69 980.625,1080.16C977.034,1040.18 1023.29,931.198 1023.29,931.198L1140.85,882.845Z" style="stroke:black;stroke-width:1px;"/>
    </g>
    <g transform="matrix(0.99914,0,0,1,-69.6229,-98.0288)">
        <path d="M858.228,877.64C871.957,866.677 928.365,908.81 964.576,897.941C1004.38,885.992 1049.92,856.752 1077.56,835.689C1095.66,821.9 1129.95,793.968 1155.05,795.148C1180.15,796.327 1229.15,822.493 1228.16,842.768C1227.12,863.847 1189.6,874.481 1166.54,876.454C1133.8,879.256 1063.59,921.31 1028.67,946.812C994.316,971.899 970.668,997.739 948.685,1006.59C890.164,1030.15 844.499,888.603 858.228,877.64Z" style="stroke:black;stroke-width:1px;"/>
    </g>
</svg>
