<?xml version="1.0" encoding="UTF-8" standalone="no"?>
<!DOCTYPE svg PUBLIC "-//W3C//DTD SVG 1.1//EN" "http://www.w3.org/Graphics/SVG/1.1/DTD/svg11.dtd">
<svg width="100%" height="100%" viewBox="0 0 2048 2048" version="1.1" xmlns="http://www.w3.org/2000/svg" xmlns:xlink="http://www.w3.org/1999/xlink" xml:space="preserve" xmlns:serif="http://www.serif.com/" style="fill-rule:evenodd;clip-rule:evenodd;stroke-linecap:round;stroke-linejoin:round;stroke-miterlimit:1.5;">
    <path d="M948.991,1429.14C962.991,1426.85 999.163,1452.57 1026.14,1461.56C1055.57,1471.36 1101.06,1463.36 1125.56,1487.97C1137.71,1500.18 1138.85,1517.72 1135.57,1531.67C1131.07,1550.75 1062.04,1568.08 1036.29,1585.64C1016.6,1599.07 983.962,1634.37 983.962,1634.37C983.962,1634.37 1007.77,1582.68 1007.8,1558.31C1007.84,1531.02 964.942,1501.52 955.141,1479.99C948.624,1465.68 936.644,1431.17 948.991,1429.14Z" style="stroke:black;stroke-width:1px;"/>
    <path d="M807.979,773.601C816.785,768.824 843.217,794.91 861.04,790.586C883.959,785.025 910.971,764.212 934.596,748.824C959.449,732.638 966.273,694.958 1010.16,693.466C1044.82,692.287 1123.05,724.11 1124.09,750.638C1125.14,777.629 1074.23,807.974 1068.79,840.841C1049.76,955.818 1056.69,1162.02 1056.69,1162.02C1056.69,1162.02 1113.2,1111.67 1142.77,1088.09C1177.46,1060.41 1277.84,995.439 1277.84,995.439C1277.84,995.439 1138.35,1150.63 1108.47,1197.41C1093.42,1220.97 1082.81,1249.69 1085.57,1276.63C1088.34,1303.56 1117.36,1335.59 1116.36,1355.64C1115.36,1375.81 1089.46,1387.73 1067.58,1387.76C1047.27,1387.79 1009.69,1348.46 993.931,1320.63C975.761,1288.55 954.696,1223.25 955.918,1202.06C956.803,1186.7 1001.26,1193.46 1001.26,1193.46C1001.26,1193.46 1006.12,895.722 1003.04,824.552C1002.15,804.055 1001.84,764.69 982.757,766.44C963.676,768.19 909.154,817.333 888.551,835.054C876.464,845.449 873.599,868.24 859.094,870.046C845.315,871.76 819.482,842.254 810.963,826.18C803.248,811.622 799.173,778.379 807.979,773.601Z" style="stroke:black;stroke-width:1px;"/>
</svg>
