<?xml version="1.0" encoding="UTF-8" standalone="no"?>
<!DOCTYPE svg PUBLIC "-//W3C//DTD SVG 1.1//EN" "http://www.w3.org/Graphics/SVG/1.1/DTD/svg11.dtd">
<svg width="100%" height="100%" viewBox="0 0 2048 2048" version="1.1" xmlns="http://www.w3.org/2000/svg" xmlns:xlink="http://www.w3.org/1999/xlink" xml:space="preserve" xmlns:serif="http://www.serif.com/" style="fill-rule:evenodd;clip-rule:evenodd;stroke-linecap:round;stroke-linejoin:round;stroke-miterlimit:1.5;">
    <path d="M1250.35,166.025C1267.07,152.344 1354.23,165.874 1393.91,193.08C1440.54,225.045 1512.16,320.972 1511.86,365.362C1511.58,407.647 1456.85,443.584 1425.73,446.253C1395.44,448.851 1343.36,391.006 1310.36,400.781C1199.32,433.677 1081.65,496.508 984.438,571.208C793.261,718.115 500.053,804.435 500.053,804.435C500.053,804.435 659.314,709.239 736.719,663.875C841.976,602.188 980.507,479.37 1066.87,405.587C1154.57,330.659 1282.62,288.213 1283.22,256.667C1283.83,224.534 1228.1,184.238 1250.35,166.025Z" style="stroke:black;stroke-width:1px;"/>
    <path d="M1303.33,816.038C1315.5,803.224 1383.81,889.677 1418.32,887.657C1462.47,885.073 1521.41,810.544 1568.66,812.245C1617.52,814.005 1682.64,881.239 1680.29,946.774C1678.74,989.9 1616.99,1040.27 1587.25,1039.66C1560.29,1039.11 1516.4,1029.93 1517.62,1011.16C1518.84,992.386 1595.04,965.052 1594.58,927.023C1594.32,905.459 1572.67,874.03 1547,874.222C1470.84,874.792 1430.74,989.81 1391.32,990.986C1349.36,992.237 1279.56,841.056 1303.33,816.038Z" style="stroke:black;stroke-width:1px;"/>
    <path d="M1067.45,479.348C1067.45,479.348 1073.67,533.683 1058.94,561.208C1041.76,593.33 1001.85,618.472 968.657,671.402C915.082,756.824 901.198,813.494 901.198,813.494C901.198,813.494 998.708,771.86 1050.57,740.202C1103.07,708.16 1175.12,626.556 1216.9,622.451C1254.07,618.8 1287.17,648.889 1287.18,681.106C1287.2,732.979 1080.88,830.921 1075.35,964.588C1070.91,1071.98 1382.59,1073.27 1384.05,1253.82C1384.75,1339.98 1223.83,1383.33 1137.23,1389.47C1016.95,1397.99 773.763,1531.64 749.125,1734.08C739.98,1809.21 740.476,1935.44 740.476,1935.44C740.476,1935.44 655.409,1672.98 712.784,1550.45C817.161,1327.53 1187.43,1256.84 1188.22,1193.67C1189.52,1089.82 1011.72,1050.54 1011.28,983.527C1010.81,910.088 1141.32,734.181 1141.32,734.181C1141.32,734.181 1003.09,816.946 959.375,863.428C920.587,904.67 915.917,1011.07 879.028,1013.07C800.97,1017.32 752.499,858.76 768.602,830.127C776.819,815.516 806.251,840.777 818.892,829.766C862.353,791.908 980.76,560.83 980.76,560.83L1067.45,479.348Z" style="stroke:black;stroke-width:1px;"/>
    <g id="レイヤー1">
    </g>
</svg>
