<?xml version="1.0" encoding="UTF-8" standalone="no"?>
<!DOCTYPE svg PUBLIC "-//W3C//DTD SVG 1.1//EN" "http://www.w3.org/Graphics/SVG/1.1/DTD/svg11.dtd">
<svg width="100%" height="100%" viewBox="0 0 2048 2048" version="1.1" xmlns="http://www.w3.org/2000/svg" xmlns:xlink="http://www.w3.org/1999/xlink" xml:space="preserve" xmlns:serif="http://www.serif.com/" style="fill-rule:evenodd;clip-rule:evenodd;stroke-linecap:round;stroke-linejoin:round;stroke-miterlimit:1.5;">
    <path d="M957.755,894.694C976.139,896.178 1025.1,931.642 1055.2,964.272C1084.28,995.791 1127.37,1026.92 1097.54,1088.12C1087.5,1108.72 1035.2,1090.02 1013.89,1102.53C984.037,1120.05 875.933,1248.16 800.074,1247.66C749.566,1247.33 713.447,1145.12 717.28,1087.47C728.628,916.801 881.059,808.772 986.199,762.805C1091.34,716.838 1275.98,709.934 1341.69,823.235C1460.35,1027.85 1331.27,1185.94 1247.16,1264.38C1088.51,1412.32 905.055,1334.98 905.055,1334.98C905.055,1334.98 993.502,1327.74 1034.22,1315.4C1125.52,1287.73 1270.53,1170.29 1297.83,1018.94C1314.2,928.124 1280.7,804.32 1156.75,791.797C1081.98,784.244 944.765,804.672 879.727,850.141C814.688,895.609 766.71,1006.78 766.518,1064.61C766.39,1102.97 792.573,1164.31 826.733,1162.69C883.619,1159.99 963.801,1056.63 966.844,1017.75C969.453,984.407 949.113,973.215 946.327,954.235C943.54,935.255 940.972,893.34 957.755,894.694Z" style="stroke:black;stroke-width:1px;"/>
</svg>
