<?xml version="1.0" encoding="UTF-8" standalone="no"?>
<!DOCTYPE svg PUBLIC "-//W3C//DTD SVG 1.1//EN" "http://www.w3.org/Graphics/SVG/1.1/DTD/svg11.dtd">
<svg width="100%" height="100%" viewBox="0 0 2048 2048" version="1.1" xmlns="http://www.w3.org/2000/svg" xmlns:xlink="http://www.w3.org/1999/xlink" xml:space="preserve" xmlns:serif="http://www.serif.com/" style="fill-rule:evenodd;clip-rule:evenodd;stroke-linecap:round;stroke-linejoin:round;stroke-miterlimit:1.5;">
    <g id="レイヤー1">
        <path d="M685.42,634.959C692.77,619.541 743.749,657.927 773.469,667.081C805.156,676.84 851.891,675.45 878.359,689.967C902.636,703.281 932.593,731.824 932.281,754.182C931.792,789.203 856.38,794.847 823.226,817.514C782.787,845.161 678.663,970.256 664.189,958.214C647.847,944.619 751.197,793.748 749.573,769.616C747.859,744.158 668.852,669.716 685.42,634.959Z" style="stroke:black;stroke-width:1px;"/>
        <path d="M597.358,991.871C626.423,991.239 630.596,1030.33 656.015,1030.69C691.156,1031.2 807.291,973.939 843.936,976.263C873.606,978.144 897.359,991.494 895.779,1014.62C893.181,1052.64 786.568,1144.44 787.567,1201.91C788.536,1257.65 897.689,1288.1 896.726,1364.72C896.304,1398.26 872.756,1428.9 824.254,1432.57C789.449,1435.21 754.018,1393.33 698.323,1396.71C497.76,1408.88 491.409,1658.53 464.806,1659.99C438.203,1661.44 453.966,1516.35 538.706,1405.45C609.28,1313.08 736.896,1317.55 754.345,1303C765.824,1293.43 712.121,1254.44 710.807,1224.64C709.196,1188.08 777.571,1095.99 755.07,1076.61C728.733,1053.92 668.824,1176.34 634.812,1176.47C600.799,1176.6 550.917,1098.19 550.995,1077.38C551.107,1047.23 568.662,992.496 597.358,991.871Z" style="stroke:black;stroke-width:1px;"/>
        <path d="M862.338,206.077C882.057,175.367 1009.32,218.656 1066.26,239.512C1118.04,258.48 1178.93,300.46 1199.08,330.735C1213.72,352.735 1203.26,392.494 1189.82,410.358C1176.37,428.222 1137.84,422.772 1118.39,437.918C1101.92,450.751 1091.72,475.311 1091.2,496.226C1085.89,711.798 1070.79,1496.76 1074,1729.41C1074.44,1761.68 1136.61,1808.53 1136.46,1872.63C1136.38,1907.75 1091.35,1926.35 1063.35,1919.52C972.935,1897.5 966.681,1816.1 968.168,1773.87C969.538,1734.97 1002.2,1692.93 1002.62,1675.35C1004.34,1603.86 1008.89,715.634 1006.56,501.353C1006.11,459.272 980.011,395.305 958.588,350.612C933.98,299.276 847.117,229.781 862.338,206.077Z" style="stroke:black;stroke-width:1px;"/>
        <path d="M1394.91,648.542C1422.18,631.985 1489.63,684.735 1514.22,725.083C1561.81,803.178 1587.29,889.709 1547.73,931.833C1512.18,969.687 1463.32,876.436 1412.44,892.831C1344.83,914.62 1277.48,1029.79 1281.63,1122.44C1291.61,1345.68 1547.66,1463.18 1656.87,1484.42C1705.87,1493.96 1788.46,1480.76 1787.9,1504.56C1787.38,1526.54 1599.04,1536.34 1545.92,1517.94C1357.26,1452.62 1245.03,1383.02 1182.72,1106.75C1138.7,911.594 1373.02,716.422 1384.68,686.825C1391.17,670.34 1379.76,657.736 1394.91,648.542Z" style="stroke:black;stroke-width:1px;"/>
    </g>
</svg>
