<?xml version="1.0" encoding="UTF-8" standalone="no"?>
<!DOCTYPE svg PUBLIC "-//W3C//DTD SVG 1.1//EN" "http://www.w3.org/Graphics/SVG/1.1/DTD/svg11.dtd">
<svg width="100%" height="100%" viewBox="0 0 2048 2048" version="1.1" xmlns="http://www.w3.org/2000/svg" xmlns:xlink="http://www.w3.org/1999/xlink" xml:space="preserve" xmlns:serif="http://www.serif.com/" style="fill-rule:evenodd;clip-rule:evenodd;stroke-linecap:round;stroke-linejoin:round;stroke-miterlimit:1.5;">
    <path d="M470.451,949.288C492.442,951.558 492.674,1041.83 544.505,1037.92C592.507,1034.3 721.178,946.809 765.908,946.073C793.615,945.618 815.043,955.62 816.058,980.845C817.751,1022.92 657.825,1081.94 659.814,1209.58C661.054,1289.17 848.606,1298.18 846.367,1420.15C845.29,1478.85 760.429,1496.98 717.731,1498.15C412.72,1506.51 366.726,1788.43 366.726,1788.43C366.726,1788.43 360.513,1605.71 485.175,1496.96C548.46,1441.75 689.673,1406.44 690.011,1368.09C690.496,1312.89 607.366,1278.03 605.41,1228.17C603.454,1178.32 673.422,1063.82 673.422,1063.82C673.422,1063.82 608.529,1089.28 577.063,1119.79C559.079,1137.23 549.251,1178.97 528.368,1179.09C482.965,1179.34 403.884,1122.24 402.377,1081.05C400.933,1041.58 445.828,946.747 470.451,949.288Z" style="stroke:black;stroke-width:1px;"/>
    <path d="M962.425,240.009C990.427,229.872 1072.8,262.772 1110.7,282.931C1144.64,300.986 1188.12,324.456 1182.83,361.484C1174.91,417.024 1096.21,413.314 969.036,556.002C923.167,607.467 843.455,720.069 843.455,720.069C843.455,720.069 986.029,704.131 1054.49,782.921C1105.67,841.827 1163.6,928.289 1130.65,1170.66C1056.27,1717.78 1342.83,1812.11 1387.62,1820.08C1599.82,1857.84 1780.77,1722.77 1780.77,1722.77C1780.77,1722.77 1583.83,1960.81 1403.3,1956.26C1163.66,1950.22 972.841,1731.5 980.453,1511.29C986.001,1350.75 1035.48,1149.66 1039.71,1033.03C1046.53,844.923 947.704,792.266 886.454,783.08C762.149,764.438 711.219,919.428 666.615,921.234C648.823,921.955 634.644,895.736 633.899,877.945C630.398,794.373 737.472,741.709 737.472,741.709C737.472,741.709 832.464,640.224 874.67,585.145C918.847,527.492 1001.42,439.076 1002.54,395.792C1003.92,342.144 970.608,345.812 963.922,319.848C957.611,295.338 939.047,248.472 962.425,240.009Z" style="stroke:black;stroke-width:1px;"/>
    <path d="M1089.31,588.333C1106.75,580.335 1147.29,647.203 1192.69,647.75C1234.85,648.258 1303.76,584.088 1354.34,584.521C1405.96,584.963 1484.6,664.327 1485.94,726.042C1486.94,772.226 1408.18,817.175 1375.56,818.208C1345.94,819.146 1298.22,800.581 1298.03,781.083C1297.78,754.079 1379.39,729.111 1379.78,701.292C1380.09,679.548 1363.54,652.239 1332.32,652.325C1259.51,652.524 1215.52,764.816 1173.66,764.5C1115.27,764.06 1071.39,596.552 1089.31,588.333Z" style="stroke:black;stroke-width:1px;"/>
    <g id="レイヤー1">
    </g>
</svg>
