<?xml version="1.0" encoding="UTF-8" standalone="no"?>
<!DOCTYPE svg PUBLIC "-//W3C//DTD SVG 1.1//EN" "http://www.w3.org/Graphics/SVG/1.1/DTD/svg11.dtd">
<svg width="100%" height="100%" viewBox="0 0 2048 2048" version="1.1" xmlns="http://www.w3.org/2000/svg" xmlns:xlink="http://www.w3.org/1999/xlink" xml:space="preserve" xmlns:serif="http://www.serif.com/" style="fill-rule:evenodd;clip-rule:evenodd;stroke-linecap:round;stroke-linejoin:round;stroke-miterlimit:1.5;">
    <path d="M540.143,533.409C564.191,509.194 643.95,562.75 689.203,556.407C734.667,550.035 825.424,504.915 905.73,458.181C994.094,406.757 1019.12,357.382 1090.61,360.569C1133.34,362.474 1164.99,392.384 1162.62,420.9C1158.37,471.959 1054.04,470.451 941.031,621.208C879.136,703.779 838.118,805.658 851.625,827.167C864.011,846.89 938.282,822.014 955.537,771.235C975.998,711.024 1008.26,658.442 1078.17,662.65C1123.12,665.356 1180.23,707.368 1179.03,755.708C1178.1,793.125 1144.38,811.748 1129.25,836.829C1093.63,895.898 1011.51,1025.88 952.511,1104.68C897.303,1178.43 768.506,1297.1 768.506,1297.1C768.506,1297.1 895.907,1362.77 957.625,1399.12C1080.4,1471.44 1276.19,1662.93 1494.56,1656.54C1626.87,1652.67 1882.27,1561.19 1894.93,1585.84C1908.35,1611.98 1593.25,1787.55 1420.4,1793.97C1212.83,1801.68 1095.99,1670.15 984.781,1586.71C881.541,1509.24 810.368,1377.88 657.136,1379.88C502.679,1381.9 481.529,1537.81 380.375,1545.17C327.665,1549 296.481,1439.15 295.972,1405.17C295.622,1381.84 307.728,1365.03 320.667,1363.82C349.034,1361.17 374.489,1389.93 397.269,1384.72C420.232,1379.47 524.331,1317.35 594.744,1302.86C670.847,1287.19 768.415,1223.33 826.561,1147.97C985.725,941.662 975.746,852.322 975.746,852.322C975.746,852.322 888.956,906.632 853.906,905.792C813.711,904.828 771.308,859.713 768.563,819.333C764.789,763.845 902.772,556.766 902.772,556.766C902.772,556.766 823.514,619.565 792.125,653.292C762.311,685.326 752.925,755.627 719.956,758.884C686.988,762.141 624.281,710.412 594.313,672.833C564.344,635.254 523.701,549.966 540.143,533.409Z" style="stroke:black;stroke-width:1px;"/>
    <g id="レイヤー1">
    </g>
</svg>
