<?xml version="1.0" encoding="UTF-8" standalone="no"?>
<!DOCTYPE svg PUBLIC "-//W3C//DTD SVG 1.1//EN" "http://www.w3.org/Graphics/SVG/1.1/DTD/svg11.dtd">
<svg width="100%" height="100%" viewBox="0 0 2048 2048" version="1.1" xmlns="http://www.w3.org/2000/svg" xmlns:xlink="http://www.w3.org/1999/xlink" xml:space="preserve" xmlns:serif="http://www.serif.com/" style="fill-rule:evenodd;clip-rule:evenodd;stroke-linecap:round;stroke-linejoin:round;stroke-miterlimit:1.5;">
    <path d="M1070.1,975.355C1197.04,975.798 1215.29,1083.28 1214.36,1134.59C1212.93,1213.9 1118.58,1275.36 1086.47,1273.84C1070.65,1273.1 1064.3,1262.88 1065.75,1254.61C1067.2,1246.35 1078.94,1231.59 1093.87,1229.72C1120.84,1226.34 1174.84,1167.85 1173.71,1131.3C1172.48,1091.71 1152.49,1018.81 1062.66,1012.56C1034.26,1010.59 950.586,1035.24 948.99,1097.37C948.33,1123.08 967.506,1157.69 993.069,1156.4C1036.64,1154.21 1081.7,1155.57 1082.15,1190.03C1082.71,1232.37 1065.28,1266.79 1021.79,1267.04C989.652,1267.23 894.463,1200.52 895.149,1143.05C896.538,1026.7 1016.6,975.169 1070.1,975.355Z" style="stroke:black;stroke-width:1px;"/>
</svg>
