<?xml version="1.0" encoding="UTF-8" standalone="no"?>
<!DOCTYPE svg PUBLIC "-//W3C//DTD SVG 1.1//EN" "http://www.w3.org/Graphics/SVG/1.1/DTD/svg11.dtd">
<svg width="100%" height="100%" viewBox="0 0 2048 2048" version="1.1" xmlns="http://www.w3.org/2000/svg" xmlns:xlink="http://www.w3.org/1999/xlink" xml:space="preserve" xmlns:serif="http://www.serif.com/" style="fill-rule:evenodd;clip-rule:evenodd;stroke-linecap:round;stroke-linejoin:round;stroke-miterlimit:1.5;">
    <path d="M701.602,442.881C725.607,432.944 778.985,511.728 824.656,505.75C894.986,496.544 979.098,454.693 1030.12,415.417C1081.23,376.081 1085.94,335.669 1169.59,331.708C1211.04,329.746 1265.24,355.35 1264.53,381.375C1263.92,404.006 1219.41,422.293 1206.7,446.58C1162.37,531.219 1116.62,692.492 1002.35,893.327C843.784,1172 712.313,1254.54 712.313,1254.54C712.313,1254.54 811.228,1304.36 859.66,1327.46C977.029,1383.44 1196.96,1593.33 1416.53,1590.46C1553.32,1588.67 1812.58,1518.15 1812.58,1518.15C1812.58,1518.15 1501.97,1729.75 1331.69,1737.29C977.816,1752.96 831.221,1314.21 585.375,1325.21C448.286,1331.34 389.032,1496.88 339.094,1498.12C309.573,1498.86 282.761,1463.29 276.812,1435.12C271.6,1410.45 228.234,1393.04 229.759,1368.25C233.619,1305.5 322.146,1333.5 369,1318.04C433.148,1296.88 521.024,1270.61 606.707,1237.36C706.394,1198.67 800.856,1122.48 949.315,869.283C1061.23,678.412 1062.22,495.128 1062.22,495.128C1062.22,495.128 970.991,535.048 932.906,566.167C892.28,599.361 887.737,690.56 821.173,687.375C784.878,685.638 689.63,597.177 685.011,552.052C680.186,504.918 677.597,452.819 701.602,442.881Z" style="stroke:black;stroke-width:1px;"/>
    <path d="M789.47,735.655C789.47,735.655 978.873,731.897 1058.66,745.652C1188.22,767.988 1252.27,852.964 1247.04,899.217C1239.31,967.543 1127.05,1015.7 1094.16,1006.7C1071.33,1000.45 1075.73,962.467 1062.3,938.581C1047.62,912.449 1012.19,887.71 983.651,866.485C938.179,832.664 789.47,735.655 789.47,735.655Z" style="stroke:black;stroke-width:1px;"/>
    <g id="レイヤー1">
    </g>
</svg>
