<?xml version="1.0" encoding="UTF-8" standalone="no"?>
<!DOCTYPE svg PUBLIC "-//W3C//DTD SVG 1.1//EN" "http://www.w3.org/Graphics/SVG/1.1/DTD/svg11.dtd">
<svg width="100%" height="100%" viewBox="0 0 2048 2048" version="1.1" xmlns="http://www.w3.org/2000/svg" xmlns:xlink="http://www.w3.org/1999/xlink" xml:space="preserve" xmlns:serif="http://www.serif.com/" style="fill-rule:evenodd;clip-rule:evenodd;stroke-linecap:round;stroke-linejoin:round;stroke-miterlimit:1.5;">
    <path d="M518.494,1061.99C522.247,1039.5 574.601,1045.25 595.096,1048.56C610.676,1051.07 624.466,1072.47 643.325,1069.94C664.216,1067.14 718.443,996.098 732.332,1011.31C739.727,1019.4 661.293,1174.98 624.175,1176.52C606.156,1177.27 512.335,1098.91 518.494,1061.99Z" style="stroke:black;stroke-width:1px;"/>
    <g id="レイヤー1">
        <path d="M928.375,161.135C941.078,150.059 959.833,170.366 979.312,181.541C1004.99,196.273 1058.91,202.892 1112.65,234.044C1188.47,278.001 1219.7,332.692 1217.75,380.249C1216.54,409.75 1182.81,428.123 1159.54,432.559C1124.52,439.232 1071.82,412.909 1068.72,467.807C1062.06,585.799 1066.75,1171.17 1066.75,1171.17C1066.75,1171.17 1361.25,1079.23 1469.01,1049.56C1530.53,1032.62 1709.54,982.986 1712.39,993.492C1716.62,1009.06 1546.08,1071.27 1482.69,1095.93C1374.4,1138.07 1065.26,1238.88 1065.26,1238.88C1065.26,1238.88 1064.43,1497.93 1064.75,1590.92C1064.97,1653.45 1111.69,1725.94 1109.47,1773.12C1107.65,1811.89 1094.7,1873.05 1051.44,1874.04C1026.13,1874.62 959.851,1796.81 958.594,1755.71C958.101,1739.59 976.529,1650.67 977.074,1612.22C978.192,1533.41 981.645,1266.96 981.645,1266.96C981.645,1266.96 737.112,1350.26 668.236,1375.68C645.216,1384.17 626.777,1441.72 583.25,1452.21C554.557,1459.12 477.817,1388.52 477.538,1355.45C477.359,1334.15 462.232,1290.91 483.976,1289.02C518.113,1286.06 589.023,1298.5 629.198,1277.63C673.31,1254.72 713.127,1198.63 748.652,1151.54C781.674,1107.78 841.107,1019.88 845.119,899.706C847.423,830.666 821.702,770.299 773.281,767.417C733.964,765.076 678.965,803.41 662.525,847.161C649.308,882.334 667.832,928.339 644.152,975.932C636.287,991.741 553.818,1004.65 521.076,986.712C467.883,957.571 434.321,897.594 442.469,878.458C448.635,863.976 482.479,872.094 495.561,863.341C547.066,828.875 620.571,677.775 752.288,677.213C830.778,676.878 932.446,742.006 928.595,896.603C925.916,1004.17 861.111,1103.39 844.533,1126.77C815.503,1167.69 716.9,1260.8 747.22,1250.06C781.437,1237.94 982.123,1192.14 982.123,1192.14C982.123,1192.14 986.681,655.058 984.236,503.281C983.105,433.049 974.457,359.785 961.381,315.457C949.713,275.903 932.238,262.774 932.121,241.461C931.99,217.408 915.672,172.212 928.375,161.135Z" style="stroke:black;stroke-width:1px;"/>
    </g>
</svg>
